%TF.GenerationSoftware,KiCad,Pcbnew,9.0.7*%
%TF.CreationDate,2026-03-06T16:11:09+05:30*%
%TF.ProjectId,V2 Solenoid Engine PCB,56322053-6f6c-4656-9e6f-696420456e67,rev?*%
%TF.SameCoordinates,Original*%
%TF.FileFunction,Legend,Top*%
%TF.FilePolarity,Positive*%
%FSLAX46Y46*%
G04 Gerber Fmt 4.6, Leading zero omitted, Abs format (unit mm)*
G04 Created by KiCad (PCBNEW 9.0.7) date 2026-03-06 16:11:09*
%MOMM*%
%LPD*%
G01*
G04 APERTURE LIST*
%ADD10C,0.300000*%
%ADD11C,0.150000*%
%ADD12C,0.200000*%
%ADD13C,0.120000*%
%ADD14C,0.152400*%
%ADD15C,0.127000*%
%TA.AperFunction,Profile*%
%ADD16C,0.050000*%
%TD*%
G04 APERTURE END LIST*
D10*
X119594728Y-88118686D02*
X120261394Y-91118686D01*
X120261394Y-91118686D02*
X120928061Y-88118686D01*
X121499490Y-88404400D02*
X121594728Y-88261543D01*
X121594728Y-88261543D02*
X121785204Y-88118686D01*
X121785204Y-88118686D02*
X122261395Y-88118686D01*
X122261395Y-88118686D02*
X122451871Y-88261543D01*
X122451871Y-88261543D02*
X122547109Y-88404400D01*
X122547109Y-88404400D02*
X122642347Y-88690114D01*
X122642347Y-88690114D02*
X122642347Y-88975829D01*
X122642347Y-88975829D02*
X122547109Y-89404400D01*
X122547109Y-89404400D02*
X121404252Y-91118686D01*
X121404252Y-91118686D02*
X122642347Y-91118686D01*
G36*
X114119784Y-122915481D02*
G01*
X113679597Y-126245000D01*
X112359770Y-126245000D01*
X111860232Y-122915481D01*
X112782188Y-122915481D01*
X112921232Y-124239333D01*
X113002373Y-125250870D01*
X113069298Y-124310844D01*
X113137928Y-123538117D01*
X113197828Y-122915481D01*
X114119784Y-122915481D01*
G37*
G36*
X116017184Y-122915481D02*
G01*
X115714751Y-124388449D01*
X116171241Y-126245000D01*
X115360110Y-126245000D01*
X115228802Y-125713431D01*
X115102190Y-125020427D01*
X115068099Y-125348818D01*
X115017743Y-125698201D01*
X114935128Y-126245000D01*
X114082781Y-126245000D01*
X114395290Y-124388815D01*
X114082415Y-122915481D01*
X114928716Y-122915481D01*
X115019758Y-123377100D01*
X115102739Y-123804281D01*
X115281891Y-122915481D01*
X116017184Y-122915481D01*
G37*
G36*
X118859622Y-123935439D02*
G01*
X118046659Y-123935439D01*
X118046659Y-123681915D01*
X118036912Y-123526340D01*
X118017167Y-123465027D01*
X117979631Y-123431703D01*
X117919348Y-123419598D01*
X117853333Y-123434916D01*
X117805958Y-123480232D01*
X117778471Y-123550315D01*
X117767307Y-123666894D01*
X117780094Y-123818180D01*
X117811637Y-123911259D01*
X117879018Y-123990190D01*
X118053437Y-124112759D01*
X118436063Y-124362925D01*
X118662651Y-124547241D01*
X118780670Y-124680990D01*
X118840008Y-124791846D01*
X118887384Y-124940614D01*
X118919460Y-125136795D01*
X118931429Y-125391371D01*
X118919887Y-125629892D01*
X118890026Y-125799680D01*
X118847715Y-125916737D01*
X118779482Y-126018181D01*
X118674719Y-126112782D01*
X118524581Y-126200853D01*
X118361375Y-126263031D01*
X118177203Y-126301804D01*
X117968440Y-126315341D01*
X117739714Y-126299561D01*
X117543366Y-126254849D01*
X117374198Y-126183817D01*
X117222672Y-126082988D01*
X117117709Y-125971610D01*
X117051248Y-125848410D01*
X117012068Y-125709804D01*
X116985062Y-125521577D01*
X116974861Y-125271570D01*
X116974861Y-125049187D01*
X117787823Y-125049187D01*
X117787823Y-125455851D01*
X117798437Y-125622321D01*
X117820246Y-125690141D01*
X117862912Y-125727068D01*
X117935651Y-125740882D01*
X118008526Y-125724208D01*
X118059116Y-125675486D01*
X118088248Y-125600480D01*
X118099965Y-125478565D01*
X118088117Y-125283248D01*
X118059459Y-125165398D01*
X118021563Y-125099745D01*
X117907202Y-125000404D01*
X117618746Y-124799143D01*
X117326075Y-124596213D01*
X117191565Y-124488283D01*
X117098263Y-124377162D01*
X117017176Y-124220104D01*
X116967068Y-124035658D01*
X116948116Y-123783398D01*
X116961681Y-123527247D01*
X116996687Y-123346509D01*
X117046302Y-123223044D01*
X117122881Y-123115621D01*
X117226958Y-123023205D01*
X117363207Y-122945157D01*
X117512285Y-122891418D01*
X117686598Y-122857258D01*
X117890588Y-122845139D01*
X118113561Y-122858469D01*
X118303767Y-122896015D01*
X118466146Y-122955048D01*
X118615266Y-123040333D01*
X118717332Y-123132543D01*
X118781952Y-123232020D01*
X118820350Y-123347975D01*
X118848471Y-123529020D01*
X118859622Y-123797869D01*
X118859622Y-123935439D01*
G37*
G36*
X120255853Y-123476614D02*
G01*
X120414901Y-123505163D01*
X120551492Y-123550024D01*
X120680050Y-123613990D01*
X120782275Y-123686566D01*
X120861985Y-123767461D01*
X120955628Y-123906175D01*
X121011645Y-124043700D01*
X121040053Y-124204247D01*
X121051945Y-124475094D01*
X121051945Y-125140045D01*
X121040858Y-125482573D01*
X121014759Y-125678784D01*
X120957425Y-125843205D01*
X120855757Y-126000268D01*
X120767496Y-126090677D01*
X120663934Y-126163975D01*
X120543065Y-126220819D01*
X120343655Y-126273246D01*
X120105443Y-126291894D01*
X119841227Y-126275454D01*
X119638146Y-126231261D01*
X119515548Y-126181704D01*
X119417323Y-126120318D01*
X119339742Y-126047529D01*
X119249357Y-125913694D01*
X119187701Y-125750774D01*
X119155749Y-125555198D01*
X119142455Y-125230170D01*
X119142455Y-124534445D01*
X119153346Y-124280266D01*
X119154837Y-124270296D01*
X119982162Y-124270296D01*
X119982162Y-125496334D01*
X119989831Y-125670865D01*
X120005609Y-125743630D01*
X120039582Y-125785076D01*
X120097200Y-125799501D01*
X120156807Y-125785928D01*
X120189707Y-125748576D01*
X120204865Y-125682312D01*
X120212238Y-125522896D01*
X120212238Y-124270296D01*
X120204949Y-124081608D01*
X120190623Y-124010727D01*
X120158492Y-123972682D01*
X120099215Y-123958886D01*
X120039489Y-123972651D01*
X120005609Y-124010910D01*
X119990061Y-124081825D01*
X119982162Y-124270296D01*
X119154837Y-124270296D01*
X119182376Y-124086116D01*
X119224887Y-123940568D01*
X119293724Y-123808417D01*
X119391602Y-123694324D01*
X119522191Y-123596369D01*
X119670778Y-123526900D01*
X119851257Y-123482455D01*
X120070639Y-123466493D01*
X120255853Y-123476614D01*
G37*
G36*
X122176867Y-122915481D02*
G01*
X122176867Y-126245000D01*
X121312614Y-126245000D01*
X121312614Y-122915481D01*
X122176867Y-122915481D01*
G37*
G36*
X123589071Y-123482798D02*
G01*
X123779365Y-123528249D01*
X123936698Y-123599300D01*
X124076080Y-123699746D01*
X124181286Y-123816533D01*
X124256350Y-123951376D01*
X124303730Y-124100780D01*
X124336125Y-124301567D01*
X124348308Y-124566318D01*
X124348308Y-124931950D01*
X123276509Y-124931950D01*
X123276509Y-125514286D01*
X123284895Y-125680887D01*
X123301972Y-125748393D01*
X123337661Y-125785874D01*
X123399791Y-125799501D01*
X123476810Y-125781502D01*
X123520874Y-125731174D01*
X123541880Y-125645932D01*
X123551649Y-125460797D01*
X123551649Y-125096081D01*
X124348308Y-125096081D01*
X124348308Y-125302711D01*
X124339029Y-125540943D01*
X124316251Y-125691606D01*
X124266083Y-125826125D01*
X124166591Y-125982500D01*
X124081144Y-126077042D01*
X123982239Y-126154069D01*
X123868371Y-126214591D01*
X123745616Y-126255625D01*
X123596504Y-126282275D01*
X123416094Y-126291894D01*
X123162175Y-126271873D01*
X122950628Y-126215690D01*
X122821447Y-126156123D01*
X122717772Y-126086280D01*
X122635921Y-126006496D01*
X122540211Y-125865785D01*
X122480033Y-125713771D01*
X122449377Y-125536211D01*
X122436802Y-125250687D01*
X122436802Y-124458607D01*
X122446056Y-124283852D01*
X123276509Y-124283852D01*
X123276509Y-124474727D01*
X123506586Y-124474727D01*
X123506586Y-124283852D01*
X123499452Y-124094300D01*
X123484970Y-124017505D01*
X123452669Y-123973747D01*
X123397776Y-123958886D01*
X123328196Y-123972853D01*
X123296110Y-124008346D01*
X123283287Y-124078974D01*
X123276509Y-124283852D01*
X122446056Y-124283852D01*
X122449397Y-124220755D01*
X122483321Y-124035975D01*
X122533889Y-123894223D01*
X122611580Y-123767768D01*
X122716303Y-123662556D01*
X122851710Y-123576769D01*
X123002491Y-123516621D01*
X123170475Y-123479408D01*
X123358758Y-123466493D01*
X123589071Y-123482798D01*
G37*
G36*
X125461323Y-123513387D02*
G01*
X125447767Y-123745296D01*
X125539737Y-123629604D01*
X125658060Y-123541231D01*
X125797235Y-123485769D01*
X125961227Y-123466493D01*
X126101369Y-123478793D01*
X126217075Y-123513307D01*
X126313119Y-123568159D01*
X126394616Y-123642918D01*
X126452536Y-123727441D01*
X126489158Y-123823515D01*
X126516590Y-124002751D01*
X126528542Y-124334593D01*
X126528542Y-126245000D01*
X125689018Y-126245000D01*
X125689018Y-124356575D01*
X125682831Y-124103327D01*
X125671249Y-124017871D01*
X125639976Y-123974782D01*
X125573980Y-123958886D01*
X125504241Y-123976776D01*
X125468100Y-124027213D01*
X125453938Y-124124055D01*
X125446485Y-124401638D01*
X125446485Y-126245000D01*
X124606961Y-126245000D01*
X124606961Y-123513387D01*
X125461323Y-123513387D01*
G37*
G36*
X127890884Y-123476614D02*
G01*
X128049933Y-123505163D01*
X128186523Y-123550024D01*
X128315081Y-123613990D01*
X128417306Y-123686566D01*
X128497017Y-123767461D01*
X128590660Y-123906175D01*
X128646677Y-124043700D01*
X128675084Y-124204247D01*
X128686977Y-124475094D01*
X128686977Y-125140045D01*
X128675890Y-125482573D01*
X128649791Y-125678784D01*
X128592457Y-125843205D01*
X128490789Y-126000268D01*
X128402528Y-126090677D01*
X128298966Y-126163975D01*
X128178097Y-126220819D01*
X127978686Y-126273246D01*
X127740475Y-126291894D01*
X127476258Y-126275454D01*
X127273177Y-126231261D01*
X127150580Y-126181704D01*
X127052354Y-126120318D01*
X126974773Y-126047529D01*
X126884388Y-125913694D01*
X126822732Y-125750774D01*
X126790780Y-125555198D01*
X126777486Y-125230170D01*
X126777486Y-124534445D01*
X126788377Y-124280266D01*
X126789868Y-124270296D01*
X127617193Y-124270296D01*
X127617193Y-125496334D01*
X127624862Y-125670865D01*
X127640640Y-125743630D01*
X127674614Y-125785076D01*
X127732231Y-125799501D01*
X127791838Y-125785928D01*
X127824738Y-125748576D01*
X127839897Y-125682312D01*
X127847270Y-125522896D01*
X127847270Y-124270296D01*
X127839981Y-124081608D01*
X127825654Y-124010727D01*
X127793523Y-123972682D01*
X127734246Y-123958886D01*
X127674521Y-123972651D01*
X127640640Y-124010910D01*
X127625092Y-124081825D01*
X127617193Y-124270296D01*
X126789868Y-124270296D01*
X126817407Y-124086116D01*
X126859918Y-123940568D01*
X126928756Y-123808417D01*
X127026633Y-123694324D01*
X127157223Y-123596369D01*
X127305809Y-123526900D01*
X127486288Y-123482455D01*
X127705670Y-123466493D01*
X127890884Y-123476614D01*
G37*
G36*
X129811898Y-122915481D02*
G01*
X129811898Y-123360980D01*
X128947645Y-123360980D01*
X128947645Y-122915481D01*
X129811898Y-122915481D01*
G37*
G36*
X129811898Y-123513387D02*
G01*
X129811898Y-126245000D01*
X128947645Y-126245000D01*
X128947645Y-123513387D01*
X129811898Y-123513387D01*
G37*
G36*
X131991582Y-126245000D02*
G01*
X131151876Y-126245000D01*
X131151876Y-126053391D01*
X131035524Y-126155146D01*
X130910075Y-126229612D01*
X130774533Y-126276362D01*
X130633104Y-126291894D01*
X130506726Y-126280049D01*
X130395180Y-126245778D01*
X130295499Y-126189495D01*
X130208452Y-126114451D01*
X130148709Y-126035935D01*
X130112134Y-125952824D01*
X130083974Y-125797468D01*
X130071834Y-125516667D01*
X130071834Y-124245933D01*
X130073571Y-124204717D01*
X130911541Y-124204717D01*
X130911541Y-125535169D01*
X130919144Y-125685388D01*
X130934988Y-125749675D01*
X130967954Y-125786391D01*
X131024564Y-125799501D01*
X131089491Y-125784641D01*
X131126230Y-125743447D01*
X131143227Y-125666592D01*
X131151876Y-125461530D01*
X131151876Y-124204717D01*
X131144062Y-124069393D01*
X131127329Y-124007979D01*
X131092723Y-123972124D01*
X131030609Y-123958886D01*
X130969686Y-123970918D01*
X130935904Y-124002850D01*
X130919557Y-124060967D01*
X130911541Y-124204717D01*
X130073571Y-124204717D01*
X130084119Y-123954479D01*
X130112134Y-123799518D01*
X130148880Y-123717929D01*
X130209248Y-123640748D01*
X130297697Y-123566877D01*
X130398613Y-123511919D01*
X130512792Y-123478208D01*
X130643362Y-123466493D01*
X130793531Y-123480928D01*
X130927477Y-123522913D01*
X131048279Y-123590828D01*
X131151876Y-123681366D01*
X131151876Y-122915481D01*
X131991582Y-122915481D01*
X131991582Y-126245000D01*
G37*
G36*
X133040300Y-122915481D02*
G01*
X134490553Y-122915481D01*
X134490553Y-123595453D01*
X133914812Y-123595453D01*
X133914812Y-124205083D01*
X134453734Y-124205083D01*
X134453734Y-124849884D01*
X133914812Y-124849884D01*
X133914812Y-125565027D01*
X134548072Y-125565027D01*
X134548072Y-126245000D01*
X133040300Y-126245000D01*
X133040300Y-122915481D01*
G37*
G36*
X135614009Y-123513387D02*
G01*
X135600454Y-123745296D01*
X135692424Y-123629604D01*
X135810747Y-123541231D01*
X135949922Y-123485769D01*
X136113913Y-123466493D01*
X136254056Y-123478793D01*
X136369761Y-123513307D01*
X136465806Y-123568159D01*
X136547302Y-123642918D01*
X136605222Y-123727441D01*
X136641844Y-123823515D01*
X136669277Y-124002751D01*
X136681228Y-124334593D01*
X136681228Y-126245000D01*
X135841705Y-126245000D01*
X135841705Y-124356575D01*
X135835518Y-124103327D01*
X135823936Y-124017871D01*
X135792663Y-123974782D01*
X135726666Y-123958886D01*
X135656927Y-123976776D01*
X135620787Y-124027213D01*
X135606624Y-124124055D01*
X135599171Y-124401638D01*
X135599171Y-126245000D01*
X134759648Y-126245000D01*
X134759648Y-123513387D01*
X135614009Y-123513387D01*
G37*
G36*
X137651373Y-123482947D02*
G01*
X137786183Y-123530973D01*
X137905971Y-123608661D01*
X138009482Y-123715071D01*
X138067001Y-123513387D01*
X138847907Y-123513387D01*
X138847907Y-125613754D01*
X138841428Y-126001734D01*
X138828123Y-126163483D01*
X138786829Y-126285603D01*
X138688721Y-126427998D01*
X138601631Y-126511180D01*
X138491865Y-126582198D01*
X138355513Y-126640673D01*
X138211350Y-126679334D01*
X138034558Y-126704727D01*
X137819339Y-126713946D01*
X137556980Y-126696994D01*
X137347243Y-126650544D01*
X137180400Y-126579490D01*
X137079342Y-126501499D01*
X137003361Y-126392381D01*
X136952062Y-126244361D01*
X136929990Y-126045697D01*
X137745333Y-126045697D01*
X137762181Y-126151019D01*
X137803596Y-126203759D01*
X137870630Y-126221552D01*
X137949373Y-126206822D01*
X137990797Y-126168796D01*
X138010893Y-126100498D01*
X138020473Y-125941833D01*
X138020473Y-125751140D01*
X137917228Y-125830511D01*
X137803952Y-125890176D01*
X137682532Y-125927649D01*
X137555007Y-125940184D01*
X137407266Y-125929035D01*
X137285102Y-125897886D01*
X137183880Y-125848960D01*
X137095324Y-125780327D01*
X137029551Y-125700978D01*
X136984028Y-125609541D01*
X136945655Y-125445553D01*
X136930173Y-125189504D01*
X136930173Y-124243185D01*
X137769880Y-124243185D01*
X137769880Y-125161294D01*
X137776921Y-125327358D01*
X137791312Y-125395584D01*
X137823337Y-125434040D01*
X137880888Y-125447791D01*
X137946212Y-125431294D01*
X137982371Y-125384410D01*
X137998291Y-125300240D01*
X138006185Y-125089303D01*
X138006185Y-124243185D01*
X137999338Y-124073880D01*
X137985668Y-124007979D01*
X137954547Y-123972143D01*
X137895176Y-123958886D01*
X137836557Y-123973308D01*
X137798456Y-124015490D01*
X137778983Y-124086436D01*
X137769880Y-124243185D01*
X136930173Y-124243185D01*
X136930173Y-124200687D01*
X136949274Y-123943111D01*
X136998891Y-123762324D01*
X137071040Y-123638684D01*
X137147348Y-123565830D01*
X137241439Y-123512536D01*
X137357113Y-123478666D01*
X137499686Y-123466493D01*
X137651373Y-123482947D01*
G37*
G36*
X139996825Y-122915481D02*
G01*
X139996825Y-123360980D01*
X139132572Y-123360980D01*
X139132572Y-122915481D01*
X139996825Y-122915481D01*
G37*
G36*
X139996825Y-123513387D02*
G01*
X139996825Y-126245000D01*
X139132572Y-126245000D01*
X139132572Y-123513387D01*
X139996825Y-123513387D01*
G37*
G36*
X141135852Y-123513387D02*
G01*
X141122296Y-123745296D01*
X141214266Y-123629604D01*
X141332589Y-123541231D01*
X141471764Y-123485769D01*
X141635756Y-123466493D01*
X141775898Y-123478793D01*
X141891604Y-123513307D01*
X141987648Y-123568159D01*
X142069145Y-123642918D01*
X142127065Y-123727441D01*
X142163686Y-123823515D01*
X142191119Y-124002751D01*
X142203071Y-124334593D01*
X142203071Y-126245000D01*
X141363547Y-126245000D01*
X141363547Y-124356575D01*
X141357360Y-124103327D01*
X141345778Y-124017871D01*
X141314505Y-123974782D01*
X141248509Y-123958886D01*
X141178770Y-123976776D01*
X141142629Y-124027213D01*
X141128467Y-124124055D01*
X141121014Y-124401638D01*
X141121014Y-126245000D01*
X140281490Y-126245000D01*
X140281490Y-123513387D01*
X141135852Y-123513387D01*
G37*
G36*
X143604284Y-123482798D02*
G01*
X143794578Y-123528249D01*
X143951910Y-123599300D01*
X144091293Y-123699746D01*
X144196499Y-123816533D01*
X144271563Y-123951376D01*
X144318943Y-124100780D01*
X144351338Y-124301567D01*
X144363521Y-124566318D01*
X144363521Y-124931950D01*
X143291722Y-124931950D01*
X143291722Y-125514286D01*
X143300108Y-125680887D01*
X143317184Y-125748393D01*
X143352874Y-125785874D01*
X143415004Y-125799501D01*
X143492022Y-125781502D01*
X143536087Y-125731174D01*
X143557093Y-125645932D01*
X143566862Y-125460797D01*
X143566862Y-125096081D01*
X144363521Y-125096081D01*
X144363521Y-125302711D01*
X144354242Y-125540943D01*
X144331464Y-125691606D01*
X144281296Y-125826125D01*
X144181804Y-125982500D01*
X144096357Y-126077042D01*
X143997452Y-126154069D01*
X143883584Y-126214591D01*
X143760828Y-126255625D01*
X143611716Y-126282275D01*
X143431307Y-126291894D01*
X143177387Y-126271873D01*
X142965841Y-126215690D01*
X142836660Y-126156123D01*
X142732985Y-126086280D01*
X142651134Y-126006496D01*
X142555424Y-125865785D01*
X142495246Y-125713771D01*
X142464590Y-125536211D01*
X142452015Y-125250687D01*
X142452015Y-124458607D01*
X142461269Y-124283852D01*
X143291722Y-124283852D01*
X143291722Y-124474727D01*
X143521799Y-124474727D01*
X143521799Y-124283852D01*
X143514665Y-124094300D01*
X143500183Y-124017505D01*
X143467882Y-123973747D01*
X143412989Y-123958886D01*
X143343408Y-123972853D01*
X143311323Y-124008346D01*
X143298500Y-124078974D01*
X143291722Y-124283852D01*
X142461269Y-124283852D01*
X142464610Y-124220755D01*
X142498534Y-124035975D01*
X142549102Y-123894223D01*
X142626792Y-123767768D01*
X142731516Y-123662556D01*
X142866923Y-123576769D01*
X143017704Y-123516621D01*
X143185688Y-123479408D01*
X143373971Y-123466493D01*
X143604284Y-123482798D01*
G37*
G36*
X145188573Y-124615411D02*
G01*
X149446459Y-124615411D01*
X149446459Y-125142976D01*
X145188573Y-125142976D01*
X145188573Y-124615411D01*
G37*
G36*
X152163599Y-123935439D02*
G01*
X151350637Y-123935439D01*
X151350637Y-123681915D01*
X151340890Y-123526340D01*
X151321145Y-123465027D01*
X151283608Y-123431703D01*
X151223325Y-123419598D01*
X151157311Y-123434916D01*
X151109936Y-123480232D01*
X151082449Y-123550315D01*
X151071284Y-123666894D01*
X151084072Y-123818180D01*
X151115614Y-123911259D01*
X151182996Y-123990190D01*
X151357415Y-124112759D01*
X151740040Y-124362925D01*
X151966628Y-124547241D01*
X152084648Y-124680990D01*
X152143986Y-124791846D01*
X152191362Y-124940614D01*
X152223438Y-125136795D01*
X152235407Y-125391371D01*
X152223865Y-125629892D01*
X152194003Y-125799680D01*
X152151692Y-125916737D01*
X152083459Y-126018181D01*
X151978697Y-126112782D01*
X151828559Y-126200853D01*
X151665353Y-126263031D01*
X151481181Y-126301804D01*
X151272418Y-126315341D01*
X151043692Y-126299561D01*
X150847344Y-126254849D01*
X150678175Y-126183817D01*
X150526650Y-126082988D01*
X150421687Y-125971610D01*
X150355225Y-125848410D01*
X150316046Y-125709804D01*
X150289039Y-125521577D01*
X150278838Y-125271570D01*
X150278838Y-125049187D01*
X151091801Y-125049187D01*
X151091801Y-125455851D01*
X151102415Y-125622321D01*
X151124224Y-125690141D01*
X151166890Y-125727068D01*
X151239629Y-125740882D01*
X151312503Y-125724208D01*
X151363093Y-125675486D01*
X151392226Y-125600480D01*
X151403943Y-125478565D01*
X151392095Y-125283248D01*
X151363437Y-125165398D01*
X151325541Y-125099745D01*
X151211180Y-125000404D01*
X150922723Y-124799143D01*
X150630053Y-124596213D01*
X150495543Y-124488283D01*
X150402240Y-124377162D01*
X150321153Y-124220104D01*
X150271046Y-124035658D01*
X150252094Y-123783398D01*
X150265659Y-123527247D01*
X150300665Y-123346509D01*
X150350279Y-123223044D01*
X150426859Y-123115621D01*
X150530935Y-123023205D01*
X150667184Y-122945157D01*
X150816262Y-122891418D01*
X150990576Y-122857258D01*
X151194566Y-122845139D01*
X151417539Y-122858469D01*
X151607745Y-122896015D01*
X151770124Y-122955048D01*
X151919244Y-123040333D01*
X152021310Y-123132543D01*
X152085930Y-123232020D01*
X152124327Y-123347975D01*
X152152448Y-123529020D01*
X152163599Y-123797869D01*
X152163599Y-123935439D01*
G37*
G36*
X154378454Y-123513387D02*
G01*
X154378454Y-126245000D01*
X153524093Y-126245000D01*
X153537282Y-126032691D01*
X153449860Y-126139645D01*
X153335232Y-126222285D01*
X153200777Y-126273920D01*
X153042507Y-126291894D01*
X152864667Y-126274071D01*
X152729998Y-126225582D01*
X152620551Y-126147051D01*
X152546633Y-126049544D01*
X152498576Y-125936902D01*
X152473177Y-125821299D01*
X152458706Y-125352170D01*
X152458706Y-123513387D01*
X153298413Y-123513387D01*
X153298413Y-125369023D01*
X153305099Y-125654853D01*
X153317097Y-125742531D01*
X153349285Y-125783933D01*
X153417481Y-125799501D01*
X153490375Y-125783164D01*
X153522078Y-125740699D01*
X153532762Y-125649366D01*
X153538748Y-125348506D01*
X153538748Y-123513387D01*
X154378454Y-123513387D01*
G37*
G36*
X155517847Y-123513387D02*
G01*
X155504292Y-123745296D01*
X155596262Y-123629604D01*
X155714585Y-123541231D01*
X155853760Y-123485769D01*
X156017751Y-123466493D01*
X156157894Y-123478793D01*
X156273599Y-123513307D01*
X156369644Y-123568159D01*
X156451141Y-123642918D01*
X156509060Y-123727441D01*
X156545682Y-123823515D01*
X156573115Y-124002751D01*
X156585066Y-124334593D01*
X156585066Y-126245000D01*
X155745543Y-126245000D01*
X155745543Y-124356575D01*
X155739356Y-124103327D01*
X155727774Y-124017871D01*
X155696501Y-123974782D01*
X155630504Y-123958886D01*
X155560765Y-123976776D01*
X155524625Y-124027213D01*
X155510462Y-124124055D01*
X155503010Y-124401638D01*
X155503010Y-126245000D01*
X154663486Y-126245000D01*
X154663486Y-123513387D01*
X155517847Y-123513387D01*
G37*
G36*
X157698814Y-123513387D02*
G01*
X157659613Y-123884331D01*
X157743175Y-123732447D01*
X157836939Y-123620085D01*
X157940916Y-123540515D01*
X158056859Y-123489590D01*
X158188093Y-123466127D01*
X158188093Y-124439556D01*
X157973730Y-124457354D01*
X157851588Y-124499823D01*
X157766154Y-124572943D01*
X157722444Y-124667801D01*
X157706290Y-124810453D01*
X157698264Y-125168988D01*
X157698264Y-126245000D01*
X156858741Y-126245000D01*
X156858741Y-123513387D01*
X157698814Y-123513387D01*
G37*
G36*
X159223622Y-122915481D02*
G01*
X159223622Y-123360980D01*
X158359369Y-123360980D01*
X158359369Y-122915481D01*
X159223622Y-122915481D01*
G37*
G36*
X159223622Y-123513387D02*
G01*
X159223622Y-126245000D01*
X158359369Y-126245000D01*
X158359369Y-123513387D01*
X159223622Y-123513387D01*
G37*
G36*
X160392873Y-123149954D02*
G01*
X160392873Y-123583729D01*
X160616356Y-123583729D01*
X160616356Y-124029228D01*
X160392873Y-124029228D01*
X160392873Y-125476001D01*
X160402799Y-125714000D01*
X160418885Y-125770741D01*
X160467201Y-125788910D01*
X160651160Y-125799501D01*
X160651160Y-126245000D01*
X160311174Y-126245000D01*
X160047980Y-126237832D01*
X159905792Y-126221369D01*
X159791187Y-126182318D01*
X159690187Y-126111826D01*
X159613529Y-126018168D01*
X159573866Y-125915272D01*
X159558694Y-125768669D01*
X159551152Y-125399797D01*
X159551152Y-124029228D01*
X159372915Y-124029228D01*
X159372915Y-123583729D01*
X159551152Y-123583729D01*
X159551152Y-123149954D01*
X160392873Y-123149954D01*
G37*
G36*
X163544705Y-122915481D02*
G01*
X163544705Y-126245000D01*
X162670194Y-126245000D01*
X162670194Y-124849884D01*
X162423814Y-124849884D01*
X162423814Y-126245000D01*
X161549302Y-126245000D01*
X161549302Y-122915481D01*
X162423814Y-122915481D01*
X162423814Y-124099570D01*
X162670194Y-124099570D01*
X162670194Y-122915481D01*
X163544705Y-122915481D01*
G37*
G36*
X165037036Y-123486174D02*
G01*
X165243864Y-123538470D01*
X165395028Y-123616153D01*
X165522761Y-123727397D01*
X165606769Y-123848897D01*
X165653132Y-123983433D01*
X165682585Y-124257334D01*
X165696546Y-124875163D01*
X165696546Y-126245000D01*
X164879370Y-126245000D01*
X164879370Y-126017670D01*
X164799842Y-126130997D01*
X164692525Y-126218072D01*
X164562679Y-126272661D01*
X164403646Y-126291894D01*
X164261304Y-126278166D01*
X164127994Y-126237430D01*
X164001195Y-126168796D01*
X163928934Y-126099957D01*
X163872040Y-125995902D01*
X163832870Y-125844975D01*
X163817830Y-125631706D01*
X163817830Y-125472337D01*
X164606246Y-125472337D01*
X164614991Y-125662955D01*
X164632807Y-125740516D01*
X164671024Y-125783954D01*
X164737771Y-125799501D01*
X164801553Y-125786840D01*
X164834308Y-125753888D01*
X164849113Y-125688935D01*
X164856839Y-125505127D01*
X164856839Y-124958878D01*
X164735664Y-125058211D01*
X164668213Y-125134288D01*
X164637570Y-125192801D01*
X164615335Y-125300273D01*
X164606246Y-125472337D01*
X163817830Y-125472337D01*
X163817830Y-125408773D01*
X163831799Y-125204287D01*
X163866761Y-125071727D01*
X163915283Y-124990019D01*
X163990736Y-124925676D01*
X164139066Y-124840887D01*
X164395220Y-124730450D01*
X164753276Y-124574068D01*
X164828995Y-124518142D01*
X164847917Y-124449775D01*
X164856839Y-124295575D01*
X164846801Y-124102153D01*
X164826064Y-124021168D01*
X164785659Y-123974505D01*
X164725314Y-123958886D01*
X164657937Y-123973298D01*
X164625846Y-124010910D01*
X164612966Y-124083902D01*
X164606246Y-124289347D01*
X164606246Y-124580240D01*
X163817830Y-124580240D01*
X163817830Y-124392112D01*
X163827585Y-124180203D01*
X163853439Y-124020676D01*
X163891103Y-123903016D01*
X163952341Y-123797878D01*
X164047878Y-123696688D01*
X164185293Y-123598567D01*
X164338054Y-123528242D01*
X164526388Y-123482889D01*
X164758287Y-123466493D01*
X165037036Y-123486174D01*
G37*
G36*
X167271546Y-123513387D02*
G01*
X167271546Y-124128330D01*
X166663748Y-125682264D01*
X167271546Y-125682264D01*
X167271546Y-126245000D01*
X165847854Y-126245000D01*
X165847854Y-125662663D01*
X166470124Y-124076123D01*
X165911419Y-124076123D01*
X165911419Y-123513387D01*
X167271546Y-123513387D01*
G37*
G36*
X168285276Y-123513387D02*
G01*
X168246075Y-123884331D01*
X168329637Y-123732447D01*
X168423401Y-123620085D01*
X168527378Y-123540515D01*
X168643321Y-123489590D01*
X168774555Y-123466127D01*
X168774555Y-124439556D01*
X168560192Y-124457354D01*
X168438050Y-124499823D01*
X168352616Y-124572943D01*
X168308906Y-124667801D01*
X168292752Y-124810453D01*
X168284726Y-125168988D01*
X168284726Y-126245000D01*
X167445203Y-126245000D01*
X167445203Y-123513387D01*
X168285276Y-123513387D01*
G37*
G36*
X170128034Y-123486174D02*
G01*
X170334862Y-123538470D01*
X170486026Y-123616153D01*
X170613759Y-123727397D01*
X170697767Y-123848897D01*
X170744130Y-123983433D01*
X170773583Y-124257334D01*
X170787544Y-124875163D01*
X170787544Y-126245000D01*
X169970368Y-126245000D01*
X169970368Y-126017670D01*
X169890840Y-126130997D01*
X169783522Y-126218072D01*
X169653677Y-126272661D01*
X169494644Y-126291894D01*
X169352302Y-126278166D01*
X169218992Y-126237430D01*
X169092193Y-126168796D01*
X169019932Y-126099957D01*
X168963037Y-125995902D01*
X168923868Y-125844975D01*
X168908828Y-125631706D01*
X168908828Y-125472337D01*
X169697244Y-125472337D01*
X169705989Y-125662955D01*
X169723805Y-125740516D01*
X169762022Y-125783954D01*
X169828768Y-125799501D01*
X169892551Y-125786840D01*
X169925305Y-125753888D01*
X169940111Y-125688935D01*
X169947837Y-125505127D01*
X169947837Y-124958878D01*
X169826662Y-125058211D01*
X169759211Y-125134288D01*
X169728568Y-125192801D01*
X169706333Y-125300273D01*
X169697244Y-125472337D01*
X168908828Y-125472337D01*
X168908828Y-125408773D01*
X168922797Y-125204287D01*
X168957759Y-125071727D01*
X169006281Y-124990019D01*
X169081734Y-124925676D01*
X169230064Y-124840887D01*
X169486218Y-124730450D01*
X169844274Y-124574068D01*
X169919993Y-124518142D01*
X169938915Y-124449775D01*
X169947837Y-124295575D01*
X169937799Y-124102153D01*
X169917062Y-124021168D01*
X169876657Y-123974505D01*
X169816312Y-123958886D01*
X169748935Y-123973298D01*
X169716844Y-124010910D01*
X169703964Y-124083902D01*
X169697244Y-124289347D01*
X169697244Y-124580240D01*
X168908828Y-124580240D01*
X168908828Y-124392112D01*
X168918583Y-124180203D01*
X168944437Y-124020676D01*
X168982101Y-123903016D01*
X169043338Y-123797878D01*
X169138876Y-123696688D01*
X169276291Y-123598567D01*
X169429052Y-123528242D01*
X169617386Y-123482889D01*
X169849285Y-123466493D01*
X170128034Y-123486174D01*
G37*
D11*
X142421983Y-91771248D02*
X142088650Y-91295057D01*
X141850555Y-91771248D02*
X141850555Y-90771248D01*
X141850555Y-90771248D02*
X142231507Y-90771248D01*
X142231507Y-90771248D02*
X142326745Y-90818867D01*
X142326745Y-90818867D02*
X142374364Y-90866486D01*
X142374364Y-90866486D02*
X142421983Y-90961724D01*
X142421983Y-90961724D02*
X142421983Y-91104581D01*
X142421983Y-91104581D02*
X142374364Y-91199819D01*
X142374364Y-91199819D02*
X142326745Y-91247438D01*
X142326745Y-91247438D02*
X142231507Y-91295057D01*
X142231507Y-91295057D02*
X141850555Y-91295057D01*
X142755317Y-90771248D02*
X143421983Y-90771248D01*
X143421983Y-90771248D02*
X142993412Y-91771248D01*
X91354195Y-96977619D02*
X91306576Y-96930000D01*
X91306576Y-96930000D02*
X91258956Y-96787143D01*
X91258956Y-96787143D02*
X91258956Y-96691905D01*
X91258956Y-96691905D02*
X91306576Y-96549048D01*
X91306576Y-96549048D02*
X91401814Y-96453810D01*
X91401814Y-96453810D02*
X91497052Y-96406191D01*
X91497052Y-96406191D02*
X91687528Y-96358572D01*
X91687528Y-96358572D02*
X91830385Y-96358572D01*
X91830385Y-96358572D02*
X92020861Y-96406191D01*
X92020861Y-96406191D02*
X92116099Y-96453810D01*
X92116099Y-96453810D02*
X92211337Y-96549048D01*
X92211337Y-96549048D02*
X92258956Y-96691905D01*
X92258956Y-96691905D02*
X92258956Y-96787143D01*
X92258956Y-96787143D02*
X92211337Y-96930000D01*
X92211337Y-96930000D02*
X92163718Y-96977619D01*
X91544671Y-97358572D02*
X91544671Y-97834762D01*
X91258956Y-97263334D02*
X92258956Y-97596667D01*
X92258956Y-97596667D02*
X91258956Y-97930000D01*
X92258956Y-98120477D02*
X92258956Y-98691905D01*
X91258956Y-98406191D02*
X92258956Y-98406191D01*
X91258956Y-99025239D02*
X92258956Y-99025239D01*
X91782766Y-99025239D02*
X91782766Y-99596667D01*
X91258956Y-99596667D02*
X92258956Y-99596667D01*
D10*
X123887334Y-90516543D02*
X124554001Y-90516543D01*
X124839715Y-91302257D02*
X123887334Y-91302257D01*
X123887334Y-91302257D02*
X123887334Y-89802257D01*
X123887334Y-89802257D02*
X124839715Y-89802257D01*
X125696858Y-90302257D02*
X125696858Y-91302257D01*
X125696858Y-90445114D02*
X125792096Y-90373686D01*
X125792096Y-90373686D02*
X125982572Y-90302257D01*
X125982572Y-90302257D02*
X126268287Y-90302257D01*
X126268287Y-90302257D02*
X126458763Y-90373686D01*
X126458763Y-90373686D02*
X126554001Y-90516543D01*
X126554001Y-90516543D02*
X126554001Y-91302257D01*
X128363525Y-90302257D02*
X128363525Y-91516543D01*
X128363525Y-91516543D02*
X128268287Y-91659400D01*
X128268287Y-91659400D02*
X128173049Y-91730829D01*
X128173049Y-91730829D02*
X127982572Y-91802257D01*
X127982572Y-91802257D02*
X127696858Y-91802257D01*
X127696858Y-91802257D02*
X127506382Y-91730829D01*
X128363525Y-91230829D02*
X128173049Y-91302257D01*
X128173049Y-91302257D02*
X127792096Y-91302257D01*
X127792096Y-91302257D02*
X127601620Y-91230829D01*
X127601620Y-91230829D02*
X127506382Y-91159400D01*
X127506382Y-91159400D02*
X127411144Y-91016543D01*
X127411144Y-91016543D02*
X127411144Y-90587971D01*
X127411144Y-90587971D02*
X127506382Y-90445114D01*
X127506382Y-90445114D02*
X127601620Y-90373686D01*
X127601620Y-90373686D02*
X127792096Y-90302257D01*
X127792096Y-90302257D02*
X128173049Y-90302257D01*
X128173049Y-90302257D02*
X128363525Y-90373686D01*
X129315906Y-91302257D02*
X129315906Y-90302257D01*
X129315906Y-89802257D02*
X129220668Y-89873686D01*
X129220668Y-89873686D02*
X129315906Y-89945114D01*
X129315906Y-89945114D02*
X129411144Y-89873686D01*
X129411144Y-89873686D02*
X129315906Y-89802257D01*
X129315906Y-89802257D02*
X129315906Y-89945114D01*
X130268287Y-90302257D02*
X130268287Y-91302257D01*
X130268287Y-90445114D02*
X130363525Y-90373686D01*
X130363525Y-90373686D02*
X130554001Y-90302257D01*
X130554001Y-90302257D02*
X130839716Y-90302257D01*
X130839716Y-90302257D02*
X131030192Y-90373686D01*
X131030192Y-90373686D02*
X131125430Y-90516543D01*
X131125430Y-90516543D02*
X131125430Y-91302257D01*
X132839716Y-91230829D02*
X132649240Y-91302257D01*
X132649240Y-91302257D02*
X132268287Y-91302257D01*
X132268287Y-91302257D02*
X132077811Y-91230829D01*
X132077811Y-91230829D02*
X131982573Y-91087971D01*
X131982573Y-91087971D02*
X131982573Y-90516543D01*
X131982573Y-90516543D02*
X132077811Y-90373686D01*
X132077811Y-90373686D02*
X132268287Y-90302257D01*
X132268287Y-90302257D02*
X132649240Y-90302257D01*
X132649240Y-90302257D02*
X132839716Y-90373686D01*
X132839716Y-90373686D02*
X132934954Y-90516543D01*
X132934954Y-90516543D02*
X132934954Y-90659400D01*
X132934954Y-90659400D02*
X131982573Y-90802257D01*
D12*
X96261556Y-96572857D02*
X96261556Y-97144285D01*
X95261556Y-96858571D02*
X96261556Y-96858571D01*
X95356795Y-98049047D02*
X95309176Y-98001428D01*
X95309176Y-98001428D02*
X95261556Y-97858571D01*
X95261556Y-97858571D02*
X95261556Y-97763333D01*
X95261556Y-97763333D02*
X95309176Y-97620476D01*
X95309176Y-97620476D02*
X95404414Y-97525238D01*
X95404414Y-97525238D02*
X95499652Y-97477619D01*
X95499652Y-97477619D02*
X95690128Y-97430000D01*
X95690128Y-97430000D02*
X95832985Y-97430000D01*
X95832985Y-97430000D02*
X96023461Y-97477619D01*
X96023461Y-97477619D02*
X96118699Y-97525238D01*
X96118699Y-97525238D02*
X96213937Y-97620476D01*
X96213937Y-97620476D02*
X96261556Y-97763333D01*
X96261556Y-97763333D02*
X96261556Y-97858571D01*
X96261556Y-97858571D02*
X96213937Y-98001428D01*
X96213937Y-98001428D02*
X96166318Y-98049047D01*
X95261556Y-99049047D02*
X95737747Y-98715714D01*
X95261556Y-98477619D02*
X96261556Y-98477619D01*
X96261556Y-98477619D02*
X96261556Y-98858571D01*
X96261556Y-98858571D02*
X96213937Y-98953809D01*
X96213937Y-98953809D02*
X96166318Y-99001428D01*
X96166318Y-99001428D02*
X96071080Y-99049047D01*
X96071080Y-99049047D02*
X95928223Y-99049047D01*
X95928223Y-99049047D02*
X95832985Y-99001428D01*
X95832985Y-99001428D02*
X95785366Y-98953809D01*
X95785366Y-98953809D02*
X95737747Y-98858571D01*
X95737747Y-98858571D02*
X95737747Y-98477619D01*
X96261556Y-99334762D02*
X96261556Y-99906190D01*
X95261556Y-99620476D02*
X96261556Y-99620476D01*
X96261556Y-100715714D02*
X96261556Y-100239524D01*
X96261556Y-100239524D02*
X95785366Y-100191905D01*
X95785366Y-100191905D02*
X95832985Y-100239524D01*
X95832985Y-100239524D02*
X95880604Y-100334762D01*
X95880604Y-100334762D02*
X95880604Y-100572857D01*
X95880604Y-100572857D02*
X95832985Y-100668095D01*
X95832985Y-100668095D02*
X95785366Y-100715714D01*
X95785366Y-100715714D02*
X95690128Y-100763333D01*
X95690128Y-100763333D02*
X95452033Y-100763333D01*
X95452033Y-100763333D02*
X95356795Y-100715714D01*
X95356795Y-100715714D02*
X95309176Y-100668095D01*
X95309176Y-100668095D02*
X95261556Y-100572857D01*
X95261556Y-100572857D02*
X95261556Y-100334762D01*
X95261556Y-100334762D02*
X95309176Y-100239524D01*
X95309176Y-100239524D02*
X95356795Y-100191905D01*
X96261556Y-101382381D02*
X96261556Y-101477619D01*
X96261556Y-101477619D02*
X96213937Y-101572857D01*
X96213937Y-101572857D02*
X96166318Y-101620476D01*
X96166318Y-101620476D02*
X96071080Y-101668095D01*
X96071080Y-101668095D02*
X95880604Y-101715714D01*
X95880604Y-101715714D02*
X95642509Y-101715714D01*
X95642509Y-101715714D02*
X95452033Y-101668095D01*
X95452033Y-101668095D02*
X95356795Y-101620476D01*
X95356795Y-101620476D02*
X95309176Y-101572857D01*
X95309176Y-101572857D02*
X95261556Y-101477619D01*
X95261556Y-101477619D02*
X95261556Y-101382381D01*
X95261556Y-101382381D02*
X95309176Y-101287143D01*
X95309176Y-101287143D02*
X95356795Y-101239524D01*
X95356795Y-101239524D02*
X95452033Y-101191905D01*
X95452033Y-101191905D02*
X95642509Y-101144286D01*
X95642509Y-101144286D02*
X95880604Y-101144286D01*
X95880604Y-101144286D02*
X96071080Y-101191905D01*
X96071080Y-101191905D02*
X96166318Y-101239524D01*
X96166318Y-101239524D02*
X96213937Y-101287143D01*
X96213937Y-101287143D02*
X96261556Y-101382381D01*
X96261556Y-102334762D02*
X96261556Y-102430000D01*
X96261556Y-102430000D02*
X96213937Y-102525238D01*
X96213937Y-102525238D02*
X96166318Y-102572857D01*
X96166318Y-102572857D02*
X96071080Y-102620476D01*
X96071080Y-102620476D02*
X95880604Y-102668095D01*
X95880604Y-102668095D02*
X95642509Y-102668095D01*
X95642509Y-102668095D02*
X95452033Y-102620476D01*
X95452033Y-102620476D02*
X95356795Y-102572857D01*
X95356795Y-102572857D02*
X95309176Y-102525238D01*
X95309176Y-102525238D02*
X95261556Y-102430000D01*
X95261556Y-102430000D02*
X95261556Y-102334762D01*
X95261556Y-102334762D02*
X95309176Y-102239524D01*
X95309176Y-102239524D02*
X95356795Y-102191905D01*
X95356795Y-102191905D02*
X95452033Y-102144286D01*
X95452033Y-102144286D02*
X95642509Y-102096667D01*
X95642509Y-102096667D02*
X95880604Y-102096667D01*
X95880604Y-102096667D02*
X96071080Y-102144286D01*
X96071080Y-102144286D02*
X96166318Y-102191905D01*
X96166318Y-102191905D02*
X96213937Y-102239524D01*
X96213937Y-102239524D02*
X96261556Y-102334762D01*
X96261556Y-103287143D02*
X96261556Y-103382381D01*
X96261556Y-103382381D02*
X96213937Y-103477619D01*
X96213937Y-103477619D02*
X96166318Y-103525238D01*
X96166318Y-103525238D02*
X96071080Y-103572857D01*
X96071080Y-103572857D02*
X95880604Y-103620476D01*
X95880604Y-103620476D02*
X95642509Y-103620476D01*
X95642509Y-103620476D02*
X95452033Y-103572857D01*
X95452033Y-103572857D02*
X95356795Y-103525238D01*
X95356795Y-103525238D02*
X95309176Y-103477619D01*
X95309176Y-103477619D02*
X95261556Y-103382381D01*
X95261556Y-103382381D02*
X95261556Y-103287143D01*
X95261556Y-103287143D02*
X95309176Y-103191905D01*
X95309176Y-103191905D02*
X95356795Y-103144286D01*
X95356795Y-103144286D02*
X95452033Y-103096667D01*
X95452033Y-103096667D02*
X95642509Y-103049048D01*
X95642509Y-103049048D02*
X95880604Y-103049048D01*
X95880604Y-103049048D02*
X96071080Y-103096667D01*
X96071080Y-103096667D02*
X96166318Y-103144286D01*
X96166318Y-103144286D02*
X96213937Y-103191905D01*
X96213937Y-103191905D02*
X96261556Y-103287143D01*
X95261556Y-105334762D02*
X95261556Y-104763334D01*
X95261556Y-105049048D02*
X96261556Y-105049048D01*
X96261556Y-105049048D02*
X96118699Y-104953810D01*
X96118699Y-104953810D02*
X96023461Y-104858572D01*
X96023461Y-104858572D02*
X95975842Y-104763334D01*
X189165995Y-105930000D02*
X189165995Y-105358572D01*
X190165995Y-105644286D02*
X189165995Y-105644286D01*
X190070756Y-104453810D02*
X190118376Y-104501429D01*
X190118376Y-104501429D02*
X190165995Y-104644286D01*
X190165995Y-104644286D02*
X190165995Y-104739524D01*
X190165995Y-104739524D02*
X190118376Y-104882381D01*
X190118376Y-104882381D02*
X190023137Y-104977619D01*
X190023137Y-104977619D02*
X189927899Y-105025238D01*
X189927899Y-105025238D02*
X189737423Y-105072857D01*
X189737423Y-105072857D02*
X189594566Y-105072857D01*
X189594566Y-105072857D02*
X189404090Y-105025238D01*
X189404090Y-105025238D02*
X189308852Y-104977619D01*
X189308852Y-104977619D02*
X189213614Y-104882381D01*
X189213614Y-104882381D02*
X189165995Y-104739524D01*
X189165995Y-104739524D02*
X189165995Y-104644286D01*
X189165995Y-104644286D02*
X189213614Y-104501429D01*
X189213614Y-104501429D02*
X189261233Y-104453810D01*
X190165995Y-103453810D02*
X189689804Y-103787143D01*
X190165995Y-104025238D02*
X189165995Y-104025238D01*
X189165995Y-104025238D02*
X189165995Y-103644286D01*
X189165995Y-103644286D02*
X189213614Y-103549048D01*
X189213614Y-103549048D02*
X189261233Y-103501429D01*
X189261233Y-103501429D02*
X189356471Y-103453810D01*
X189356471Y-103453810D02*
X189499328Y-103453810D01*
X189499328Y-103453810D02*
X189594566Y-103501429D01*
X189594566Y-103501429D02*
X189642185Y-103549048D01*
X189642185Y-103549048D02*
X189689804Y-103644286D01*
X189689804Y-103644286D02*
X189689804Y-104025238D01*
X189165995Y-103168095D02*
X189165995Y-102596667D01*
X190165995Y-102882381D02*
X189165995Y-102882381D01*
X189165995Y-101787143D02*
X189165995Y-102263333D01*
X189165995Y-102263333D02*
X189642185Y-102310952D01*
X189642185Y-102310952D02*
X189594566Y-102263333D01*
X189594566Y-102263333D02*
X189546947Y-102168095D01*
X189546947Y-102168095D02*
X189546947Y-101930000D01*
X189546947Y-101930000D02*
X189594566Y-101834762D01*
X189594566Y-101834762D02*
X189642185Y-101787143D01*
X189642185Y-101787143D02*
X189737423Y-101739524D01*
X189737423Y-101739524D02*
X189975518Y-101739524D01*
X189975518Y-101739524D02*
X190070756Y-101787143D01*
X190070756Y-101787143D02*
X190118376Y-101834762D01*
X190118376Y-101834762D02*
X190165995Y-101930000D01*
X190165995Y-101930000D02*
X190165995Y-102168095D01*
X190165995Y-102168095D02*
X190118376Y-102263333D01*
X190118376Y-102263333D02*
X190070756Y-102310952D01*
X189165995Y-101120476D02*
X189165995Y-101025238D01*
X189165995Y-101025238D02*
X189213614Y-100930000D01*
X189213614Y-100930000D02*
X189261233Y-100882381D01*
X189261233Y-100882381D02*
X189356471Y-100834762D01*
X189356471Y-100834762D02*
X189546947Y-100787143D01*
X189546947Y-100787143D02*
X189785042Y-100787143D01*
X189785042Y-100787143D02*
X189975518Y-100834762D01*
X189975518Y-100834762D02*
X190070756Y-100882381D01*
X190070756Y-100882381D02*
X190118376Y-100930000D01*
X190118376Y-100930000D02*
X190165995Y-101025238D01*
X190165995Y-101025238D02*
X190165995Y-101120476D01*
X190165995Y-101120476D02*
X190118376Y-101215714D01*
X190118376Y-101215714D02*
X190070756Y-101263333D01*
X190070756Y-101263333D02*
X189975518Y-101310952D01*
X189975518Y-101310952D02*
X189785042Y-101358571D01*
X189785042Y-101358571D02*
X189546947Y-101358571D01*
X189546947Y-101358571D02*
X189356471Y-101310952D01*
X189356471Y-101310952D02*
X189261233Y-101263333D01*
X189261233Y-101263333D02*
X189213614Y-101215714D01*
X189213614Y-101215714D02*
X189165995Y-101120476D01*
X189165995Y-100168095D02*
X189165995Y-100072857D01*
X189165995Y-100072857D02*
X189213614Y-99977619D01*
X189213614Y-99977619D02*
X189261233Y-99930000D01*
X189261233Y-99930000D02*
X189356471Y-99882381D01*
X189356471Y-99882381D02*
X189546947Y-99834762D01*
X189546947Y-99834762D02*
X189785042Y-99834762D01*
X189785042Y-99834762D02*
X189975518Y-99882381D01*
X189975518Y-99882381D02*
X190070756Y-99930000D01*
X190070756Y-99930000D02*
X190118376Y-99977619D01*
X190118376Y-99977619D02*
X190165995Y-100072857D01*
X190165995Y-100072857D02*
X190165995Y-100168095D01*
X190165995Y-100168095D02*
X190118376Y-100263333D01*
X190118376Y-100263333D02*
X190070756Y-100310952D01*
X190070756Y-100310952D02*
X189975518Y-100358571D01*
X189975518Y-100358571D02*
X189785042Y-100406190D01*
X189785042Y-100406190D02*
X189546947Y-100406190D01*
X189546947Y-100406190D02*
X189356471Y-100358571D01*
X189356471Y-100358571D02*
X189261233Y-100310952D01*
X189261233Y-100310952D02*
X189213614Y-100263333D01*
X189213614Y-100263333D02*
X189165995Y-100168095D01*
X189165995Y-99215714D02*
X189165995Y-99120476D01*
X189165995Y-99120476D02*
X189213614Y-99025238D01*
X189213614Y-99025238D02*
X189261233Y-98977619D01*
X189261233Y-98977619D02*
X189356471Y-98930000D01*
X189356471Y-98930000D02*
X189546947Y-98882381D01*
X189546947Y-98882381D02*
X189785042Y-98882381D01*
X189785042Y-98882381D02*
X189975518Y-98930000D01*
X189975518Y-98930000D02*
X190070756Y-98977619D01*
X190070756Y-98977619D02*
X190118376Y-99025238D01*
X190118376Y-99025238D02*
X190165995Y-99120476D01*
X190165995Y-99120476D02*
X190165995Y-99215714D01*
X190165995Y-99215714D02*
X190118376Y-99310952D01*
X190118376Y-99310952D02*
X190070756Y-99358571D01*
X190070756Y-99358571D02*
X189975518Y-99406190D01*
X189975518Y-99406190D02*
X189785042Y-99453809D01*
X189785042Y-99453809D02*
X189546947Y-99453809D01*
X189546947Y-99453809D02*
X189356471Y-99406190D01*
X189356471Y-99406190D02*
X189261233Y-99358571D01*
X189261233Y-99358571D02*
X189213614Y-99310952D01*
X189213614Y-99310952D02*
X189165995Y-99215714D01*
X189261233Y-97739523D02*
X189213614Y-97691904D01*
X189213614Y-97691904D02*
X189165995Y-97596666D01*
X189165995Y-97596666D02*
X189165995Y-97358571D01*
X189165995Y-97358571D02*
X189213614Y-97263333D01*
X189213614Y-97263333D02*
X189261233Y-97215714D01*
X189261233Y-97215714D02*
X189356471Y-97168095D01*
X189356471Y-97168095D02*
X189451709Y-97168095D01*
X189451709Y-97168095D02*
X189594566Y-97215714D01*
X189594566Y-97215714D02*
X190165995Y-97787142D01*
X190165995Y-97787142D02*
X190165995Y-97168095D01*
D11*
X91782766Y-108787143D02*
X91782766Y-109120476D01*
X91258956Y-109263333D02*
X91258956Y-108787143D01*
X91258956Y-108787143D02*
X92258956Y-108787143D01*
X92258956Y-108787143D02*
X92258956Y-109263333D01*
X193573356Y-105025238D02*
X193620976Y-105072857D01*
X193620976Y-105072857D02*
X193668595Y-105215714D01*
X193668595Y-105215714D02*
X193668595Y-105310952D01*
X193668595Y-105310952D02*
X193620976Y-105453809D01*
X193620976Y-105453809D02*
X193525737Y-105549047D01*
X193525737Y-105549047D02*
X193430499Y-105596666D01*
X193430499Y-105596666D02*
X193240023Y-105644285D01*
X193240023Y-105644285D02*
X193097166Y-105644285D01*
X193097166Y-105644285D02*
X192906690Y-105596666D01*
X192906690Y-105596666D02*
X192811452Y-105549047D01*
X192811452Y-105549047D02*
X192716214Y-105453809D01*
X192716214Y-105453809D02*
X192668595Y-105310952D01*
X192668595Y-105310952D02*
X192668595Y-105215714D01*
X192668595Y-105215714D02*
X192716214Y-105072857D01*
X192716214Y-105072857D02*
X192763833Y-105025238D01*
X193382880Y-104644285D02*
X193382880Y-104168095D01*
X193668595Y-104739523D02*
X192668595Y-104406190D01*
X192668595Y-104406190D02*
X193668595Y-104072857D01*
X192668595Y-103882380D02*
X192668595Y-103310952D01*
X193668595Y-103596666D02*
X192668595Y-103596666D01*
X193668595Y-102977618D02*
X192668595Y-102977618D01*
X193144785Y-102977618D02*
X193144785Y-102406190D01*
X193668595Y-102406190D02*
X192668595Y-102406190D01*
D10*
X151320919Y-90802257D02*
X151320919Y-89302257D01*
X151320919Y-89302257D02*
X151820919Y-90373686D01*
X151820919Y-90373686D02*
X152320919Y-89302257D01*
X152320919Y-89302257D02*
X152320919Y-90802257D01*
X153678063Y-90802257D02*
X153678063Y-90016543D01*
X153678063Y-90016543D02*
X153606634Y-89873686D01*
X153606634Y-89873686D02*
X153463777Y-89802257D01*
X153463777Y-89802257D02*
X153178063Y-89802257D01*
X153178063Y-89802257D02*
X153035205Y-89873686D01*
X153678063Y-90730829D02*
X153535205Y-90802257D01*
X153535205Y-90802257D02*
X153178063Y-90802257D01*
X153178063Y-90802257D02*
X153035205Y-90730829D01*
X153035205Y-90730829D02*
X152963777Y-90587971D01*
X152963777Y-90587971D02*
X152963777Y-90445114D01*
X152963777Y-90445114D02*
X153035205Y-90302257D01*
X153035205Y-90302257D02*
X153178063Y-90230829D01*
X153178063Y-90230829D02*
X153535205Y-90230829D01*
X153535205Y-90230829D02*
X153678063Y-90159400D01*
X154392348Y-90802257D02*
X154392348Y-89802257D01*
X154392348Y-90087971D02*
X154463777Y-89945114D01*
X154463777Y-89945114D02*
X154535206Y-89873686D01*
X154535206Y-89873686D02*
X154678063Y-89802257D01*
X154678063Y-89802257D02*
X154820920Y-89802257D01*
X155963777Y-90730829D02*
X155820919Y-90802257D01*
X155820919Y-90802257D02*
X155535205Y-90802257D01*
X155535205Y-90802257D02*
X155392348Y-90730829D01*
X155392348Y-90730829D02*
X155320919Y-90659400D01*
X155320919Y-90659400D02*
X155249491Y-90516543D01*
X155249491Y-90516543D02*
X155249491Y-90087971D01*
X155249491Y-90087971D02*
X155320919Y-89945114D01*
X155320919Y-89945114D02*
X155392348Y-89873686D01*
X155392348Y-89873686D02*
X155535205Y-89802257D01*
X155535205Y-89802257D02*
X155820919Y-89802257D01*
X155820919Y-89802257D02*
X155963777Y-89873686D01*
X156606633Y-90802257D02*
X156606633Y-89302257D01*
X157249491Y-90802257D02*
X157249491Y-90016543D01*
X157249491Y-90016543D02*
X157178062Y-89873686D01*
X157178062Y-89873686D02*
X157035205Y-89802257D01*
X157035205Y-89802257D02*
X156820919Y-89802257D01*
X156820919Y-89802257D02*
X156678062Y-89873686D01*
X156678062Y-89873686D02*
X156606633Y-89945114D01*
X159035205Y-89445114D02*
X159106633Y-89373686D01*
X159106633Y-89373686D02*
X159249491Y-89302257D01*
X159249491Y-89302257D02*
X159606633Y-89302257D01*
X159606633Y-89302257D02*
X159749491Y-89373686D01*
X159749491Y-89373686D02*
X159820919Y-89445114D01*
X159820919Y-89445114D02*
X159892348Y-89587971D01*
X159892348Y-89587971D02*
X159892348Y-89730829D01*
X159892348Y-89730829D02*
X159820919Y-89945114D01*
X159820919Y-89945114D02*
X158963776Y-90802257D01*
X158963776Y-90802257D02*
X159892348Y-90802257D01*
X160820919Y-89302257D02*
X160963776Y-89302257D01*
X160963776Y-89302257D02*
X161106633Y-89373686D01*
X161106633Y-89373686D02*
X161178062Y-89445114D01*
X161178062Y-89445114D02*
X161249490Y-89587971D01*
X161249490Y-89587971D02*
X161320919Y-89873686D01*
X161320919Y-89873686D02*
X161320919Y-90230829D01*
X161320919Y-90230829D02*
X161249490Y-90516543D01*
X161249490Y-90516543D02*
X161178062Y-90659400D01*
X161178062Y-90659400D02*
X161106633Y-90730829D01*
X161106633Y-90730829D02*
X160963776Y-90802257D01*
X160963776Y-90802257D02*
X160820919Y-90802257D01*
X160820919Y-90802257D02*
X160678062Y-90730829D01*
X160678062Y-90730829D02*
X160606633Y-90659400D01*
X160606633Y-90659400D02*
X160535204Y-90516543D01*
X160535204Y-90516543D02*
X160463776Y-90230829D01*
X160463776Y-90230829D02*
X160463776Y-89873686D01*
X160463776Y-89873686D02*
X160535204Y-89587971D01*
X160535204Y-89587971D02*
X160606633Y-89445114D01*
X160606633Y-89445114D02*
X160678062Y-89373686D01*
X160678062Y-89373686D02*
X160820919Y-89302257D01*
X161892347Y-89445114D02*
X161963775Y-89373686D01*
X161963775Y-89373686D02*
X162106633Y-89302257D01*
X162106633Y-89302257D02*
X162463775Y-89302257D01*
X162463775Y-89302257D02*
X162606633Y-89373686D01*
X162606633Y-89373686D02*
X162678061Y-89445114D01*
X162678061Y-89445114D02*
X162749490Y-89587971D01*
X162749490Y-89587971D02*
X162749490Y-89730829D01*
X162749490Y-89730829D02*
X162678061Y-89945114D01*
X162678061Y-89945114D02*
X161820918Y-90802257D01*
X161820918Y-90802257D02*
X162749490Y-90802257D01*
X164035204Y-89302257D02*
X163749489Y-89302257D01*
X163749489Y-89302257D02*
X163606632Y-89373686D01*
X163606632Y-89373686D02*
X163535204Y-89445114D01*
X163535204Y-89445114D02*
X163392346Y-89659400D01*
X163392346Y-89659400D02*
X163320918Y-89945114D01*
X163320918Y-89945114D02*
X163320918Y-90516543D01*
X163320918Y-90516543D02*
X163392346Y-90659400D01*
X163392346Y-90659400D02*
X163463775Y-90730829D01*
X163463775Y-90730829D02*
X163606632Y-90802257D01*
X163606632Y-90802257D02*
X163892346Y-90802257D01*
X163892346Y-90802257D02*
X164035204Y-90730829D01*
X164035204Y-90730829D02*
X164106632Y-90659400D01*
X164106632Y-90659400D02*
X164178061Y-90516543D01*
X164178061Y-90516543D02*
X164178061Y-90159400D01*
X164178061Y-90159400D02*
X164106632Y-90016543D01*
X164106632Y-90016543D02*
X164035204Y-89945114D01*
X164035204Y-89945114D02*
X163892346Y-89873686D01*
X163892346Y-89873686D02*
X163606632Y-89873686D01*
X163606632Y-89873686D02*
X163463775Y-89945114D01*
X163463775Y-89945114D02*
X163392346Y-90016543D01*
X163392346Y-90016543D02*
X163320918Y-90159400D01*
D11*
X91544671Y-92763334D02*
X91544671Y-93239524D01*
X91258956Y-92668096D02*
X92258956Y-93001429D01*
X92258956Y-93001429D02*
X91258956Y-93334762D01*
X193382880Y-109239523D02*
X193382880Y-108763333D01*
X193668595Y-109334761D02*
X192668595Y-109001428D01*
X192668595Y-109001428D02*
X193668595Y-108668095D01*
X193573356Y-99025238D02*
X193620976Y-99072857D01*
X193620976Y-99072857D02*
X193668595Y-99215714D01*
X193668595Y-99215714D02*
X193668595Y-99310952D01*
X193668595Y-99310952D02*
X193620976Y-99453809D01*
X193620976Y-99453809D02*
X193525737Y-99549047D01*
X193525737Y-99549047D02*
X193430499Y-99596666D01*
X193430499Y-99596666D02*
X193240023Y-99644285D01*
X193240023Y-99644285D02*
X193097166Y-99644285D01*
X193097166Y-99644285D02*
X192906690Y-99596666D01*
X192906690Y-99596666D02*
X192811452Y-99549047D01*
X192811452Y-99549047D02*
X192716214Y-99453809D01*
X192716214Y-99453809D02*
X192668595Y-99310952D01*
X192668595Y-99310952D02*
X192668595Y-99215714D01*
X192668595Y-99215714D02*
X192716214Y-99072857D01*
X192716214Y-99072857D02*
X192763833Y-99025238D01*
X192668595Y-98406190D02*
X192668595Y-98215714D01*
X192668595Y-98215714D02*
X192716214Y-98120476D01*
X192716214Y-98120476D02*
X192811452Y-98025238D01*
X192811452Y-98025238D02*
X193001928Y-97977619D01*
X193001928Y-97977619D02*
X193335261Y-97977619D01*
X193335261Y-97977619D02*
X193525737Y-98025238D01*
X193525737Y-98025238D02*
X193620976Y-98120476D01*
X193620976Y-98120476D02*
X193668595Y-98215714D01*
X193668595Y-98215714D02*
X193668595Y-98406190D01*
X193668595Y-98406190D02*
X193620976Y-98501428D01*
X193620976Y-98501428D02*
X193525737Y-98596666D01*
X193525737Y-98596666D02*
X193335261Y-98644285D01*
X193335261Y-98644285D02*
X193001928Y-98644285D01*
X193001928Y-98644285D02*
X192811452Y-98596666D01*
X192811452Y-98596666D02*
X192716214Y-98501428D01*
X192716214Y-98501428D02*
X192668595Y-98406190D01*
X193668595Y-97072857D02*
X193668595Y-97549047D01*
X193668595Y-97549047D02*
X192668595Y-97549047D01*
X193668595Y-96263333D02*
X193668595Y-96739523D01*
X193668595Y-96739523D02*
X192668595Y-96739523D01*
X91354195Y-102977619D02*
X91306576Y-102930000D01*
X91306576Y-102930000D02*
X91258956Y-102787143D01*
X91258956Y-102787143D02*
X91258956Y-102691905D01*
X91258956Y-102691905D02*
X91306576Y-102549048D01*
X91306576Y-102549048D02*
X91401814Y-102453810D01*
X91401814Y-102453810D02*
X91497052Y-102406191D01*
X91497052Y-102406191D02*
X91687528Y-102358572D01*
X91687528Y-102358572D02*
X91830385Y-102358572D01*
X91830385Y-102358572D02*
X92020861Y-102406191D01*
X92020861Y-102406191D02*
X92116099Y-102453810D01*
X92116099Y-102453810D02*
X92211337Y-102549048D01*
X92211337Y-102549048D02*
X92258956Y-102691905D01*
X92258956Y-102691905D02*
X92258956Y-102787143D01*
X92258956Y-102787143D02*
X92211337Y-102930000D01*
X92211337Y-102930000D02*
X92163718Y-102977619D01*
X92258956Y-103596667D02*
X92258956Y-103787143D01*
X92258956Y-103787143D02*
X92211337Y-103882381D01*
X92211337Y-103882381D02*
X92116099Y-103977619D01*
X92116099Y-103977619D02*
X91925623Y-104025238D01*
X91925623Y-104025238D02*
X91592290Y-104025238D01*
X91592290Y-104025238D02*
X91401814Y-103977619D01*
X91401814Y-103977619D02*
X91306576Y-103882381D01*
X91306576Y-103882381D02*
X91258956Y-103787143D01*
X91258956Y-103787143D02*
X91258956Y-103596667D01*
X91258956Y-103596667D02*
X91306576Y-103501429D01*
X91306576Y-103501429D02*
X91401814Y-103406191D01*
X91401814Y-103406191D02*
X91592290Y-103358572D01*
X91592290Y-103358572D02*
X91925623Y-103358572D01*
X91925623Y-103358572D02*
X92116099Y-103406191D01*
X92116099Y-103406191D02*
X92211337Y-103501429D01*
X92211337Y-103501429D02*
X92258956Y-103596667D01*
X91258956Y-104930000D02*
X91258956Y-104453810D01*
X91258956Y-104453810D02*
X92258956Y-104453810D01*
X91258956Y-105739524D02*
X91258956Y-105263334D01*
X91258956Y-105263334D02*
X92258956Y-105263334D01*
X193144785Y-93215714D02*
X193144785Y-92882381D01*
X193668595Y-92739524D02*
X193668595Y-93215714D01*
X193668595Y-93215714D02*
X192668595Y-93215714D01*
X192668595Y-93215714D02*
X192668595Y-92739524D01*
D10*
X123696858Y-89230829D02*
X123911144Y-89302257D01*
X123911144Y-89302257D02*
X124268286Y-89302257D01*
X124268286Y-89302257D02*
X124411144Y-89230829D01*
X124411144Y-89230829D02*
X124482572Y-89159400D01*
X124482572Y-89159400D02*
X124554001Y-89016543D01*
X124554001Y-89016543D02*
X124554001Y-88873686D01*
X124554001Y-88873686D02*
X124482572Y-88730829D01*
X124482572Y-88730829D02*
X124411144Y-88659400D01*
X124411144Y-88659400D02*
X124268286Y-88587971D01*
X124268286Y-88587971D02*
X123982572Y-88516543D01*
X123982572Y-88516543D02*
X123839715Y-88445114D01*
X123839715Y-88445114D02*
X123768286Y-88373686D01*
X123768286Y-88373686D02*
X123696858Y-88230829D01*
X123696858Y-88230829D02*
X123696858Y-88087971D01*
X123696858Y-88087971D02*
X123768286Y-87945114D01*
X123768286Y-87945114D02*
X123839715Y-87873686D01*
X123839715Y-87873686D02*
X123982572Y-87802257D01*
X123982572Y-87802257D02*
X124339715Y-87802257D01*
X124339715Y-87802257D02*
X124554001Y-87873686D01*
X125411143Y-89302257D02*
X125268286Y-89230829D01*
X125268286Y-89230829D02*
X125196857Y-89159400D01*
X125196857Y-89159400D02*
X125125429Y-89016543D01*
X125125429Y-89016543D02*
X125125429Y-88587971D01*
X125125429Y-88587971D02*
X125196857Y-88445114D01*
X125196857Y-88445114D02*
X125268286Y-88373686D01*
X125268286Y-88373686D02*
X125411143Y-88302257D01*
X125411143Y-88302257D02*
X125625429Y-88302257D01*
X125625429Y-88302257D02*
X125768286Y-88373686D01*
X125768286Y-88373686D02*
X125839715Y-88445114D01*
X125839715Y-88445114D02*
X125911143Y-88587971D01*
X125911143Y-88587971D02*
X125911143Y-89016543D01*
X125911143Y-89016543D02*
X125839715Y-89159400D01*
X125839715Y-89159400D02*
X125768286Y-89230829D01*
X125768286Y-89230829D02*
X125625429Y-89302257D01*
X125625429Y-89302257D02*
X125411143Y-89302257D01*
X126768286Y-89302257D02*
X126625429Y-89230829D01*
X126625429Y-89230829D02*
X126554000Y-89087971D01*
X126554000Y-89087971D02*
X126554000Y-87802257D01*
X127911143Y-89230829D02*
X127768286Y-89302257D01*
X127768286Y-89302257D02*
X127482572Y-89302257D01*
X127482572Y-89302257D02*
X127339714Y-89230829D01*
X127339714Y-89230829D02*
X127268286Y-89087971D01*
X127268286Y-89087971D02*
X127268286Y-88516543D01*
X127268286Y-88516543D02*
X127339714Y-88373686D01*
X127339714Y-88373686D02*
X127482572Y-88302257D01*
X127482572Y-88302257D02*
X127768286Y-88302257D01*
X127768286Y-88302257D02*
X127911143Y-88373686D01*
X127911143Y-88373686D02*
X127982572Y-88516543D01*
X127982572Y-88516543D02*
X127982572Y-88659400D01*
X127982572Y-88659400D02*
X127268286Y-88802257D01*
X128625428Y-88302257D02*
X128625428Y-89302257D01*
X128625428Y-88445114D02*
X128696857Y-88373686D01*
X128696857Y-88373686D02*
X128839714Y-88302257D01*
X128839714Y-88302257D02*
X129054000Y-88302257D01*
X129054000Y-88302257D02*
X129196857Y-88373686D01*
X129196857Y-88373686D02*
X129268286Y-88516543D01*
X129268286Y-88516543D02*
X129268286Y-89302257D01*
X130196857Y-89302257D02*
X130054000Y-89230829D01*
X130054000Y-89230829D02*
X129982571Y-89159400D01*
X129982571Y-89159400D02*
X129911143Y-89016543D01*
X129911143Y-89016543D02*
X129911143Y-88587971D01*
X129911143Y-88587971D02*
X129982571Y-88445114D01*
X129982571Y-88445114D02*
X130054000Y-88373686D01*
X130054000Y-88373686D02*
X130196857Y-88302257D01*
X130196857Y-88302257D02*
X130411143Y-88302257D01*
X130411143Y-88302257D02*
X130554000Y-88373686D01*
X130554000Y-88373686D02*
X130625429Y-88445114D01*
X130625429Y-88445114D02*
X130696857Y-88587971D01*
X130696857Y-88587971D02*
X130696857Y-89016543D01*
X130696857Y-89016543D02*
X130625429Y-89159400D01*
X130625429Y-89159400D02*
X130554000Y-89230829D01*
X130554000Y-89230829D02*
X130411143Y-89302257D01*
X130411143Y-89302257D02*
X130196857Y-89302257D01*
X131339714Y-89302257D02*
X131339714Y-88302257D01*
X131339714Y-87802257D02*
X131268286Y-87873686D01*
X131268286Y-87873686D02*
X131339714Y-87945114D01*
X131339714Y-87945114D02*
X131411143Y-87873686D01*
X131411143Y-87873686D02*
X131339714Y-87802257D01*
X131339714Y-87802257D02*
X131339714Y-87945114D01*
X132696858Y-89302257D02*
X132696858Y-87802257D01*
X132696858Y-89230829D02*
X132554000Y-89302257D01*
X132554000Y-89302257D02*
X132268286Y-89302257D01*
X132268286Y-89302257D02*
X132125429Y-89230829D01*
X132125429Y-89230829D02*
X132054000Y-89159400D01*
X132054000Y-89159400D02*
X131982572Y-89016543D01*
X131982572Y-89016543D02*
X131982572Y-88587971D01*
X131982572Y-88587971D02*
X132054000Y-88445114D01*
X132054000Y-88445114D02*
X132125429Y-88373686D01*
X132125429Y-88373686D02*
X132268286Y-88302257D01*
X132268286Y-88302257D02*
X132554000Y-88302257D01*
X132554000Y-88302257D02*
X132696858Y-88373686D01*
D11*
X87880442Y-112456248D02*
X87880442Y-113170533D01*
X87880442Y-113170533D02*
X87832823Y-113313390D01*
X87832823Y-113313390D02*
X87737585Y-113408629D01*
X87737585Y-113408629D02*
X87594728Y-113456248D01*
X87594728Y-113456248D02*
X87499490Y-113456248D01*
X88309014Y-112551486D02*
X88356633Y-112503867D01*
X88356633Y-112503867D02*
X88451871Y-112456248D01*
X88451871Y-112456248D02*
X88689966Y-112456248D01*
X88689966Y-112456248D02*
X88785204Y-112503867D01*
X88785204Y-112503867D02*
X88832823Y-112551486D01*
X88832823Y-112551486D02*
X88880442Y-112646724D01*
X88880442Y-112646724D02*
X88880442Y-112741962D01*
X88880442Y-112741962D02*
X88832823Y-112884819D01*
X88832823Y-112884819D02*
X88261395Y-113456248D01*
X88261395Y-113456248D02*
X88880442Y-113456248D01*
X87880442Y-88956248D02*
X87880442Y-89670533D01*
X87880442Y-89670533D02*
X87832823Y-89813390D01*
X87832823Y-89813390D02*
X87737585Y-89908629D01*
X87737585Y-89908629D02*
X87594728Y-89956248D01*
X87594728Y-89956248D02*
X87499490Y-89956248D01*
X88880442Y-89956248D02*
X88309014Y-89956248D01*
X88594728Y-89956248D02*
X88594728Y-88956248D01*
X88594728Y-88956248D02*
X88499490Y-89099105D01*
X88499490Y-89099105D02*
X88404252Y-89194343D01*
X88404252Y-89194343D02*
X88309014Y-89241962D01*
X165633333Y-62159580D02*
X165585714Y-62207200D01*
X165585714Y-62207200D02*
X165442857Y-62254819D01*
X165442857Y-62254819D02*
X165347619Y-62254819D01*
X165347619Y-62254819D02*
X165204762Y-62207200D01*
X165204762Y-62207200D02*
X165109524Y-62111961D01*
X165109524Y-62111961D02*
X165061905Y-62016723D01*
X165061905Y-62016723D02*
X165014286Y-61826247D01*
X165014286Y-61826247D02*
X165014286Y-61683390D01*
X165014286Y-61683390D02*
X165061905Y-61492914D01*
X165061905Y-61492914D02*
X165109524Y-61397676D01*
X165109524Y-61397676D02*
X165204762Y-61302438D01*
X165204762Y-61302438D02*
X165347619Y-61254819D01*
X165347619Y-61254819D02*
X165442857Y-61254819D01*
X165442857Y-61254819D02*
X165585714Y-61302438D01*
X165585714Y-61302438D02*
X165633333Y-61350057D01*
X166633333Y-62254819D02*
X166300000Y-61778628D01*
X166061905Y-62254819D02*
X166061905Y-61254819D01*
X166061905Y-61254819D02*
X166442857Y-61254819D01*
X166442857Y-61254819D02*
X166538095Y-61302438D01*
X166538095Y-61302438D02*
X166585714Y-61350057D01*
X166585714Y-61350057D02*
X166633333Y-61445295D01*
X166633333Y-61445295D02*
X166633333Y-61588152D01*
X166633333Y-61588152D02*
X166585714Y-61683390D01*
X166585714Y-61683390D02*
X166538095Y-61731009D01*
X166538095Y-61731009D02*
X166442857Y-61778628D01*
X166442857Y-61778628D02*
X166061905Y-61778628D01*
X167014286Y-61350057D02*
X167061905Y-61302438D01*
X167061905Y-61302438D02*
X167157143Y-61254819D01*
X167157143Y-61254819D02*
X167395238Y-61254819D01*
X167395238Y-61254819D02*
X167490476Y-61302438D01*
X167490476Y-61302438D02*
X167538095Y-61350057D01*
X167538095Y-61350057D02*
X167585714Y-61445295D01*
X167585714Y-61445295D02*
X167585714Y-61540533D01*
X167585714Y-61540533D02*
X167538095Y-61683390D01*
X167538095Y-61683390D02*
X166966667Y-62254819D01*
X166966667Y-62254819D02*
X167585714Y-62254819D01*
X196880442Y-112456248D02*
X196880442Y-113170533D01*
X196880442Y-113170533D02*
X196832823Y-113313390D01*
X196832823Y-113313390D02*
X196737585Y-113408629D01*
X196737585Y-113408629D02*
X196594728Y-113456248D01*
X196594728Y-113456248D02*
X196499490Y-113456248D01*
X197785204Y-112789581D02*
X197785204Y-113456248D01*
X197547109Y-112408629D02*
X197309014Y-113122914D01*
X197309014Y-113122914D02*
X197928061Y-113122914D01*
X118547109Y-62259580D02*
X118499490Y-62307200D01*
X118499490Y-62307200D02*
X118356633Y-62354819D01*
X118356633Y-62354819D02*
X118261395Y-62354819D01*
X118261395Y-62354819D02*
X118118538Y-62307200D01*
X118118538Y-62307200D02*
X118023300Y-62211961D01*
X118023300Y-62211961D02*
X117975681Y-62116723D01*
X117975681Y-62116723D02*
X117928062Y-61926247D01*
X117928062Y-61926247D02*
X117928062Y-61783390D01*
X117928062Y-61783390D02*
X117975681Y-61592914D01*
X117975681Y-61592914D02*
X118023300Y-61497676D01*
X118023300Y-61497676D02*
X118118538Y-61402438D01*
X118118538Y-61402438D02*
X118261395Y-61354819D01*
X118261395Y-61354819D02*
X118356633Y-61354819D01*
X118356633Y-61354819D02*
X118499490Y-61402438D01*
X118499490Y-61402438D02*
X118547109Y-61450057D01*
X119547109Y-62354819D02*
X119213776Y-61878628D01*
X118975681Y-62354819D02*
X118975681Y-61354819D01*
X118975681Y-61354819D02*
X119356633Y-61354819D01*
X119356633Y-61354819D02*
X119451871Y-61402438D01*
X119451871Y-61402438D02*
X119499490Y-61450057D01*
X119499490Y-61450057D02*
X119547109Y-61545295D01*
X119547109Y-61545295D02*
X119547109Y-61688152D01*
X119547109Y-61688152D02*
X119499490Y-61783390D01*
X119499490Y-61783390D02*
X119451871Y-61831009D01*
X119451871Y-61831009D02*
X119356633Y-61878628D01*
X119356633Y-61878628D02*
X118975681Y-61878628D01*
X120499490Y-62354819D02*
X119928062Y-62354819D01*
X120213776Y-62354819D02*
X120213776Y-61354819D01*
X120213776Y-61354819D02*
X120118538Y-61497676D01*
X120118538Y-61497676D02*
X120023300Y-61592914D01*
X120023300Y-61592914D02*
X119928062Y-61640533D01*
X103163833Y-59056667D02*
X103116214Y-59151905D01*
X103116214Y-59151905D02*
X103020976Y-59247143D01*
X103020976Y-59247143D02*
X102878118Y-59390000D01*
X102878118Y-59390000D02*
X102830499Y-59485238D01*
X102830499Y-59485238D02*
X102830499Y-59580476D01*
X103068595Y-59532857D02*
X103020976Y-59628095D01*
X103020976Y-59628095D02*
X102925737Y-59723333D01*
X102925737Y-59723333D02*
X102735261Y-59770952D01*
X102735261Y-59770952D02*
X102401928Y-59770952D01*
X102401928Y-59770952D02*
X102211452Y-59723333D01*
X102211452Y-59723333D02*
X102116214Y-59628095D01*
X102116214Y-59628095D02*
X102068595Y-59532857D01*
X102068595Y-59532857D02*
X102068595Y-59342381D01*
X102068595Y-59342381D02*
X102116214Y-59247143D01*
X102116214Y-59247143D02*
X102211452Y-59151905D01*
X102211452Y-59151905D02*
X102401928Y-59104286D01*
X102401928Y-59104286D02*
X102735261Y-59104286D01*
X102735261Y-59104286D02*
X102925737Y-59151905D01*
X102925737Y-59151905D02*
X103020976Y-59247143D01*
X103020976Y-59247143D02*
X103068595Y-59342381D01*
X103068595Y-59342381D02*
X103068595Y-59532857D01*
X103068595Y-58151905D02*
X103068595Y-58723333D01*
X103068595Y-58437619D02*
X102068595Y-58437619D01*
X102068595Y-58437619D02*
X102211452Y-58532857D01*
X102211452Y-58532857D02*
X102306690Y-58628095D01*
X102306690Y-58628095D02*
X102354309Y-58723333D01*
X134928062Y-108132438D02*
X135261395Y-108132438D01*
X135404252Y-108656248D02*
X134928062Y-108656248D01*
X134928062Y-108656248D02*
X134928062Y-107656248D01*
X134928062Y-107656248D02*
X135404252Y-107656248D01*
X135785205Y-108608629D02*
X135928062Y-108656248D01*
X135928062Y-108656248D02*
X136166157Y-108656248D01*
X136166157Y-108656248D02*
X136261395Y-108608629D01*
X136261395Y-108608629D02*
X136309014Y-108561009D01*
X136309014Y-108561009D02*
X136356633Y-108465771D01*
X136356633Y-108465771D02*
X136356633Y-108370533D01*
X136356633Y-108370533D02*
X136309014Y-108275295D01*
X136309014Y-108275295D02*
X136261395Y-108227676D01*
X136261395Y-108227676D02*
X136166157Y-108180057D01*
X136166157Y-108180057D02*
X135975681Y-108132438D01*
X135975681Y-108132438D02*
X135880443Y-108084819D01*
X135880443Y-108084819D02*
X135832824Y-108037200D01*
X135832824Y-108037200D02*
X135785205Y-107941962D01*
X135785205Y-107941962D02*
X135785205Y-107846724D01*
X135785205Y-107846724D02*
X135832824Y-107751486D01*
X135832824Y-107751486D02*
X135880443Y-107703867D01*
X135880443Y-107703867D02*
X135975681Y-107656248D01*
X135975681Y-107656248D02*
X136213776Y-107656248D01*
X136213776Y-107656248D02*
X136356633Y-107703867D01*
X136785205Y-108656248D02*
X136785205Y-107656248D01*
X136785205Y-107656248D02*
X137166157Y-107656248D01*
X137166157Y-107656248D02*
X137261395Y-107703867D01*
X137261395Y-107703867D02*
X137309014Y-107751486D01*
X137309014Y-107751486D02*
X137356633Y-107846724D01*
X137356633Y-107846724D02*
X137356633Y-107989581D01*
X137356633Y-107989581D02*
X137309014Y-108084819D01*
X137309014Y-108084819D02*
X137261395Y-108132438D01*
X137261395Y-108132438D02*
X137166157Y-108180057D01*
X137166157Y-108180057D02*
X136785205Y-108180057D01*
X137689967Y-107656248D02*
X138309014Y-107656248D01*
X138309014Y-107656248D02*
X137975681Y-108037200D01*
X137975681Y-108037200D02*
X138118538Y-108037200D01*
X138118538Y-108037200D02*
X138213776Y-108084819D01*
X138213776Y-108084819D02*
X138261395Y-108132438D01*
X138261395Y-108132438D02*
X138309014Y-108227676D01*
X138309014Y-108227676D02*
X138309014Y-108465771D01*
X138309014Y-108465771D02*
X138261395Y-108561009D01*
X138261395Y-108561009D02*
X138213776Y-108608629D01*
X138213776Y-108608629D02*
X138118538Y-108656248D01*
X138118538Y-108656248D02*
X137832824Y-108656248D01*
X137832824Y-108656248D02*
X137737586Y-108608629D01*
X137737586Y-108608629D02*
X137689967Y-108561009D01*
X138689967Y-107751486D02*
X138737586Y-107703867D01*
X138737586Y-107703867D02*
X138832824Y-107656248D01*
X138832824Y-107656248D02*
X139070919Y-107656248D01*
X139070919Y-107656248D02*
X139166157Y-107703867D01*
X139166157Y-107703867D02*
X139213776Y-107751486D01*
X139213776Y-107751486D02*
X139261395Y-107846724D01*
X139261395Y-107846724D02*
X139261395Y-107941962D01*
X139261395Y-107941962D02*
X139213776Y-108084819D01*
X139213776Y-108084819D02*
X138642348Y-108656248D01*
X138642348Y-108656248D02*
X139261395Y-108656248D01*
X139689967Y-108275295D02*
X140451872Y-108275295D01*
X140928062Y-108656248D02*
X140928062Y-107656248D01*
X140928062Y-107656248D02*
X141166157Y-107656248D01*
X141166157Y-107656248D02*
X141309014Y-107703867D01*
X141309014Y-107703867D02*
X141404252Y-107799105D01*
X141404252Y-107799105D02*
X141451871Y-107894343D01*
X141451871Y-107894343D02*
X141499490Y-108084819D01*
X141499490Y-108084819D02*
X141499490Y-108227676D01*
X141499490Y-108227676D02*
X141451871Y-108418152D01*
X141451871Y-108418152D02*
X141404252Y-108513390D01*
X141404252Y-108513390D02*
X141309014Y-108608629D01*
X141309014Y-108608629D02*
X141166157Y-108656248D01*
X141166157Y-108656248D02*
X140928062Y-108656248D01*
X141928062Y-108132438D02*
X142261395Y-108132438D01*
X142404252Y-108656248D02*
X141928062Y-108656248D01*
X141928062Y-108656248D02*
X141928062Y-107656248D01*
X141928062Y-107656248D02*
X142404252Y-107656248D01*
X142689967Y-107656248D02*
X143023300Y-108656248D01*
X143023300Y-108656248D02*
X143356633Y-107656248D01*
X143689967Y-108656248D02*
X143689967Y-107656248D01*
X144261395Y-108656248D02*
X143832824Y-108084819D01*
X144261395Y-107656248D02*
X143689967Y-108227676D01*
X144689967Y-108656248D02*
X144689967Y-107656248D01*
X145023300Y-107656248D02*
X145594728Y-107656248D01*
X145309014Y-108656248D02*
X145309014Y-107656248D01*
X145928062Y-108275295D02*
X146689967Y-108275295D01*
X147023300Y-107656248D02*
X147356633Y-108656248D01*
X147356633Y-108656248D02*
X147689966Y-107656248D01*
X148547109Y-108656248D02*
X147975681Y-108656248D01*
X148261395Y-108656248D02*
X148261395Y-107656248D01*
X148261395Y-107656248D02*
X148166157Y-107799105D01*
X148166157Y-107799105D02*
X148070919Y-107894343D01*
X148070919Y-107894343D02*
X147975681Y-107941962D01*
X142680442Y-67232438D02*
X142347109Y-67232438D01*
X142347109Y-67756248D02*
X142347109Y-66756248D01*
X142347109Y-66756248D02*
X142823299Y-66756248D01*
X143728061Y-67756248D02*
X143156633Y-67756248D01*
X143442347Y-67756248D02*
X143442347Y-66756248D01*
X143442347Y-66756248D02*
X143347109Y-66899105D01*
X143347109Y-66899105D02*
X143251871Y-66994343D01*
X143251871Y-66994343D02*
X143156633Y-67041962D01*
X196380442Y-88456248D02*
X196380442Y-89170533D01*
X196380442Y-89170533D02*
X196332823Y-89313390D01*
X196332823Y-89313390D02*
X196237585Y-89408629D01*
X196237585Y-89408629D02*
X196094728Y-89456248D01*
X196094728Y-89456248D02*
X195999490Y-89456248D01*
X196761395Y-88456248D02*
X197380442Y-88456248D01*
X197380442Y-88456248D02*
X197047109Y-88837200D01*
X197047109Y-88837200D02*
X197189966Y-88837200D01*
X197189966Y-88837200D02*
X197285204Y-88884819D01*
X197285204Y-88884819D02*
X197332823Y-88932438D01*
X197332823Y-88932438D02*
X197380442Y-89027676D01*
X197380442Y-89027676D02*
X197380442Y-89265771D01*
X197380442Y-89265771D02*
X197332823Y-89361009D01*
X197332823Y-89361009D02*
X197285204Y-89408629D01*
X197285204Y-89408629D02*
X197189966Y-89456248D01*
X197189966Y-89456248D02*
X196904252Y-89456248D01*
X196904252Y-89456248D02*
X196809014Y-89408629D01*
X196809014Y-89408629D02*
X196761395Y-89361009D01*
D13*
%TO.C,R8*%
X174343776Y-109381429D02*
X180883776Y-109381429D01*
X174343776Y-109711429D02*
X174343776Y-109381429D01*
X174343776Y-111791429D02*
X174343776Y-112121429D01*
X174343776Y-112121429D02*
X180883776Y-112121429D01*
X180883776Y-109381429D02*
X180883776Y-109711429D01*
X180883776Y-112121429D02*
X180883776Y-111791429D01*
%TO.C,J7*%
X131593776Y-48831429D02*
X138913776Y-48831429D01*
X131593776Y-58071429D02*
X131593776Y-48831429D01*
X139513776Y-48831429D02*
X141833776Y-48831429D01*
X141833776Y-48831429D02*
X141833776Y-58071429D01*
X141833776Y-49351429D02*
X131593776Y-49351429D01*
X141833776Y-50451429D02*
X131593776Y-50451429D01*
X141833776Y-58071429D02*
X131593776Y-58071429D01*
X139213776Y-48831429D02*
X138773776Y-48221429D01*
X139653776Y-48221429D01*
X139213776Y-48831429D01*
G36*
X139213776Y-48831429D02*
G01*
X138773776Y-48221429D01*
X139653776Y-48221429D01*
X139213776Y-48831429D01*
G37*
%TO.C,TH1*%
X139143776Y-86431429D02*
X145683776Y-86431429D01*
X139143776Y-86761429D02*
X139143776Y-86431429D01*
X139143776Y-88841429D02*
X139143776Y-89171429D01*
X139143776Y-89171429D02*
X145683776Y-89171429D01*
X145683776Y-86431429D02*
X145683776Y-86761429D01*
X145683776Y-89171429D02*
X145683776Y-88841429D01*
%TO.C,R2*%
X102133776Y-121531429D02*
X108673776Y-121531429D01*
X102133776Y-121861429D02*
X102133776Y-121531429D01*
X102133776Y-123941429D02*
X102133776Y-124271429D01*
X102133776Y-124271429D02*
X108673776Y-124271429D01*
X108673776Y-121531429D02*
X108673776Y-121861429D01*
X108673776Y-124271429D02*
X108673776Y-123941429D01*
%TO.C,Q2*%
X177853776Y-53851429D02*
X182473776Y-53851429D01*
X177853776Y-64071429D02*
X177853776Y-53851429D01*
X181093776Y-53851429D02*
X181093776Y-64071429D01*
X182473776Y-53851429D02*
X182473776Y-64071429D01*
X182473776Y-57111429D02*
X181093776Y-57111429D01*
X182473776Y-60811429D02*
X181093776Y-60811429D01*
X182473776Y-64071429D02*
X177853776Y-64071429D01*
%TO.C,J2*%
X83521276Y-101381429D02*
X93561276Y-101381429D01*
X83521276Y-103701429D02*
X83521276Y-101381429D01*
X83521276Y-111621429D02*
X83521276Y-104301429D01*
X84141276Y-101381429D02*
X84141276Y-111621429D01*
X85641276Y-101381429D02*
X85641276Y-111621429D01*
X90541276Y-101381429D02*
X90541276Y-111621429D01*
X93561276Y-101381429D02*
X93561276Y-111621429D01*
X93561276Y-111621429D02*
X83521276Y-111621429D01*
X83521276Y-104001429D02*
X82911276Y-104441429D01*
X82911276Y-103561429D01*
X83521276Y-104001429D01*
G36*
X83521276Y-104001429D02*
G01*
X82911276Y-104441429D01*
X82911276Y-103561429D01*
X83521276Y-104001429D01*
G37*
%TO.C,R4*%
X105336712Y-93791429D02*
X109690840Y-93791429D01*
X105336712Y-97211429D02*
X109690840Y-97211429D01*
%TO.C,J1*%
X83521276Y-90381429D02*
X93561276Y-90381429D01*
X83521276Y-92701429D02*
X83521276Y-90381429D01*
X83521276Y-100621429D02*
X83521276Y-93301429D01*
X84141276Y-90381429D02*
X84141276Y-100621429D01*
X85641276Y-90381429D02*
X85641276Y-100621429D01*
X90541276Y-90381429D02*
X90541276Y-100621429D01*
X93561276Y-90381429D02*
X93561276Y-100621429D01*
X93561276Y-100621429D02*
X83521276Y-100621429D01*
X83521276Y-93001429D02*
X82911276Y-93441429D01*
X82911276Y-92561429D01*
X83521276Y-93001429D01*
G36*
X83521276Y-93001429D02*
G01*
X82911276Y-93441429D01*
X82911276Y-92561429D01*
X83521276Y-93001429D01*
G37*
%TO.C,R11*%
X174343776Y-121531429D02*
X180883776Y-121531429D01*
X174343776Y-121861429D02*
X174343776Y-121531429D01*
X174343776Y-123941429D02*
X174343776Y-124271429D01*
X174343776Y-124271429D02*
X180883776Y-124271429D01*
X180883776Y-121531429D02*
X180883776Y-121861429D01*
X180883776Y-124271429D02*
X180883776Y-123941429D01*
%TO.C,R10*%
X174343776Y-117481429D02*
X180883776Y-117481429D01*
X174343776Y-117811429D02*
X174343776Y-117481429D01*
X174343776Y-119891429D02*
X174343776Y-120221429D01*
X174343776Y-120221429D02*
X180883776Y-120221429D01*
X180883776Y-117481429D02*
X180883776Y-117811429D01*
X180883776Y-120221429D02*
X180883776Y-119891429D01*
%TO.C,C4*%
X114654129Y-81058675D02*
X108352129Y-81058675D01*
X114654129Y-81098675D02*
X108365129Y-81098675D01*
X114654129Y-81138675D02*
X108377129Y-81138675D01*
X114654129Y-81178675D02*
X108389129Y-81178675D01*
X114654129Y-81218675D02*
X108402129Y-81218675D01*
X114654129Y-81258675D02*
X108415129Y-81258675D01*
X114654129Y-81298675D02*
X108428129Y-81298675D01*
X114654129Y-81338675D02*
X108442129Y-81338675D01*
X114654129Y-81378675D02*
X108455129Y-81378675D01*
X114654129Y-81418675D02*
X108469129Y-81418675D01*
X114654129Y-81458675D02*
X108483129Y-81458675D01*
X114654129Y-81498675D02*
X108497129Y-81498675D01*
X114654129Y-81538675D02*
X108512129Y-81538675D01*
X114654129Y-81578675D02*
X108527129Y-81578675D01*
X114654129Y-81618675D02*
X108542129Y-81618675D01*
X114654129Y-81658675D02*
X108557129Y-81658675D01*
X114654129Y-81698675D02*
X108573129Y-81698675D01*
X114654129Y-81738675D02*
X108589129Y-81738675D01*
X114654129Y-81778675D02*
X108605129Y-81778675D01*
X114654129Y-81818675D02*
X108621129Y-81818675D01*
X114654129Y-81858675D02*
X108637129Y-81858675D01*
X114654129Y-81898675D02*
X108654129Y-81898675D01*
X114654129Y-81938675D02*
X108671129Y-81938675D01*
X114654129Y-81978675D02*
X108688129Y-81978675D01*
X114654129Y-82018675D02*
X108706129Y-82018675D01*
X114654129Y-82058675D02*
X108724129Y-82058675D01*
X114654129Y-82098675D02*
X108742129Y-82098675D01*
X114654129Y-82138675D02*
X108760129Y-82138675D01*
X114654129Y-82178675D02*
X108779129Y-82178675D01*
X114654129Y-82218675D02*
X108798129Y-82218675D01*
X114654129Y-82258675D02*
X108817129Y-82258675D01*
X114654129Y-82298675D02*
X108836129Y-82298675D01*
X114654129Y-82338675D02*
X108856129Y-82338675D01*
X114654129Y-82378675D02*
X108876129Y-82378675D01*
X114654129Y-82418675D02*
X108896129Y-82418675D01*
X114654129Y-82458675D02*
X108916129Y-82458675D01*
X114654129Y-82498675D02*
X108937129Y-82498675D01*
X114654129Y-82538675D02*
X108958129Y-82538675D01*
X114654129Y-82578675D02*
X108979129Y-82578675D01*
X114654129Y-82618675D02*
X109001129Y-82618675D01*
X114654129Y-82658675D02*
X109023129Y-82658675D01*
X114654129Y-82698675D02*
X109045129Y-82698675D01*
X114654129Y-82738675D02*
X109068129Y-82738675D01*
X114654129Y-82778675D02*
X109090129Y-82778675D01*
X114654129Y-82818675D02*
X109113129Y-82818675D01*
X114654129Y-82858675D02*
X109137129Y-82858675D01*
X114654129Y-82898675D02*
X109161129Y-82898675D01*
X114654129Y-82938675D02*
X109185129Y-82938675D01*
X114654129Y-82978675D02*
X109209129Y-82978675D01*
X114654129Y-83018675D02*
X109234129Y-83018675D01*
X114654129Y-83058675D02*
X109259129Y-83058675D01*
X114654129Y-83098675D02*
X109284129Y-83098675D01*
X114654129Y-83138675D02*
X109309129Y-83138675D01*
X114654129Y-83178675D02*
X109335129Y-83178675D01*
X114654129Y-83218675D02*
X109362129Y-83218675D01*
X114654129Y-83258675D02*
X109388129Y-83258675D01*
X114654129Y-83298675D02*
X109415129Y-83298675D01*
X114654129Y-83338675D02*
X109443129Y-83338675D01*
X114654129Y-83378675D02*
X109470129Y-83378675D01*
X114654129Y-83418675D02*
X109498129Y-83418675D01*
X114654129Y-83458675D02*
X109527129Y-83458675D01*
X114654129Y-83498675D02*
X109555129Y-83498675D01*
X114654129Y-83538675D02*
X109585129Y-83538675D01*
X114654129Y-83578675D02*
X109614129Y-83578675D01*
X114654129Y-83618675D02*
X109644129Y-83618675D01*
X114654129Y-83658675D02*
X109674129Y-83658675D01*
X114654129Y-83698675D02*
X109705129Y-83698675D01*
X114654129Y-83738675D02*
X109736129Y-83738675D01*
X114654129Y-83778675D02*
X109767129Y-83778675D01*
X114654129Y-83818675D02*
X109799129Y-83818675D01*
X114654129Y-83858675D02*
X109832129Y-83858675D01*
X114654129Y-83898675D02*
X109864129Y-83898675D01*
X116859129Y-86818675D02*
X115329129Y-86818675D01*
X117191129Y-86778675D02*
X114997129Y-86778675D01*
X117445129Y-86738675D02*
X114743129Y-86738675D01*
X117658129Y-86698675D02*
X114530129Y-86698675D01*
X117845129Y-86658675D02*
X114343129Y-86658675D01*
X118014129Y-86618675D02*
X114174129Y-86618675D01*
X118168129Y-86578675D02*
X114020129Y-86578675D01*
X118311129Y-86538675D02*
X113877129Y-86538675D01*
X118445129Y-86498675D02*
X113743129Y-86498675D01*
X118571129Y-86458675D02*
X113617129Y-86458675D01*
X118691129Y-86418675D02*
X113497129Y-86418675D01*
X118804129Y-86378675D02*
X113384129Y-86378675D01*
X118913129Y-86338675D02*
X113275129Y-86338675D01*
X119017129Y-86298675D02*
X113171129Y-86298675D01*
X119117129Y-86258675D02*
X113071129Y-86258675D01*
X119214129Y-86218675D02*
X112974129Y-86218675D01*
X119307129Y-86178675D02*
X112881129Y-86178675D01*
X119397129Y-86138675D02*
X112791129Y-86138675D01*
X119484129Y-86098675D02*
X112704129Y-86098675D01*
X119569129Y-86058675D02*
X112619129Y-86058675D01*
X119651129Y-86018675D02*
X112537129Y-86018675D01*
X119731129Y-85978675D02*
X112457129Y-85978675D01*
X119808129Y-85938675D02*
X112380129Y-85938675D01*
X119884129Y-85898675D02*
X112304129Y-85898675D01*
X119958129Y-85858675D02*
X112230129Y-85858675D01*
X120030129Y-85818675D02*
X112158129Y-85818675D01*
X120100129Y-85778675D02*
X112088129Y-85778675D01*
X120169129Y-85738675D02*
X112019129Y-85738675D01*
X120236129Y-85698675D02*
X111952129Y-85698675D01*
X120302129Y-85658675D02*
X111886129Y-85658675D01*
X120367129Y-85618675D02*
X111821129Y-85618675D01*
X120430129Y-85578675D02*
X111758129Y-85578675D01*
X120492129Y-85538675D02*
X111696129Y-85538675D01*
X120553129Y-85498675D02*
X111635129Y-85498675D01*
X120612129Y-85458675D02*
X111576129Y-85458675D01*
X120649129Y-70049184D02*
X120649129Y-71649184D01*
X120670129Y-85418675D02*
X111518129Y-85418675D01*
X120728129Y-85378675D02*
X111460129Y-85378675D01*
X120784129Y-85338675D02*
X111404129Y-85338675D01*
X120839129Y-85298675D02*
X111349129Y-85298675D01*
X120894129Y-85258675D02*
X111294129Y-85258675D01*
X120947129Y-85218675D02*
X111241129Y-85218675D01*
X121000129Y-85178675D02*
X111188129Y-85178675D01*
X121051129Y-85138675D02*
X111137129Y-85138675D01*
X121102129Y-85098675D02*
X111086129Y-85098675D01*
X121152129Y-85058675D02*
X111036129Y-85058675D01*
X121201129Y-85018675D02*
X110987129Y-85018675D01*
X121250129Y-84978675D02*
X110938129Y-84978675D01*
X121298129Y-84938675D02*
X110890129Y-84938675D01*
X121344129Y-84898675D02*
X110844129Y-84898675D01*
X121391129Y-84858675D02*
X110797129Y-84858675D01*
X121436129Y-84818675D02*
X110752129Y-84818675D01*
X121449129Y-70849184D02*
X119849129Y-70849184D01*
X121481129Y-84778675D02*
X110707129Y-84778675D01*
X121525129Y-84738675D02*
X110663129Y-84738675D01*
X121569129Y-84698675D02*
X110619129Y-84698675D01*
X121612129Y-84658675D02*
X110576129Y-84658675D01*
X121654129Y-84618675D02*
X110534129Y-84618675D01*
X121696129Y-84578675D02*
X110492129Y-84578675D01*
X121737129Y-84538675D02*
X110451129Y-84538675D01*
X121777129Y-84498675D02*
X110411129Y-84498675D01*
X121817129Y-84458675D02*
X110371129Y-84458675D01*
X121857129Y-84418675D02*
X110331129Y-84418675D01*
X121896129Y-84378675D02*
X110292129Y-84378675D01*
X121934129Y-84338675D02*
X110254129Y-84338675D01*
X121972129Y-84298675D02*
X110216129Y-84298675D01*
X122009129Y-84258675D02*
X110179129Y-84258675D01*
X122046129Y-84218675D02*
X110142129Y-84218675D01*
X122082129Y-84178675D02*
X110106129Y-84178675D01*
X122118129Y-84138675D02*
X110070129Y-84138675D01*
X122154129Y-84098675D02*
X110034129Y-84098675D01*
X122188129Y-84058675D02*
X110000129Y-84058675D01*
X122223129Y-84018675D02*
X109965129Y-84018675D01*
X122257129Y-83978675D02*
X109931129Y-83978675D01*
X122291129Y-83938675D02*
X109897129Y-83938675D01*
X122324129Y-83898675D02*
X117534129Y-83898675D01*
X122356129Y-83858675D02*
X117534129Y-83858675D01*
X122389129Y-83818675D02*
X117534129Y-83818675D01*
X122421129Y-83778675D02*
X117534129Y-83778675D01*
X122452129Y-83738675D02*
X117534129Y-83738675D01*
X122483129Y-83698675D02*
X117534129Y-83698675D01*
X122514129Y-83658675D02*
X117534129Y-83658675D01*
X122544129Y-83618675D02*
X117534129Y-83618675D01*
X122574129Y-83578675D02*
X117534129Y-83578675D01*
X122603129Y-83538675D02*
X117534129Y-83538675D01*
X122633129Y-83498675D02*
X117534129Y-83498675D01*
X122661129Y-83458675D02*
X117534129Y-83458675D01*
X122690129Y-83418675D02*
X117534129Y-83418675D01*
X122718129Y-83378675D02*
X117534129Y-83378675D01*
X122745129Y-83338675D02*
X117534129Y-83338675D01*
X122773129Y-83298675D02*
X117534129Y-83298675D01*
X122800129Y-83258675D02*
X117534129Y-83258675D01*
X122826129Y-83218675D02*
X117534129Y-83218675D01*
X122853129Y-83178675D02*
X117534129Y-83178675D01*
X122879129Y-83138675D02*
X117534129Y-83138675D01*
X122904129Y-83098675D02*
X117534129Y-83098675D01*
X122929129Y-83058675D02*
X117534129Y-83058675D01*
X122954129Y-83018675D02*
X117534129Y-83018675D01*
X122979129Y-82978675D02*
X117534129Y-82978675D01*
X123003129Y-82938675D02*
X117534129Y-82938675D01*
X123027129Y-82898675D02*
X117534129Y-82898675D01*
X123051129Y-82858675D02*
X117534129Y-82858675D01*
X123075129Y-82818675D02*
X117534129Y-82818675D01*
X123098129Y-82778675D02*
X117534129Y-82778675D01*
X123120129Y-82738675D02*
X117534129Y-82738675D01*
X123143129Y-82698675D02*
X117534129Y-82698675D01*
X123165129Y-82658675D02*
X117534129Y-82658675D01*
X123187129Y-82618675D02*
X117534129Y-82618675D01*
X123209129Y-82578675D02*
X117534129Y-82578675D01*
X123230129Y-82538675D02*
X117534129Y-82538675D01*
X123251129Y-82498675D02*
X117534129Y-82498675D01*
X123272129Y-82458675D02*
X117534129Y-82458675D01*
X123292129Y-82418675D02*
X117534129Y-82418675D01*
X123312129Y-82378675D02*
X117534129Y-82378675D01*
X123332129Y-82338675D02*
X117534129Y-82338675D01*
X123352129Y-82298675D02*
X117534129Y-82298675D01*
X123371129Y-82258675D02*
X117534129Y-82258675D01*
X123390129Y-82218675D02*
X117534129Y-82218675D01*
X123409129Y-82178675D02*
X117534129Y-82178675D01*
X123428129Y-82138675D02*
X117534129Y-82138675D01*
X123446129Y-82098675D02*
X117534129Y-82098675D01*
X123464129Y-82058675D02*
X117534129Y-82058675D01*
X123482129Y-82018675D02*
X117534129Y-82018675D01*
X123500129Y-81978675D02*
X117534129Y-81978675D01*
X123517129Y-81938675D02*
X117534129Y-81938675D01*
X123534129Y-81898675D02*
X117534129Y-81898675D01*
X123551129Y-81858675D02*
X117534129Y-81858675D01*
X123567129Y-81818675D02*
X117534129Y-81818675D01*
X123583129Y-81778675D02*
X117534129Y-81778675D01*
X123599129Y-81738675D02*
X117534129Y-81738675D01*
X123615129Y-81698675D02*
X117534129Y-81698675D01*
X123631129Y-81658675D02*
X117534129Y-81658675D01*
X123646129Y-81618675D02*
X117534129Y-81618675D01*
X123661129Y-81578675D02*
X117534129Y-81578675D01*
X123676129Y-81538675D02*
X117534129Y-81538675D01*
X123691129Y-81498675D02*
X117534129Y-81498675D01*
X123705129Y-81458675D02*
X117534129Y-81458675D01*
X123719129Y-81418675D02*
X117534129Y-81418675D01*
X123733129Y-81378675D02*
X117534129Y-81378675D01*
X123746129Y-81338675D02*
X117534129Y-81338675D01*
X123760129Y-81298675D02*
X117534129Y-81298675D01*
X123773129Y-81258675D02*
X117534129Y-81258675D01*
X123786129Y-81218675D02*
X117534129Y-81218675D01*
X123799129Y-81178675D02*
X117534129Y-81178675D01*
X123811129Y-81138675D02*
X117534129Y-81138675D01*
X123823129Y-81098675D02*
X117534129Y-81098675D01*
X123836129Y-81058675D02*
X117534129Y-81058675D01*
X123847129Y-81018675D02*
X108341129Y-81018675D01*
X123859129Y-80978675D02*
X108329129Y-80978675D01*
X123870129Y-80938675D02*
X108318129Y-80938675D01*
X123881129Y-80898675D02*
X108307129Y-80898675D01*
X123892129Y-80858675D02*
X108296129Y-80858675D01*
X123903129Y-80818675D02*
X108285129Y-80818675D01*
X123914129Y-80778675D02*
X108274129Y-80778675D01*
X123924129Y-80738675D02*
X108264129Y-80738675D01*
X123934129Y-80698675D02*
X108254129Y-80698675D01*
X123944129Y-80658675D02*
X108244129Y-80658675D01*
X123953129Y-80618675D02*
X108235129Y-80618675D01*
X123963129Y-80578675D02*
X108225129Y-80578675D01*
X123972129Y-80538675D02*
X108216129Y-80538675D01*
X123981129Y-80498675D02*
X108207129Y-80498675D01*
X123990129Y-80458675D02*
X108198129Y-80458675D01*
X123998129Y-80418675D02*
X108190129Y-80418675D01*
X124007129Y-80378675D02*
X108181129Y-80378675D01*
X124015129Y-80338675D02*
X108173129Y-80338675D01*
X124023129Y-80298675D02*
X108165129Y-80298675D01*
X124030129Y-80258675D02*
X108158129Y-80258675D01*
X124038129Y-80218675D02*
X108150129Y-80218675D01*
X124045129Y-80178675D02*
X108143129Y-80178675D01*
X124052129Y-80138675D02*
X108136129Y-80138675D01*
X124059129Y-80098675D02*
X108129129Y-80098675D01*
X124066129Y-80058675D02*
X108122129Y-80058675D01*
X124072129Y-80018675D02*
X108116129Y-80018675D01*
X124079129Y-79978675D02*
X108109129Y-79978675D01*
X124085129Y-79938675D02*
X108103129Y-79938675D01*
X124091129Y-79898675D02*
X108097129Y-79898675D01*
X124096129Y-79858675D02*
X108092129Y-79858675D01*
X124102129Y-79818675D02*
X108086129Y-79818675D01*
X124107129Y-79778675D02*
X108081129Y-79778675D01*
X124112129Y-79738675D02*
X108076129Y-79738675D01*
X124117129Y-79698675D02*
X108071129Y-79698675D01*
X124122129Y-79658675D02*
X108066129Y-79658675D01*
X124126129Y-79618675D02*
X108062129Y-79618675D01*
X124130129Y-79578675D02*
X108058129Y-79578675D01*
X124134129Y-79538675D02*
X108054129Y-79538675D01*
X124138129Y-79498675D02*
X108050129Y-79498675D01*
X124142129Y-79458675D02*
X108046129Y-79458675D01*
X124145129Y-79418675D02*
X108043129Y-79418675D01*
X124149129Y-79378675D02*
X108039129Y-79378675D01*
X124152129Y-79338675D02*
X108036129Y-79338675D01*
X124155129Y-79298675D02*
X108033129Y-79298675D01*
X124157129Y-79258675D02*
X108031129Y-79258675D01*
X124160129Y-79218675D02*
X108028129Y-79218675D01*
X124162129Y-79178675D02*
X108026129Y-79178675D01*
X124164129Y-79138675D02*
X108024129Y-79138675D01*
X124166129Y-79098675D02*
X108022129Y-79098675D01*
X124168129Y-79058675D02*
X108020129Y-79058675D01*
X124169129Y-79018675D02*
X108019129Y-79018675D01*
X124170129Y-78978675D02*
X108018129Y-78978675D01*
X124172129Y-78898675D02*
X108016129Y-78898675D01*
X124172129Y-78938675D02*
X108016129Y-78938675D01*
X124173129Y-78858675D02*
X108015129Y-78858675D01*
X124174129Y-78738675D02*
X108014129Y-78738675D01*
X124174129Y-78778675D02*
X108014129Y-78778675D01*
X124174129Y-78818675D02*
X108014129Y-78818675D01*
X124214129Y-78738675D02*
G75*
G02*
X107974129Y-78738675I-8120000J0D01*
G01*
X107974129Y-78738675D02*
G75*
G02*
X124214129Y-78738675I8120000J0D01*
G01*
%TO.C,J6*%
X185843776Y-64281429D02*
X202083776Y-64281429D01*
X185843776Y-79101429D02*
X185843776Y-64281429D01*
X185843776Y-85021429D02*
X185843776Y-79701429D01*
X202083776Y-64281429D02*
X202083776Y-85021429D01*
X202083776Y-85021429D02*
X185843776Y-85021429D01*
X185843776Y-79401429D02*
X185233776Y-79841429D01*
X185233776Y-78961429D01*
X185843776Y-79401429D01*
G36*
X185843776Y-79401429D02*
G01*
X185233776Y-79841429D01*
X185233776Y-78961429D01*
X185843776Y-79401429D01*
G37*
D14*
%TO.C,CR2*%
X157932577Y-60910729D02*
X174594977Y-60910729D01*
X157932577Y-66397129D02*
X157932577Y-60910729D01*
X174594977Y-60910729D02*
X174594977Y-66397129D01*
X174594977Y-66397129D02*
X157932577Y-66397129D01*
X156357777Y-64001429D02*
G75*
G02*
X155951377Y-64001429I-203200J0D01*
G01*
X155951377Y-64001429D02*
G75*
G02*
X156357777Y-64001429I203200J0D01*
G01*
D13*
%TO.C,C6*%
X174178776Y-104440177D02*
X174178776Y-104962681D01*
X175648776Y-104440177D02*
X175648776Y-104962681D01*
%TO.C,J4*%
X191593776Y-101281429D02*
X201633776Y-101281429D01*
X191593776Y-111521429D02*
X191593776Y-101281429D01*
X194613776Y-111521429D02*
X194613776Y-101281429D01*
X199513776Y-111521429D02*
X199513776Y-101281429D01*
X201013776Y-111521429D02*
X201013776Y-101281429D01*
X201633776Y-101281429D02*
X201633776Y-108601429D01*
X201633776Y-109201429D02*
X201633776Y-111521429D01*
X201633776Y-111521429D02*
X191593776Y-111521429D01*
X202243776Y-109341429D02*
X201633776Y-108901429D01*
X202243776Y-108461429D01*
X202243776Y-109341429D01*
G36*
X202243776Y-109341429D02*
G01*
X201633776Y-108901429D01*
X202243776Y-108461429D01*
X202243776Y-109341429D01*
G37*
%TO.C,C2*%
X149754129Y-81058675D02*
X143452129Y-81058675D01*
X149754129Y-81098675D02*
X143465129Y-81098675D01*
X149754129Y-81138675D02*
X143477129Y-81138675D01*
X149754129Y-81178675D02*
X143489129Y-81178675D01*
X149754129Y-81218675D02*
X143502129Y-81218675D01*
X149754129Y-81258675D02*
X143515129Y-81258675D01*
X149754129Y-81298675D02*
X143528129Y-81298675D01*
X149754129Y-81338675D02*
X143542129Y-81338675D01*
X149754129Y-81378675D02*
X143555129Y-81378675D01*
X149754129Y-81418675D02*
X143569129Y-81418675D01*
X149754129Y-81458675D02*
X143583129Y-81458675D01*
X149754129Y-81498675D02*
X143597129Y-81498675D01*
X149754129Y-81538675D02*
X143612129Y-81538675D01*
X149754129Y-81578675D02*
X143627129Y-81578675D01*
X149754129Y-81618675D02*
X143642129Y-81618675D01*
X149754129Y-81658675D02*
X143657129Y-81658675D01*
X149754129Y-81698675D02*
X143673129Y-81698675D01*
X149754129Y-81738675D02*
X143689129Y-81738675D01*
X149754129Y-81778675D02*
X143705129Y-81778675D01*
X149754129Y-81818675D02*
X143721129Y-81818675D01*
X149754129Y-81858675D02*
X143737129Y-81858675D01*
X149754129Y-81898675D02*
X143754129Y-81898675D01*
X149754129Y-81938675D02*
X143771129Y-81938675D01*
X149754129Y-81978675D02*
X143788129Y-81978675D01*
X149754129Y-82018675D02*
X143806129Y-82018675D01*
X149754129Y-82058675D02*
X143824129Y-82058675D01*
X149754129Y-82098675D02*
X143842129Y-82098675D01*
X149754129Y-82138675D02*
X143860129Y-82138675D01*
X149754129Y-82178675D02*
X143879129Y-82178675D01*
X149754129Y-82218675D02*
X143898129Y-82218675D01*
X149754129Y-82258675D02*
X143917129Y-82258675D01*
X149754129Y-82298675D02*
X143936129Y-82298675D01*
X149754129Y-82338675D02*
X143956129Y-82338675D01*
X149754129Y-82378675D02*
X143976129Y-82378675D01*
X149754129Y-82418675D02*
X143996129Y-82418675D01*
X149754129Y-82458675D02*
X144016129Y-82458675D01*
X149754129Y-82498675D02*
X144037129Y-82498675D01*
X149754129Y-82538675D02*
X144058129Y-82538675D01*
X149754129Y-82578675D02*
X144079129Y-82578675D01*
X149754129Y-82618675D02*
X144101129Y-82618675D01*
X149754129Y-82658675D02*
X144123129Y-82658675D01*
X149754129Y-82698675D02*
X144145129Y-82698675D01*
X149754129Y-82738675D02*
X144168129Y-82738675D01*
X149754129Y-82778675D02*
X144190129Y-82778675D01*
X149754129Y-82818675D02*
X144213129Y-82818675D01*
X149754129Y-82858675D02*
X144237129Y-82858675D01*
X149754129Y-82898675D02*
X144261129Y-82898675D01*
X149754129Y-82938675D02*
X144285129Y-82938675D01*
X149754129Y-82978675D02*
X144309129Y-82978675D01*
X149754129Y-83018675D02*
X144334129Y-83018675D01*
X149754129Y-83058675D02*
X144359129Y-83058675D01*
X149754129Y-83098675D02*
X144384129Y-83098675D01*
X149754129Y-83138675D02*
X144409129Y-83138675D01*
X149754129Y-83178675D02*
X144435129Y-83178675D01*
X149754129Y-83218675D02*
X144462129Y-83218675D01*
X149754129Y-83258675D02*
X144488129Y-83258675D01*
X149754129Y-83298675D02*
X144515129Y-83298675D01*
X149754129Y-83338675D02*
X144543129Y-83338675D01*
X149754129Y-83378675D02*
X144570129Y-83378675D01*
X149754129Y-83418675D02*
X144598129Y-83418675D01*
X149754129Y-83458675D02*
X144627129Y-83458675D01*
X149754129Y-83498675D02*
X144655129Y-83498675D01*
X149754129Y-83538675D02*
X144685129Y-83538675D01*
X149754129Y-83578675D02*
X144714129Y-83578675D01*
X149754129Y-83618675D02*
X144744129Y-83618675D01*
X149754129Y-83658675D02*
X144774129Y-83658675D01*
X149754129Y-83698675D02*
X144805129Y-83698675D01*
X149754129Y-83738675D02*
X144836129Y-83738675D01*
X149754129Y-83778675D02*
X144867129Y-83778675D01*
X149754129Y-83818675D02*
X144899129Y-83818675D01*
X149754129Y-83858675D02*
X144932129Y-83858675D01*
X149754129Y-83898675D02*
X144964129Y-83898675D01*
X151959129Y-86818675D02*
X150429129Y-86818675D01*
X152291129Y-86778675D02*
X150097129Y-86778675D01*
X152545129Y-86738675D02*
X149843129Y-86738675D01*
X152758129Y-86698675D02*
X149630129Y-86698675D01*
X152945129Y-86658675D02*
X149443129Y-86658675D01*
X153114129Y-86618675D02*
X149274129Y-86618675D01*
X153268129Y-86578675D02*
X149120129Y-86578675D01*
X153411129Y-86538675D02*
X148977129Y-86538675D01*
X153545129Y-86498675D02*
X148843129Y-86498675D01*
X153671129Y-86458675D02*
X148717129Y-86458675D01*
X153791129Y-86418675D02*
X148597129Y-86418675D01*
X153904129Y-86378675D02*
X148484129Y-86378675D01*
X154013129Y-86338675D02*
X148375129Y-86338675D01*
X154117129Y-86298675D02*
X148271129Y-86298675D01*
X154217129Y-86258675D02*
X148171129Y-86258675D01*
X154314129Y-86218675D02*
X148074129Y-86218675D01*
X154407129Y-86178675D02*
X147981129Y-86178675D01*
X154497129Y-86138675D02*
X147891129Y-86138675D01*
X154584129Y-86098675D02*
X147804129Y-86098675D01*
X154669129Y-86058675D02*
X147719129Y-86058675D01*
X154751129Y-86018675D02*
X147637129Y-86018675D01*
X154831129Y-85978675D02*
X147557129Y-85978675D01*
X154908129Y-85938675D02*
X147480129Y-85938675D01*
X154984129Y-85898675D02*
X147404129Y-85898675D01*
X155058129Y-85858675D02*
X147330129Y-85858675D01*
X155130129Y-85818675D02*
X147258129Y-85818675D01*
X155200129Y-85778675D02*
X147188129Y-85778675D01*
X155269129Y-85738675D02*
X147119129Y-85738675D01*
X155336129Y-85698675D02*
X147052129Y-85698675D01*
X155402129Y-85658675D02*
X146986129Y-85658675D01*
X155467129Y-85618675D02*
X146921129Y-85618675D01*
X155530129Y-85578675D02*
X146858129Y-85578675D01*
X155592129Y-85538675D02*
X146796129Y-85538675D01*
X155653129Y-85498675D02*
X146735129Y-85498675D01*
X155712129Y-85458675D02*
X146676129Y-85458675D01*
X155749129Y-70049184D02*
X155749129Y-71649184D01*
X155770129Y-85418675D02*
X146618129Y-85418675D01*
X155828129Y-85378675D02*
X146560129Y-85378675D01*
X155884129Y-85338675D02*
X146504129Y-85338675D01*
X155939129Y-85298675D02*
X146449129Y-85298675D01*
X155994129Y-85258675D02*
X146394129Y-85258675D01*
X156047129Y-85218675D02*
X146341129Y-85218675D01*
X156100129Y-85178675D02*
X146288129Y-85178675D01*
X156151129Y-85138675D02*
X146237129Y-85138675D01*
X156202129Y-85098675D02*
X146186129Y-85098675D01*
X156252129Y-85058675D02*
X146136129Y-85058675D01*
X156301129Y-85018675D02*
X146087129Y-85018675D01*
X156350129Y-84978675D02*
X146038129Y-84978675D01*
X156398129Y-84938675D02*
X145990129Y-84938675D01*
X156444129Y-84898675D02*
X145944129Y-84898675D01*
X156491129Y-84858675D02*
X145897129Y-84858675D01*
X156536129Y-84818675D02*
X145852129Y-84818675D01*
X156549129Y-70849184D02*
X154949129Y-70849184D01*
X156581129Y-84778675D02*
X145807129Y-84778675D01*
X156625129Y-84738675D02*
X145763129Y-84738675D01*
X156669129Y-84698675D02*
X145719129Y-84698675D01*
X156712129Y-84658675D02*
X145676129Y-84658675D01*
X156754129Y-84618675D02*
X145634129Y-84618675D01*
X156796129Y-84578675D02*
X145592129Y-84578675D01*
X156837129Y-84538675D02*
X145551129Y-84538675D01*
X156877129Y-84498675D02*
X145511129Y-84498675D01*
X156917129Y-84458675D02*
X145471129Y-84458675D01*
X156957129Y-84418675D02*
X145431129Y-84418675D01*
X156996129Y-84378675D02*
X145392129Y-84378675D01*
X157034129Y-84338675D02*
X145354129Y-84338675D01*
X157072129Y-84298675D02*
X145316129Y-84298675D01*
X157109129Y-84258675D02*
X145279129Y-84258675D01*
X157146129Y-84218675D02*
X145242129Y-84218675D01*
X157182129Y-84178675D02*
X145206129Y-84178675D01*
X157218129Y-84138675D02*
X145170129Y-84138675D01*
X157254129Y-84098675D02*
X145134129Y-84098675D01*
X157288129Y-84058675D02*
X145100129Y-84058675D01*
X157323129Y-84018675D02*
X145065129Y-84018675D01*
X157357129Y-83978675D02*
X145031129Y-83978675D01*
X157391129Y-83938675D02*
X144997129Y-83938675D01*
X157424129Y-83898675D02*
X152634129Y-83898675D01*
X157456129Y-83858675D02*
X152634129Y-83858675D01*
X157489129Y-83818675D02*
X152634129Y-83818675D01*
X157521129Y-83778675D02*
X152634129Y-83778675D01*
X157552129Y-83738675D02*
X152634129Y-83738675D01*
X157583129Y-83698675D02*
X152634129Y-83698675D01*
X157614129Y-83658675D02*
X152634129Y-83658675D01*
X157644129Y-83618675D02*
X152634129Y-83618675D01*
X157674129Y-83578675D02*
X152634129Y-83578675D01*
X157703129Y-83538675D02*
X152634129Y-83538675D01*
X157733129Y-83498675D02*
X152634129Y-83498675D01*
X157761129Y-83458675D02*
X152634129Y-83458675D01*
X157790129Y-83418675D02*
X152634129Y-83418675D01*
X157818129Y-83378675D02*
X152634129Y-83378675D01*
X157845129Y-83338675D02*
X152634129Y-83338675D01*
X157873129Y-83298675D02*
X152634129Y-83298675D01*
X157900129Y-83258675D02*
X152634129Y-83258675D01*
X157926129Y-83218675D02*
X152634129Y-83218675D01*
X157953129Y-83178675D02*
X152634129Y-83178675D01*
X157979129Y-83138675D02*
X152634129Y-83138675D01*
X158004129Y-83098675D02*
X152634129Y-83098675D01*
X158029129Y-83058675D02*
X152634129Y-83058675D01*
X158054129Y-83018675D02*
X152634129Y-83018675D01*
X158079129Y-82978675D02*
X152634129Y-82978675D01*
X158103129Y-82938675D02*
X152634129Y-82938675D01*
X158127129Y-82898675D02*
X152634129Y-82898675D01*
X158151129Y-82858675D02*
X152634129Y-82858675D01*
X158175129Y-82818675D02*
X152634129Y-82818675D01*
X158198129Y-82778675D02*
X152634129Y-82778675D01*
X158220129Y-82738675D02*
X152634129Y-82738675D01*
X158243129Y-82698675D02*
X152634129Y-82698675D01*
X158265129Y-82658675D02*
X152634129Y-82658675D01*
X158287129Y-82618675D02*
X152634129Y-82618675D01*
X158309129Y-82578675D02*
X152634129Y-82578675D01*
X158330129Y-82538675D02*
X152634129Y-82538675D01*
X158351129Y-82498675D02*
X152634129Y-82498675D01*
X158372129Y-82458675D02*
X152634129Y-82458675D01*
X158392129Y-82418675D02*
X152634129Y-82418675D01*
X158412129Y-82378675D02*
X152634129Y-82378675D01*
X158432129Y-82338675D02*
X152634129Y-82338675D01*
X158452129Y-82298675D02*
X152634129Y-82298675D01*
X158471129Y-82258675D02*
X152634129Y-82258675D01*
X158490129Y-82218675D02*
X152634129Y-82218675D01*
X158509129Y-82178675D02*
X152634129Y-82178675D01*
X158528129Y-82138675D02*
X152634129Y-82138675D01*
X158546129Y-82098675D02*
X152634129Y-82098675D01*
X158564129Y-82058675D02*
X152634129Y-82058675D01*
X158582129Y-82018675D02*
X152634129Y-82018675D01*
X158600129Y-81978675D02*
X152634129Y-81978675D01*
X158617129Y-81938675D02*
X152634129Y-81938675D01*
X158634129Y-81898675D02*
X152634129Y-81898675D01*
X158651129Y-81858675D02*
X152634129Y-81858675D01*
X158667129Y-81818675D02*
X152634129Y-81818675D01*
X158683129Y-81778675D02*
X152634129Y-81778675D01*
X158699129Y-81738675D02*
X152634129Y-81738675D01*
X158715129Y-81698675D02*
X152634129Y-81698675D01*
X158731129Y-81658675D02*
X152634129Y-81658675D01*
X158746129Y-81618675D02*
X152634129Y-81618675D01*
X158761129Y-81578675D02*
X152634129Y-81578675D01*
X158776129Y-81538675D02*
X152634129Y-81538675D01*
X158791129Y-81498675D02*
X152634129Y-81498675D01*
X158805129Y-81458675D02*
X152634129Y-81458675D01*
X158819129Y-81418675D02*
X152634129Y-81418675D01*
X158833129Y-81378675D02*
X152634129Y-81378675D01*
X158846129Y-81338675D02*
X152634129Y-81338675D01*
X158860129Y-81298675D02*
X152634129Y-81298675D01*
X158873129Y-81258675D02*
X152634129Y-81258675D01*
X158886129Y-81218675D02*
X152634129Y-81218675D01*
X158899129Y-81178675D02*
X152634129Y-81178675D01*
X158911129Y-81138675D02*
X152634129Y-81138675D01*
X158923129Y-81098675D02*
X152634129Y-81098675D01*
X158936129Y-81058675D02*
X152634129Y-81058675D01*
X158947129Y-81018675D02*
X143441129Y-81018675D01*
X158959129Y-80978675D02*
X143429129Y-80978675D01*
X158970129Y-80938675D02*
X143418129Y-80938675D01*
X158981129Y-80898675D02*
X143407129Y-80898675D01*
X158992129Y-80858675D02*
X143396129Y-80858675D01*
X159003129Y-80818675D02*
X143385129Y-80818675D01*
X159014129Y-80778675D02*
X143374129Y-80778675D01*
X159024129Y-80738675D02*
X143364129Y-80738675D01*
X159034129Y-80698675D02*
X143354129Y-80698675D01*
X159044129Y-80658675D02*
X143344129Y-80658675D01*
X159053129Y-80618675D02*
X143335129Y-80618675D01*
X159063129Y-80578675D02*
X143325129Y-80578675D01*
X159072129Y-80538675D02*
X143316129Y-80538675D01*
X159081129Y-80498675D02*
X143307129Y-80498675D01*
X159090129Y-80458675D02*
X143298129Y-80458675D01*
X159098129Y-80418675D02*
X143290129Y-80418675D01*
X159107129Y-80378675D02*
X143281129Y-80378675D01*
X159115129Y-80338675D02*
X143273129Y-80338675D01*
X159123129Y-80298675D02*
X143265129Y-80298675D01*
X159130129Y-80258675D02*
X143258129Y-80258675D01*
X159138129Y-80218675D02*
X143250129Y-80218675D01*
X159145129Y-80178675D02*
X143243129Y-80178675D01*
X159152129Y-80138675D02*
X143236129Y-80138675D01*
X159159129Y-80098675D02*
X143229129Y-80098675D01*
X159166129Y-80058675D02*
X143222129Y-80058675D01*
X159172129Y-80018675D02*
X143216129Y-80018675D01*
X159179129Y-79978675D02*
X143209129Y-79978675D01*
X159185129Y-79938675D02*
X143203129Y-79938675D01*
X159191129Y-79898675D02*
X143197129Y-79898675D01*
X159196129Y-79858675D02*
X143192129Y-79858675D01*
X159202129Y-79818675D02*
X143186129Y-79818675D01*
X159207129Y-79778675D02*
X143181129Y-79778675D01*
X159212129Y-79738675D02*
X143176129Y-79738675D01*
X159217129Y-79698675D02*
X143171129Y-79698675D01*
X159222129Y-79658675D02*
X143166129Y-79658675D01*
X159226129Y-79618675D02*
X143162129Y-79618675D01*
X159230129Y-79578675D02*
X143158129Y-79578675D01*
X159234129Y-79538675D02*
X143154129Y-79538675D01*
X159238129Y-79498675D02*
X143150129Y-79498675D01*
X159242129Y-79458675D02*
X143146129Y-79458675D01*
X159245129Y-79418675D02*
X143143129Y-79418675D01*
X159249129Y-79378675D02*
X143139129Y-79378675D01*
X159252129Y-79338675D02*
X143136129Y-79338675D01*
X159255129Y-79298675D02*
X143133129Y-79298675D01*
X159257129Y-79258675D02*
X143131129Y-79258675D01*
X159260129Y-79218675D02*
X143128129Y-79218675D01*
X159262129Y-79178675D02*
X143126129Y-79178675D01*
X159264129Y-79138675D02*
X143124129Y-79138675D01*
X159266129Y-79098675D02*
X143122129Y-79098675D01*
X159268129Y-79058675D02*
X143120129Y-79058675D01*
X159269129Y-79018675D02*
X143119129Y-79018675D01*
X159270129Y-78978675D02*
X143118129Y-78978675D01*
X159272129Y-78898675D02*
X143116129Y-78898675D01*
X159272129Y-78938675D02*
X143116129Y-78938675D01*
X159273129Y-78858675D02*
X143115129Y-78858675D01*
X159274129Y-78738675D02*
X143114129Y-78738675D01*
X159274129Y-78778675D02*
X143114129Y-78778675D01*
X159274129Y-78818675D02*
X143114129Y-78818675D01*
X159314129Y-78738675D02*
G75*
G02*
X143074129Y-78738675I-8120000J0D01*
G01*
X143074129Y-78738675D02*
G75*
G02*
X159314129Y-78738675I8120000J0D01*
G01*
%TO.C,C3*%
X132204129Y-81058675D02*
X125902129Y-81058675D01*
X132204129Y-81098675D02*
X125915129Y-81098675D01*
X132204129Y-81138675D02*
X125927129Y-81138675D01*
X132204129Y-81178675D02*
X125939129Y-81178675D01*
X132204129Y-81218675D02*
X125952129Y-81218675D01*
X132204129Y-81258675D02*
X125965129Y-81258675D01*
X132204129Y-81298675D02*
X125978129Y-81298675D01*
X132204129Y-81338675D02*
X125992129Y-81338675D01*
X132204129Y-81378675D02*
X126005129Y-81378675D01*
X132204129Y-81418675D02*
X126019129Y-81418675D01*
X132204129Y-81458675D02*
X126033129Y-81458675D01*
X132204129Y-81498675D02*
X126047129Y-81498675D01*
X132204129Y-81538675D02*
X126062129Y-81538675D01*
X132204129Y-81578675D02*
X126077129Y-81578675D01*
X132204129Y-81618675D02*
X126092129Y-81618675D01*
X132204129Y-81658675D02*
X126107129Y-81658675D01*
X132204129Y-81698675D02*
X126123129Y-81698675D01*
X132204129Y-81738675D02*
X126139129Y-81738675D01*
X132204129Y-81778675D02*
X126155129Y-81778675D01*
X132204129Y-81818675D02*
X126171129Y-81818675D01*
X132204129Y-81858675D02*
X126187129Y-81858675D01*
X132204129Y-81898675D02*
X126204129Y-81898675D01*
X132204129Y-81938675D02*
X126221129Y-81938675D01*
X132204129Y-81978675D02*
X126238129Y-81978675D01*
X132204129Y-82018675D02*
X126256129Y-82018675D01*
X132204129Y-82058675D02*
X126274129Y-82058675D01*
X132204129Y-82098675D02*
X126292129Y-82098675D01*
X132204129Y-82138675D02*
X126310129Y-82138675D01*
X132204129Y-82178675D02*
X126329129Y-82178675D01*
X132204129Y-82218675D02*
X126348129Y-82218675D01*
X132204129Y-82258675D02*
X126367129Y-82258675D01*
X132204129Y-82298675D02*
X126386129Y-82298675D01*
X132204129Y-82338675D02*
X126406129Y-82338675D01*
X132204129Y-82378675D02*
X126426129Y-82378675D01*
X132204129Y-82418675D02*
X126446129Y-82418675D01*
X132204129Y-82458675D02*
X126466129Y-82458675D01*
X132204129Y-82498675D02*
X126487129Y-82498675D01*
X132204129Y-82538675D02*
X126508129Y-82538675D01*
X132204129Y-82578675D02*
X126529129Y-82578675D01*
X132204129Y-82618675D02*
X126551129Y-82618675D01*
X132204129Y-82658675D02*
X126573129Y-82658675D01*
X132204129Y-82698675D02*
X126595129Y-82698675D01*
X132204129Y-82738675D02*
X126618129Y-82738675D01*
X132204129Y-82778675D02*
X126640129Y-82778675D01*
X132204129Y-82818675D02*
X126663129Y-82818675D01*
X132204129Y-82858675D02*
X126687129Y-82858675D01*
X132204129Y-82898675D02*
X126711129Y-82898675D01*
X132204129Y-82938675D02*
X126735129Y-82938675D01*
X132204129Y-82978675D02*
X126759129Y-82978675D01*
X132204129Y-83018675D02*
X126784129Y-83018675D01*
X132204129Y-83058675D02*
X126809129Y-83058675D01*
X132204129Y-83098675D02*
X126834129Y-83098675D01*
X132204129Y-83138675D02*
X126859129Y-83138675D01*
X132204129Y-83178675D02*
X126885129Y-83178675D01*
X132204129Y-83218675D02*
X126912129Y-83218675D01*
X132204129Y-83258675D02*
X126938129Y-83258675D01*
X132204129Y-83298675D02*
X126965129Y-83298675D01*
X132204129Y-83338675D02*
X126993129Y-83338675D01*
X132204129Y-83378675D02*
X127020129Y-83378675D01*
X132204129Y-83418675D02*
X127048129Y-83418675D01*
X132204129Y-83458675D02*
X127077129Y-83458675D01*
X132204129Y-83498675D02*
X127105129Y-83498675D01*
X132204129Y-83538675D02*
X127135129Y-83538675D01*
X132204129Y-83578675D02*
X127164129Y-83578675D01*
X132204129Y-83618675D02*
X127194129Y-83618675D01*
X132204129Y-83658675D02*
X127224129Y-83658675D01*
X132204129Y-83698675D02*
X127255129Y-83698675D01*
X132204129Y-83738675D02*
X127286129Y-83738675D01*
X132204129Y-83778675D02*
X127317129Y-83778675D01*
X132204129Y-83818675D02*
X127349129Y-83818675D01*
X132204129Y-83858675D02*
X127382129Y-83858675D01*
X132204129Y-83898675D02*
X127414129Y-83898675D01*
X134409129Y-86818675D02*
X132879129Y-86818675D01*
X134741129Y-86778675D02*
X132547129Y-86778675D01*
X134995129Y-86738675D02*
X132293129Y-86738675D01*
X135208129Y-86698675D02*
X132080129Y-86698675D01*
X135395129Y-86658675D02*
X131893129Y-86658675D01*
X135564129Y-86618675D02*
X131724129Y-86618675D01*
X135718129Y-86578675D02*
X131570129Y-86578675D01*
X135861129Y-86538675D02*
X131427129Y-86538675D01*
X135995129Y-86498675D02*
X131293129Y-86498675D01*
X136121129Y-86458675D02*
X131167129Y-86458675D01*
X136241129Y-86418675D02*
X131047129Y-86418675D01*
X136354129Y-86378675D02*
X130934129Y-86378675D01*
X136463129Y-86338675D02*
X130825129Y-86338675D01*
X136567129Y-86298675D02*
X130721129Y-86298675D01*
X136667129Y-86258675D02*
X130621129Y-86258675D01*
X136764129Y-86218675D02*
X130524129Y-86218675D01*
X136857129Y-86178675D02*
X130431129Y-86178675D01*
X136947129Y-86138675D02*
X130341129Y-86138675D01*
X137034129Y-86098675D02*
X130254129Y-86098675D01*
X137119129Y-86058675D02*
X130169129Y-86058675D01*
X137201129Y-86018675D02*
X130087129Y-86018675D01*
X137281129Y-85978675D02*
X130007129Y-85978675D01*
X137358129Y-85938675D02*
X129930129Y-85938675D01*
X137434129Y-85898675D02*
X129854129Y-85898675D01*
X137508129Y-85858675D02*
X129780129Y-85858675D01*
X137580129Y-85818675D02*
X129708129Y-85818675D01*
X137650129Y-85778675D02*
X129638129Y-85778675D01*
X137719129Y-85738675D02*
X129569129Y-85738675D01*
X137786129Y-85698675D02*
X129502129Y-85698675D01*
X137852129Y-85658675D02*
X129436129Y-85658675D01*
X137917129Y-85618675D02*
X129371129Y-85618675D01*
X137980129Y-85578675D02*
X129308129Y-85578675D01*
X138042129Y-85538675D02*
X129246129Y-85538675D01*
X138103129Y-85498675D02*
X129185129Y-85498675D01*
X138162129Y-85458675D02*
X129126129Y-85458675D01*
X138199129Y-70049184D02*
X138199129Y-71649184D01*
X138220129Y-85418675D02*
X129068129Y-85418675D01*
X138278129Y-85378675D02*
X129010129Y-85378675D01*
X138334129Y-85338675D02*
X128954129Y-85338675D01*
X138389129Y-85298675D02*
X128899129Y-85298675D01*
X138444129Y-85258675D02*
X128844129Y-85258675D01*
X138497129Y-85218675D02*
X128791129Y-85218675D01*
X138550129Y-85178675D02*
X128738129Y-85178675D01*
X138601129Y-85138675D02*
X128687129Y-85138675D01*
X138652129Y-85098675D02*
X128636129Y-85098675D01*
X138702129Y-85058675D02*
X128586129Y-85058675D01*
X138751129Y-85018675D02*
X128537129Y-85018675D01*
X138800129Y-84978675D02*
X128488129Y-84978675D01*
X138848129Y-84938675D02*
X128440129Y-84938675D01*
X138894129Y-84898675D02*
X128394129Y-84898675D01*
X138941129Y-84858675D02*
X128347129Y-84858675D01*
X138986129Y-84818675D02*
X128302129Y-84818675D01*
X138999129Y-70849184D02*
X137399129Y-70849184D01*
X139031129Y-84778675D02*
X128257129Y-84778675D01*
X139075129Y-84738675D02*
X128213129Y-84738675D01*
X139119129Y-84698675D02*
X128169129Y-84698675D01*
X139162129Y-84658675D02*
X128126129Y-84658675D01*
X139204129Y-84618675D02*
X128084129Y-84618675D01*
X139246129Y-84578675D02*
X128042129Y-84578675D01*
X139287129Y-84538675D02*
X128001129Y-84538675D01*
X139327129Y-84498675D02*
X127961129Y-84498675D01*
X139367129Y-84458675D02*
X127921129Y-84458675D01*
X139407129Y-84418675D02*
X127881129Y-84418675D01*
X139446129Y-84378675D02*
X127842129Y-84378675D01*
X139484129Y-84338675D02*
X127804129Y-84338675D01*
X139522129Y-84298675D02*
X127766129Y-84298675D01*
X139559129Y-84258675D02*
X127729129Y-84258675D01*
X139596129Y-84218675D02*
X127692129Y-84218675D01*
X139632129Y-84178675D02*
X127656129Y-84178675D01*
X139668129Y-84138675D02*
X127620129Y-84138675D01*
X139704129Y-84098675D02*
X127584129Y-84098675D01*
X139738129Y-84058675D02*
X127550129Y-84058675D01*
X139773129Y-84018675D02*
X127515129Y-84018675D01*
X139807129Y-83978675D02*
X127481129Y-83978675D01*
X139841129Y-83938675D02*
X127447129Y-83938675D01*
X139874129Y-83898675D02*
X135084129Y-83898675D01*
X139906129Y-83858675D02*
X135084129Y-83858675D01*
X139939129Y-83818675D02*
X135084129Y-83818675D01*
X139971129Y-83778675D02*
X135084129Y-83778675D01*
X140002129Y-83738675D02*
X135084129Y-83738675D01*
X140033129Y-83698675D02*
X135084129Y-83698675D01*
X140064129Y-83658675D02*
X135084129Y-83658675D01*
X140094129Y-83618675D02*
X135084129Y-83618675D01*
X140124129Y-83578675D02*
X135084129Y-83578675D01*
X140153129Y-83538675D02*
X135084129Y-83538675D01*
X140183129Y-83498675D02*
X135084129Y-83498675D01*
X140211129Y-83458675D02*
X135084129Y-83458675D01*
X140240129Y-83418675D02*
X135084129Y-83418675D01*
X140268129Y-83378675D02*
X135084129Y-83378675D01*
X140295129Y-83338675D02*
X135084129Y-83338675D01*
X140323129Y-83298675D02*
X135084129Y-83298675D01*
X140350129Y-83258675D02*
X135084129Y-83258675D01*
X140376129Y-83218675D02*
X135084129Y-83218675D01*
X140403129Y-83178675D02*
X135084129Y-83178675D01*
X140429129Y-83138675D02*
X135084129Y-83138675D01*
X140454129Y-83098675D02*
X135084129Y-83098675D01*
X140479129Y-83058675D02*
X135084129Y-83058675D01*
X140504129Y-83018675D02*
X135084129Y-83018675D01*
X140529129Y-82978675D02*
X135084129Y-82978675D01*
X140553129Y-82938675D02*
X135084129Y-82938675D01*
X140577129Y-82898675D02*
X135084129Y-82898675D01*
X140601129Y-82858675D02*
X135084129Y-82858675D01*
X140625129Y-82818675D02*
X135084129Y-82818675D01*
X140648129Y-82778675D02*
X135084129Y-82778675D01*
X140670129Y-82738675D02*
X135084129Y-82738675D01*
X140693129Y-82698675D02*
X135084129Y-82698675D01*
X140715129Y-82658675D02*
X135084129Y-82658675D01*
X140737129Y-82618675D02*
X135084129Y-82618675D01*
X140759129Y-82578675D02*
X135084129Y-82578675D01*
X140780129Y-82538675D02*
X135084129Y-82538675D01*
X140801129Y-82498675D02*
X135084129Y-82498675D01*
X140822129Y-82458675D02*
X135084129Y-82458675D01*
X140842129Y-82418675D02*
X135084129Y-82418675D01*
X140862129Y-82378675D02*
X135084129Y-82378675D01*
X140882129Y-82338675D02*
X135084129Y-82338675D01*
X140902129Y-82298675D02*
X135084129Y-82298675D01*
X140921129Y-82258675D02*
X135084129Y-82258675D01*
X140940129Y-82218675D02*
X135084129Y-82218675D01*
X140959129Y-82178675D02*
X135084129Y-82178675D01*
X140978129Y-82138675D02*
X135084129Y-82138675D01*
X140996129Y-82098675D02*
X135084129Y-82098675D01*
X141014129Y-82058675D02*
X135084129Y-82058675D01*
X141032129Y-82018675D02*
X135084129Y-82018675D01*
X141050129Y-81978675D02*
X135084129Y-81978675D01*
X141067129Y-81938675D02*
X135084129Y-81938675D01*
X141084129Y-81898675D02*
X135084129Y-81898675D01*
X141101129Y-81858675D02*
X135084129Y-81858675D01*
X141117129Y-81818675D02*
X135084129Y-81818675D01*
X141133129Y-81778675D02*
X135084129Y-81778675D01*
X141149129Y-81738675D02*
X135084129Y-81738675D01*
X141165129Y-81698675D02*
X135084129Y-81698675D01*
X141181129Y-81658675D02*
X135084129Y-81658675D01*
X141196129Y-81618675D02*
X135084129Y-81618675D01*
X141211129Y-81578675D02*
X135084129Y-81578675D01*
X141226129Y-81538675D02*
X135084129Y-81538675D01*
X141241129Y-81498675D02*
X135084129Y-81498675D01*
X141255129Y-81458675D02*
X135084129Y-81458675D01*
X141269129Y-81418675D02*
X135084129Y-81418675D01*
X141283129Y-81378675D02*
X135084129Y-81378675D01*
X141296129Y-81338675D02*
X135084129Y-81338675D01*
X141310129Y-81298675D02*
X135084129Y-81298675D01*
X141323129Y-81258675D02*
X135084129Y-81258675D01*
X141336129Y-81218675D02*
X135084129Y-81218675D01*
X141349129Y-81178675D02*
X135084129Y-81178675D01*
X141361129Y-81138675D02*
X135084129Y-81138675D01*
X141373129Y-81098675D02*
X135084129Y-81098675D01*
X141386129Y-81058675D02*
X135084129Y-81058675D01*
X141397129Y-81018675D02*
X125891129Y-81018675D01*
X141409129Y-80978675D02*
X125879129Y-80978675D01*
X141420129Y-80938675D02*
X125868129Y-80938675D01*
X141431129Y-80898675D02*
X125857129Y-80898675D01*
X141442129Y-80858675D02*
X125846129Y-80858675D01*
X141453129Y-80818675D02*
X125835129Y-80818675D01*
X141464129Y-80778675D02*
X125824129Y-80778675D01*
X141474129Y-80738675D02*
X125814129Y-80738675D01*
X141484129Y-80698675D02*
X125804129Y-80698675D01*
X141494129Y-80658675D02*
X125794129Y-80658675D01*
X141503129Y-80618675D02*
X125785129Y-80618675D01*
X141513129Y-80578675D02*
X125775129Y-80578675D01*
X141522129Y-80538675D02*
X125766129Y-80538675D01*
X141531129Y-80498675D02*
X125757129Y-80498675D01*
X141540129Y-80458675D02*
X125748129Y-80458675D01*
X141548129Y-80418675D02*
X125740129Y-80418675D01*
X141557129Y-80378675D02*
X125731129Y-80378675D01*
X141565129Y-80338675D02*
X125723129Y-80338675D01*
X141573129Y-80298675D02*
X125715129Y-80298675D01*
X141580129Y-80258675D02*
X125708129Y-80258675D01*
X141588129Y-80218675D02*
X125700129Y-80218675D01*
X141595129Y-80178675D02*
X125693129Y-80178675D01*
X141602129Y-80138675D02*
X125686129Y-80138675D01*
X141609129Y-80098675D02*
X125679129Y-80098675D01*
X141616129Y-80058675D02*
X125672129Y-80058675D01*
X141622129Y-80018675D02*
X125666129Y-80018675D01*
X141629129Y-79978675D02*
X125659129Y-79978675D01*
X141635129Y-79938675D02*
X125653129Y-79938675D01*
X141641129Y-79898675D02*
X125647129Y-79898675D01*
X141646129Y-79858675D02*
X125642129Y-79858675D01*
X141652129Y-79818675D02*
X125636129Y-79818675D01*
X141657129Y-79778675D02*
X125631129Y-79778675D01*
X141662129Y-79738675D02*
X125626129Y-79738675D01*
X141667129Y-79698675D02*
X125621129Y-79698675D01*
X141672129Y-79658675D02*
X125616129Y-79658675D01*
X141676129Y-79618675D02*
X125612129Y-79618675D01*
X141680129Y-79578675D02*
X125608129Y-79578675D01*
X141684129Y-79538675D02*
X125604129Y-79538675D01*
X141688129Y-79498675D02*
X125600129Y-79498675D01*
X141692129Y-79458675D02*
X125596129Y-79458675D01*
X141695129Y-79418675D02*
X125593129Y-79418675D01*
X141699129Y-79378675D02*
X125589129Y-79378675D01*
X141702129Y-79338675D02*
X125586129Y-79338675D01*
X141705129Y-79298675D02*
X125583129Y-79298675D01*
X141707129Y-79258675D02*
X125581129Y-79258675D01*
X141710129Y-79218675D02*
X125578129Y-79218675D01*
X141712129Y-79178675D02*
X125576129Y-79178675D01*
X141714129Y-79138675D02*
X125574129Y-79138675D01*
X141716129Y-79098675D02*
X125572129Y-79098675D01*
X141718129Y-79058675D02*
X125570129Y-79058675D01*
X141719129Y-79018675D02*
X125569129Y-79018675D01*
X141720129Y-78978675D02*
X125568129Y-78978675D01*
X141722129Y-78898675D02*
X125566129Y-78898675D01*
X141722129Y-78938675D02*
X125566129Y-78938675D01*
X141723129Y-78858675D02*
X125565129Y-78858675D01*
X141724129Y-78738675D02*
X125564129Y-78738675D01*
X141724129Y-78778675D02*
X125564129Y-78778675D01*
X141724129Y-78818675D02*
X125564129Y-78818675D01*
X141764129Y-78738675D02*
G75*
G02*
X125524129Y-78738675I-8120000J0D01*
G01*
X125524129Y-78738675D02*
G75*
G02*
X141764129Y-78738675I8120000J0D01*
G01*
%TO.C,R6*%
X105374212Y-99291429D02*
X109728340Y-99291429D01*
X105374212Y-102711429D02*
X109728340Y-102711429D01*
%TO.C,R1*%
X102133776Y-117481429D02*
X108673776Y-117481429D01*
X102133776Y-117811429D02*
X102133776Y-117481429D01*
X102133776Y-119891429D02*
X102133776Y-120221429D01*
X102133776Y-120221429D02*
X108673776Y-120221429D01*
X108673776Y-117481429D02*
X108673776Y-117811429D01*
X108673776Y-120221429D02*
X108673776Y-119891429D01*
%TO.C,U2*%
X175353776Y-94741429D02*
X179473776Y-94741429D01*
X175353776Y-94836429D02*
X175353776Y-94741429D01*
X175353776Y-99861429D02*
X175353776Y-99766429D01*
X179473776Y-94741429D02*
X179473776Y-94836429D01*
X179473776Y-99766429D02*
X179473776Y-99861429D01*
X179473776Y-99861429D02*
X175353776Y-99861429D01*
X174813776Y-94831429D02*
X174573776Y-94501429D01*
X175053776Y-94501429D01*
X174813776Y-94831429D01*
G36*
X174813776Y-94831429D02*
G01*
X174573776Y-94501429D01*
X175053776Y-94501429D01*
X174813776Y-94831429D01*
G37*
%TO.C,J5*%
X83443776Y-64281429D02*
X99683776Y-64281429D01*
X83443776Y-85021429D02*
X83443776Y-64281429D01*
X99683776Y-64281429D02*
X99683776Y-69601429D01*
X99683776Y-70201429D02*
X99683776Y-85021429D01*
X99683776Y-85021429D02*
X83443776Y-85021429D01*
X100293776Y-70341429D02*
X99683776Y-69901429D01*
X100293776Y-69461429D01*
X100293776Y-70341429D01*
G36*
X100293776Y-70341429D02*
G01*
X99683776Y-69901429D01*
X100293776Y-69461429D01*
X100293776Y-70341429D01*
G37*
D14*
%TO.C,CR1*%
X110882576Y-60910729D02*
X127544976Y-60910729D01*
X110882576Y-66397129D02*
X110882576Y-60910729D01*
X127544976Y-60910729D02*
X127544976Y-66397129D01*
X127544976Y-66397129D02*
X110882576Y-66397129D01*
X109307776Y-64001429D02*
G75*
G02*
X108901376Y-64001429I-203200J0D01*
G01*
X108901376Y-64001429D02*
G75*
G02*
X109307776Y-64001429I203200J0D01*
G01*
D13*
%TO.C,R7*%
X139153776Y-89831429D02*
X145693776Y-89831429D01*
X139153776Y-90161429D02*
X139153776Y-89831429D01*
X139153776Y-92241429D02*
X139153776Y-92571429D01*
X139153776Y-92571429D02*
X145693776Y-92571429D01*
X145693776Y-89831429D02*
X145693776Y-90161429D01*
X145693776Y-92571429D02*
X145693776Y-92241429D01*
%TO.C,C1*%
X167304129Y-81058675D02*
X161002129Y-81058675D01*
X167304129Y-81098675D02*
X161015129Y-81098675D01*
X167304129Y-81138675D02*
X161027129Y-81138675D01*
X167304129Y-81178675D02*
X161039129Y-81178675D01*
X167304129Y-81218675D02*
X161052129Y-81218675D01*
X167304129Y-81258675D02*
X161065129Y-81258675D01*
X167304129Y-81298675D02*
X161078129Y-81298675D01*
X167304129Y-81338675D02*
X161092129Y-81338675D01*
X167304129Y-81378675D02*
X161105129Y-81378675D01*
X167304129Y-81418675D02*
X161119129Y-81418675D01*
X167304129Y-81458675D02*
X161133129Y-81458675D01*
X167304129Y-81498675D02*
X161147129Y-81498675D01*
X167304129Y-81538675D02*
X161162129Y-81538675D01*
X167304129Y-81578675D02*
X161177129Y-81578675D01*
X167304129Y-81618675D02*
X161192129Y-81618675D01*
X167304129Y-81658675D02*
X161207129Y-81658675D01*
X167304129Y-81698675D02*
X161223129Y-81698675D01*
X167304129Y-81738675D02*
X161239129Y-81738675D01*
X167304129Y-81778675D02*
X161255129Y-81778675D01*
X167304129Y-81818675D02*
X161271129Y-81818675D01*
X167304129Y-81858675D02*
X161287129Y-81858675D01*
X167304129Y-81898675D02*
X161304129Y-81898675D01*
X167304129Y-81938675D02*
X161321129Y-81938675D01*
X167304129Y-81978675D02*
X161338129Y-81978675D01*
X167304129Y-82018675D02*
X161356129Y-82018675D01*
X167304129Y-82058675D02*
X161374129Y-82058675D01*
X167304129Y-82098675D02*
X161392129Y-82098675D01*
X167304129Y-82138675D02*
X161410129Y-82138675D01*
X167304129Y-82178675D02*
X161429129Y-82178675D01*
X167304129Y-82218675D02*
X161448129Y-82218675D01*
X167304129Y-82258675D02*
X161467129Y-82258675D01*
X167304129Y-82298675D02*
X161486129Y-82298675D01*
X167304129Y-82338675D02*
X161506129Y-82338675D01*
X167304129Y-82378675D02*
X161526129Y-82378675D01*
X167304129Y-82418675D02*
X161546129Y-82418675D01*
X167304129Y-82458675D02*
X161566129Y-82458675D01*
X167304129Y-82498675D02*
X161587129Y-82498675D01*
X167304129Y-82538675D02*
X161608129Y-82538675D01*
X167304129Y-82578675D02*
X161629129Y-82578675D01*
X167304129Y-82618675D02*
X161651129Y-82618675D01*
X167304129Y-82658675D02*
X161673129Y-82658675D01*
X167304129Y-82698675D02*
X161695129Y-82698675D01*
X167304129Y-82738675D02*
X161718129Y-82738675D01*
X167304129Y-82778675D02*
X161740129Y-82778675D01*
X167304129Y-82818675D02*
X161763129Y-82818675D01*
X167304129Y-82858675D02*
X161787129Y-82858675D01*
X167304129Y-82898675D02*
X161811129Y-82898675D01*
X167304129Y-82938675D02*
X161835129Y-82938675D01*
X167304129Y-82978675D02*
X161859129Y-82978675D01*
X167304129Y-83018675D02*
X161884129Y-83018675D01*
X167304129Y-83058675D02*
X161909129Y-83058675D01*
X167304129Y-83098675D02*
X161934129Y-83098675D01*
X167304129Y-83138675D02*
X161959129Y-83138675D01*
X167304129Y-83178675D02*
X161985129Y-83178675D01*
X167304129Y-83218675D02*
X162012129Y-83218675D01*
X167304129Y-83258675D02*
X162038129Y-83258675D01*
X167304129Y-83298675D02*
X162065129Y-83298675D01*
X167304129Y-83338675D02*
X162093129Y-83338675D01*
X167304129Y-83378675D02*
X162120129Y-83378675D01*
X167304129Y-83418675D02*
X162148129Y-83418675D01*
X167304129Y-83458675D02*
X162177129Y-83458675D01*
X167304129Y-83498675D02*
X162205129Y-83498675D01*
X167304129Y-83538675D02*
X162235129Y-83538675D01*
X167304129Y-83578675D02*
X162264129Y-83578675D01*
X167304129Y-83618675D02*
X162294129Y-83618675D01*
X167304129Y-83658675D02*
X162324129Y-83658675D01*
X167304129Y-83698675D02*
X162355129Y-83698675D01*
X167304129Y-83738675D02*
X162386129Y-83738675D01*
X167304129Y-83778675D02*
X162417129Y-83778675D01*
X167304129Y-83818675D02*
X162449129Y-83818675D01*
X167304129Y-83858675D02*
X162482129Y-83858675D01*
X167304129Y-83898675D02*
X162514129Y-83898675D01*
X169509129Y-86818675D02*
X167979129Y-86818675D01*
X169841129Y-86778675D02*
X167647129Y-86778675D01*
X170095129Y-86738675D02*
X167393129Y-86738675D01*
X170308129Y-86698675D02*
X167180129Y-86698675D01*
X170495129Y-86658675D02*
X166993129Y-86658675D01*
X170664129Y-86618675D02*
X166824129Y-86618675D01*
X170818129Y-86578675D02*
X166670129Y-86578675D01*
X170961129Y-86538675D02*
X166527129Y-86538675D01*
X171095129Y-86498675D02*
X166393129Y-86498675D01*
X171221129Y-86458675D02*
X166267129Y-86458675D01*
X171341129Y-86418675D02*
X166147129Y-86418675D01*
X171454129Y-86378675D02*
X166034129Y-86378675D01*
X171563129Y-86338675D02*
X165925129Y-86338675D01*
X171667129Y-86298675D02*
X165821129Y-86298675D01*
X171767129Y-86258675D02*
X165721129Y-86258675D01*
X171864129Y-86218675D02*
X165624129Y-86218675D01*
X171957129Y-86178675D02*
X165531129Y-86178675D01*
X172047129Y-86138675D02*
X165441129Y-86138675D01*
X172134129Y-86098675D02*
X165354129Y-86098675D01*
X172219129Y-86058675D02*
X165269129Y-86058675D01*
X172301129Y-86018675D02*
X165187129Y-86018675D01*
X172381129Y-85978675D02*
X165107129Y-85978675D01*
X172458129Y-85938675D02*
X165030129Y-85938675D01*
X172534129Y-85898675D02*
X164954129Y-85898675D01*
X172608129Y-85858675D02*
X164880129Y-85858675D01*
X172680129Y-85818675D02*
X164808129Y-85818675D01*
X172750129Y-85778675D02*
X164738129Y-85778675D01*
X172819129Y-85738675D02*
X164669129Y-85738675D01*
X172886129Y-85698675D02*
X164602129Y-85698675D01*
X172952129Y-85658675D02*
X164536129Y-85658675D01*
X173017129Y-85618675D02*
X164471129Y-85618675D01*
X173080129Y-85578675D02*
X164408129Y-85578675D01*
X173142129Y-85538675D02*
X164346129Y-85538675D01*
X173203129Y-85498675D02*
X164285129Y-85498675D01*
X173262129Y-85458675D02*
X164226129Y-85458675D01*
X173299129Y-70049184D02*
X173299129Y-71649184D01*
X173320129Y-85418675D02*
X164168129Y-85418675D01*
X173378129Y-85378675D02*
X164110129Y-85378675D01*
X173434129Y-85338675D02*
X164054129Y-85338675D01*
X173489129Y-85298675D02*
X163999129Y-85298675D01*
X173544129Y-85258675D02*
X163944129Y-85258675D01*
X173597129Y-85218675D02*
X163891129Y-85218675D01*
X173650129Y-85178675D02*
X163838129Y-85178675D01*
X173701129Y-85138675D02*
X163787129Y-85138675D01*
X173752129Y-85098675D02*
X163736129Y-85098675D01*
X173802129Y-85058675D02*
X163686129Y-85058675D01*
X173851129Y-85018675D02*
X163637129Y-85018675D01*
X173900129Y-84978675D02*
X163588129Y-84978675D01*
X173948129Y-84938675D02*
X163540129Y-84938675D01*
X173994129Y-84898675D02*
X163494129Y-84898675D01*
X174041129Y-84858675D02*
X163447129Y-84858675D01*
X174086129Y-84818675D02*
X163402129Y-84818675D01*
X174099129Y-70849184D02*
X172499129Y-70849184D01*
X174131129Y-84778675D02*
X163357129Y-84778675D01*
X174175129Y-84738675D02*
X163313129Y-84738675D01*
X174219129Y-84698675D02*
X163269129Y-84698675D01*
X174262129Y-84658675D02*
X163226129Y-84658675D01*
X174304129Y-84618675D02*
X163184129Y-84618675D01*
X174346129Y-84578675D02*
X163142129Y-84578675D01*
X174387129Y-84538675D02*
X163101129Y-84538675D01*
X174427129Y-84498675D02*
X163061129Y-84498675D01*
X174467129Y-84458675D02*
X163021129Y-84458675D01*
X174507129Y-84418675D02*
X162981129Y-84418675D01*
X174546129Y-84378675D02*
X162942129Y-84378675D01*
X174584129Y-84338675D02*
X162904129Y-84338675D01*
X174622129Y-84298675D02*
X162866129Y-84298675D01*
X174659129Y-84258675D02*
X162829129Y-84258675D01*
X174696129Y-84218675D02*
X162792129Y-84218675D01*
X174732129Y-84178675D02*
X162756129Y-84178675D01*
X174768129Y-84138675D02*
X162720129Y-84138675D01*
X174804129Y-84098675D02*
X162684129Y-84098675D01*
X174838129Y-84058675D02*
X162650129Y-84058675D01*
X174873129Y-84018675D02*
X162615129Y-84018675D01*
X174907129Y-83978675D02*
X162581129Y-83978675D01*
X174941129Y-83938675D02*
X162547129Y-83938675D01*
X174974129Y-83898675D02*
X170184129Y-83898675D01*
X175006129Y-83858675D02*
X170184129Y-83858675D01*
X175039129Y-83818675D02*
X170184129Y-83818675D01*
X175071129Y-83778675D02*
X170184129Y-83778675D01*
X175102129Y-83738675D02*
X170184129Y-83738675D01*
X175133129Y-83698675D02*
X170184129Y-83698675D01*
X175164129Y-83658675D02*
X170184129Y-83658675D01*
X175194129Y-83618675D02*
X170184129Y-83618675D01*
X175224129Y-83578675D02*
X170184129Y-83578675D01*
X175253129Y-83538675D02*
X170184129Y-83538675D01*
X175283129Y-83498675D02*
X170184129Y-83498675D01*
X175311129Y-83458675D02*
X170184129Y-83458675D01*
X175340129Y-83418675D02*
X170184129Y-83418675D01*
X175368129Y-83378675D02*
X170184129Y-83378675D01*
X175395129Y-83338675D02*
X170184129Y-83338675D01*
X175423129Y-83298675D02*
X170184129Y-83298675D01*
X175450129Y-83258675D02*
X170184129Y-83258675D01*
X175476129Y-83218675D02*
X170184129Y-83218675D01*
X175503129Y-83178675D02*
X170184129Y-83178675D01*
X175529129Y-83138675D02*
X170184129Y-83138675D01*
X175554129Y-83098675D02*
X170184129Y-83098675D01*
X175579129Y-83058675D02*
X170184129Y-83058675D01*
X175604129Y-83018675D02*
X170184129Y-83018675D01*
X175629129Y-82978675D02*
X170184129Y-82978675D01*
X175653129Y-82938675D02*
X170184129Y-82938675D01*
X175677129Y-82898675D02*
X170184129Y-82898675D01*
X175701129Y-82858675D02*
X170184129Y-82858675D01*
X175725129Y-82818675D02*
X170184129Y-82818675D01*
X175748129Y-82778675D02*
X170184129Y-82778675D01*
X175770129Y-82738675D02*
X170184129Y-82738675D01*
X175793129Y-82698675D02*
X170184129Y-82698675D01*
X175815129Y-82658675D02*
X170184129Y-82658675D01*
X175837129Y-82618675D02*
X170184129Y-82618675D01*
X175859129Y-82578675D02*
X170184129Y-82578675D01*
X175880129Y-82538675D02*
X170184129Y-82538675D01*
X175901129Y-82498675D02*
X170184129Y-82498675D01*
X175922129Y-82458675D02*
X170184129Y-82458675D01*
X175942129Y-82418675D02*
X170184129Y-82418675D01*
X175962129Y-82378675D02*
X170184129Y-82378675D01*
X175982129Y-82338675D02*
X170184129Y-82338675D01*
X176002129Y-82298675D02*
X170184129Y-82298675D01*
X176021129Y-82258675D02*
X170184129Y-82258675D01*
X176040129Y-82218675D02*
X170184129Y-82218675D01*
X176059129Y-82178675D02*
X170184129Y-82178675D01*
X176078129Y-82138675D02*
X170184129Y-82138675D01*
X176096129Y-82098675D02*
X170184129Y-82098675D01*
X176114129Y-82058675D02*
X170184129Y-82058675D01*
X176132129Y-82018675D02*
X170184129Y-82018675D01*
X176150129Y-81978675D02*
X170184129Y-81978675D01*
X176167129Y-81938675D02*
X170184129Y-81938675D01*
X176184129Y-81898675D02*
X170184129Y-81898675D01*
X176201129Y-81858675D02*
X170184129Y-81858675D01*
X176217129Y-81818675D02*
X170184129Y-81818675D01*
X176233129Y-81778675D02*
X170184129Y-81778675D01*
X176249129Y-81738675D02*
X170184129Y-81738675D01*
X176265129Y-81698675D02*
X170184129Y-81698675D01*
X176281129Y-81658675D02*
X170184129Y-81658675D01*
X176296129Y-81618675D02*
X170184129Y-81618675D01*
X176311129Y-81578675D02*
X170184129Y-81578675D01*
X176326129Y-81538675D02*
X170184129Y-81538675D01*
X176341129Y-81498675D02*
X170184129Y-81498675D01*
X176355129Y-81458675D02*
X170184129Y-81458675D01*
X176369129Y-81418675D02*
X170184129Y-81418675D01*
X176383129Y-81378675D02*
X170184129Y-81378675D01*
X176396129Y-81338675D02*
X170184129Y-81338675D01*
X176410129Y-81298675D02*
X170184129Y-81298675D01*
X176423129Y-81258675D02*
X170184129Y-81258675D01*
X176436129Y-81218675D02*
X170184129Y-81218675D01*
X176449129Y-81178675D02*
X170184129Y-81178675D01*
X176461129Y-81138675D02*
X170184129Y-81138675D01*
X176473129Y-81098675D02*
X170184129Y-81098675D01*
X176486129Y-81058675D02*
X170184129Y-81058675D01*
X176497129Y-81018675D02*
X160991129Y-81018675D01*
X176509129Y-80978675D02*
X160979129Y-80978675D01*
X176520129Y-80938675D02*
X160968129Y-80938675D01*
X176531129Y-80898675D02*
X160957129Y-80898675D01*
X176542129Y-80858675D02*
X160946129Y-80858675D01*
X176553129Y-80818675D02*
X160935129Y-80818675D01*
X176564129Y-80778675D02*
X160924129Y-80778675D01*
X176574129Y-80738675D02*
X160914129Y-80738675D01*
X176584129Y-80698675D02*
X160904129Y-80698675D01*
X176594129Y-80658675D02*
X160894129Y-80658675D01*
X176603129Y-80618675D02*
X160885129Y-80618675D01*
X176613129Y-80578675D02*
X160875129Y-80578675D01*
X176622129Y-80538675D02*
X160866129Y-80538675D01*
X176631129Y-80498675D02*
X160857129Y-80498675D01*
X176640129Y-80458675D02*
X160848129Y-80458675D01*
X176648129Y-80418675D02*
X160840129Y-80418675D01*
X176657129Y-80378675D02*
X160831129Y-80378675D01*
X176665129Y-80338675D02*
X160823129Y-80338675D01*
X176673129Y-80298675D02*
X160815129Y-80298675D01*
X176680129Y-80258675D02*
X160808129Y-80258675D01*
X176688129Y-80218675D02*
X160800129Y-80218675D01*
X176695129Y-80178675D02*
X160793129Y-80178675D01*
X176702129Y-80138675D02*
X160786129Y-80138675D01*
X176709129Y-80098675D02*
X160779129Y-80098675D01*
X176716129Y-80058675D02*
X160772129Y-80058675D01*
X176722129Y-80018675D02*
X160766129Y-80018675D01*
X176729129Y-79978675D02*
X160759129Y-79978675D01*
X176735129Y-79938675D02*
X160753129Y-79938675D01*
X176741129Y-79898675D02*
X160747129Y-79898675D01*
X176746129Y-79858675D02*
X160742129Y-79858675D01*
X176752129Y-79818675D02*
X160736129Y-79818675D01*
X176757129Y-79778675D02*
X160731129Y-79778675D01*
X176762129Y-79738675D02*
X160726129Y-79738675D01*
X176767129Y-79698675D02*
X160721129Y-79698675D01*
X176772129Y-79658675D02*
X160716129Y-79658675D01*
X176776129Y-79618675D02*
X160712129Y-79618675D01*
X176780129Y-79578675D02*
X160708129Y-79578675D01*
X176784129Y-79538675D02*
X160704129Y-79538675D01*
X176788129Y-79498675D02*
X160700129Y-79498675D01*
X176792129Y-79458675D02*
X160696129Y-79458675D01*
X176795129Y-79418675D02*
X160693129Y-79418675D01*
X176799129Y-79378675D02*
X160689129Y-79378675D01*
X176802129Y-79338675D02*
X160686129Y-79338675D01*
X176805129Y-79298675D02*
X160683129Y-79298675D01*
X176807129Y-79258675D02*
X160681129Y-79258675D01*
X176810129Y-79218675D02*
X160678129Y-79218675D01*
X176812129Y-79178675D02*
X160676129Y-79178675D01*
X176814129Y-79138675D02*
X160674129Y-79138675D01*
X176816129Y-79098675D02*
X160672129Y-79098675D01*
X176818129Y-79058675D02*
X160670129Y-79058675D01*
X176819129Y-79018675D02*
X160669129Y-79018675D01*
X176820129Y-78978675D02*
X160668129Y-78978675D01*
X176822129Y-78898675D02*
X160666129Y-78898675D01*
X176822129Y-78938675D02*
X160666129Y-78938675D01*
X176823129Y-78858675D02*
X160665129Y-78858675D01*
X176824129Y-78738675D02*
X160664129Y-78738675D01*
X176824129Y-78778675D02*
X160664129Y-78778675D01*
X176824129Y-78818675D02*
X160664129Y-78818675D01*
X176864129Y-78738675D02*
G75*
G02*
X160624129Y-78738675I-8120000J0D01*
G01*
X160624129Y-78738675D02*
G75*
G02*
X176864129Y-78738675I8120000J0D01*
G01*
%TO.C,+24V_IN1*%
X143543776Y-48781429D02*
X150863776Y-48781429D01*
X143543776Y-58021429D02*
X143543776Y-48781429D01*
X151463776Y-48781429D02*
X153783776Y-48781429D01*
X153783776Y-48781429D02*
X153783776Y-58021429D01*
X153783776Y-49301429D02*
X143543776Y-49301429D01*
X153783776Y-50401429D02*
X143543776Y-50401429D01*
X153783776Y-58021429D02*
X143543776Y-58021429D01*
X151163776Y-48781429D02*
X150723776Y-48171429D01*
X151603776Y-48171429D01*
X151163776Y-48781429D01*
G36*
X151163776Y-48781429D02*
G01*
X150723776Y-48171429D01*
X151603776Y-48171429D01*
X151163776Y-48781429D01*
G37*
%TO.C,Q1*%
X103453776Y-53851429D02*
X108073776Y-53851429D01*
X103453776Y-57111429D02*
X104833776Y-57111429D01*
X103453776Y-60811429D02*
X104833776Y-60811429D01*
X103453776Y-64071429D02*
X103453776Y-53851429D01*
X104833776Y-64071429D02*
X104833776Y-53851429D01*
X108073776Y-53851429D02*
X108073776Y-64071429D01*
X108073776Y-64071429D02*
X103453776Y-64071429D01*
%TO.C,R5*%
X102133776Y-113431429D02*
X108673776Y-113431429D01*
X102133776Y-113761429D02*
X102133776Y-113431429D01*
X102133776Y-115841429D02*
X102133776Y-116171429D01*
X102133776Y-116171429D02*
X108673776Y-116171429D01*
X108673776Y-113431429D02*
X108673776Y-113761429D01*
X108673776Y-116171429D02*
X108673776Y-115841429D01*
%TO.C,C5*%
X179378776Y-104540177D02*
X179378776Y-105062681D01*
X180848776Y-104540177D02*
X180848776Y-105062681D01*
D15*
%TO.C,U1*%
X115938776Y-93743929D02*
X166888776Y-93743929D01*
X115938776Y-93743929D02*
X166888776Y-93743929D01*
X115938776Y-104473929D02*
X115938776Y-93743929D01*
X115938776Y-111184929D02*
X115938776Y-104473929D01*
X115938776Y-122253929D02*
X115938776Y-93743929D01*
X115938776Y-122253929D02*
X115938776Y-111184929D01*
X166888776Y-93743929D02*
X166888776Y-122253929D01*
X166888776Y-99193929D02*
X166888776Y-93743929D01*
X166888776Y-116883929D02*
X166888776Y-99193929D01*
X166888776Y-122253929D02*
X115938776Y-122253929D01*
X166888776Y-122253929D02*
X115938776Y-122253929D01*
X166888776Y-122253929D02*
X166888776Y-116883929D01*
D12*
X125998776Y-122823929D02*
G75*
G02*
X125798776Y-122823929I-100000J0D01*
G01*
X125798776Y-122823929D02*
G75*
G02*
X125998776Y-122823929I100000J0D01*
G01*
D13*
%TO.C,R9*%
X174343776Y-113431429D02*
X180883776Y-113431429D01*
X174343776Y-113761429D02*
X174343776Y-113431429D01*
X174343776Y-115841429D02*
X174343776Y-116171429D01*
X174343776Y-116171429D02*
X180883776Y-116171429D01*
X180883776Y-113431429D02*
X180883776Y-113761429D01*
X180883776Y-116171429D02*
X180883776Y-115841429D01*
%TO.C,R3*%
X102133776Y-109431429D02*
X108673776Y-109431429D01*
X102133776Y-109761429D02*
X102133776Y-109431429D01*
X102133776Y-111841429D02*
X102133776Y-112171429D01*
X102133776Y-112171429D02*
X108673776Y-112171429D01*
X108673776Y-109431429D02*
X108673776Y-109761429D01*
X108673776Y-112171429D02*
X108673776Y-111841429D01*
%TO.C,F1*%
X131353776Y-59591429D02*
X154073776Y-59591429D01*
X131353776Y-62751429D02*
X131353776Y-59591429D01*
X131353776Y-69411429D02*
X131353776Y-66251429D01*
X131353776Y-69411429D02*
X154073776Y-69411429D01*
X154073776Y-62751429D02*
X154073776Y-59591429D01*
X154073776Y-69411429D02*
X154073776Y-66251429D01*
%TO.C,J3*%
X191593776Y-90281429D02*
X201633776Y-90281429D01*
X191593776Y-100521429D02*
X191593776Y-90281429D01*
X194613776Y-100521429D02*
X194613776Y-90281429D01*
X199513776Y-100521429D02*
X199513776Y-90281429D01*
X201013776Y-100521429D02*
X201013776Y-90281429D01*
X201633776Y-90281429D02*
X201633776Y-97601429D01*
X201633776Y-98201429D02*
X201633776Y-100521429D01*
X201633776Y-100521429D02*
X191593776Y-100521429D01*
X202243776Y-98341429D02*
X201633776Y-97901429D01*
X202243776Y-97461429D01*
X202243776Y-98341429D01*
G36*
X202243776Y-98341429D02*
G01*
X201633776Y-97901429D01*
X202243776Y-97461429D01*
X202243776Y-98341429D01*
G37*
%TD*%
D16*
X92928932Y-47928932D02*
X192928932Y-47928932D01*
X95428932Y-57928932D02*
G75*
G02*
X90428932Y-57928932I-2500000J0D01*
G01*
X90428932Y-57928932D02*
G75*
G02*
X95428932Y-57928932I2500000J0D01*
G01*
X195428932Y-57928932D02*
G75*
G02*
X190428932Y-57928932I-2500000J0D01*
G01*
X190428932Y-57928932D02*
G75*
G02*
X195428932Y-57928932I2500000J0D01*
G01*
X95428932Y-117928932D02*
G75*
G02*
X90428932Y-117928932I-2500000J0D01*
G01*
X90428932Y-117928932D02*
G75*
G02*
X95428932Y-117928932I2500000J0D01*
G01*
X192928932Y-47928932D02*
G75*
G02*
X202928868Y-57928932I-32J-9999968D01*
G01*
X192928932Y-127928932D02*
X92928932Y-127928932D01*
X195428932Y-117928932D02*
G75*
G02*
X190428932Y-117928932I-2500000J0D01*
G01*
X190428932Y-117928932D02*
G75*
G02*
X195428932Y-117928932I2500000J0D01*
G01*
X92928932Y-127928932D02*
G75*
G02*
X82928928Y-117928932I-2J10000002D01*
G01*
X82928932Y-117928932D02*
X82928932Y-57928932D01*
X202928932Y-117928932D02*
G75*
G02*
X192928932Y-127928932I-10000002J2D01*
G01*
X82928932Y-57928932D02*
G75*
G02*
X92928932Y-47928932I9999998J2D01*
G01*
X202928932Y-57928932D02*
X202928932Y-117928932D01*
M02*
