%TF.GenerationSoftware,KiCad,Pcbnew,9.0.7*%
%TF.CreationDate,2026-03-06T16:12:08+05:30*%
%TF.ProjectId,V2 Solenoid Engine PCB,56322053-6f6c-4656-9e6f-696420456e67,rev?*%
%TF.SameCoordinates,Original*%
%TF.FileFunction,Drillmap*%
%TF.FilePolarity,Positive*%
%FSLAX45Y45*%
G04 Gerber Fmt 4.5, Leading zero omitted, Abs format (unit mm)*
G04 Created by KiCad (PCBNEW 9.0.7) date 2026-03-06 16:12:08*
%MOMM*%
%LPD*%
G01*
G04 APERTURE LIST*
%ADD10C,0.050000*%
%ADD11C,0.200000*%
%ADD12C,0.100000*%
%ADD13C,0.102000*%
%ADD14C,0.110000*%
%ADD15C,0.120000*%
%ADD16C,0.130000*%
%ADD17C,0.139700*%
G04 APERTURE END LIST*
D10*
X9292893Y-4792893D02*
X19292893Y-4792893D01*
X9542893Y-5792893D02*
G75*
G02*
X9042893Y-5792893I-250000J0D01*
G01*
X9042893Y-5792893D02*
G75*
G02*
X9542893Y-5792893I250000J0D01*
G01*
X19542893Y-5792893D02*
G75*
G02*
X19042893Y-5792893I-250000J0D01*
G01*
X19042893Y-5792893D02*
G75*
G02*
X19542893Y-5792893I250000J0D01*
G01*
X9542893Y-11792893D02*
G75*
G02*
X9042893Y-11792893I-250000J0D01*
G01*
X9042893Y-11792893D02*
G75*
G02*
X9542893Y-11792893I250000J0D01*
G01*
X19292893Y-4792893D02*
G75*
G02*
X20292887Y-5792893I-3J-999997D01*
G01*
X19292893Y-12792893D02*
X9292893Y-12792893D01*
X19542893Y-11792893D02*
G75*
G02*
X19042893Y-11792893I-250000J0D01*
G01*
X19042893Y-11792893D02*
G75*
G02*
X19542893Y-11792893I250000J0D01*
G01*
X9292893Y-12792893D02*
G75*
G02*
X8292893Y-11792893I0J1000000D01*
G01*
X8292893Y-11792893D02*
X8292893Y-5792893D01*
X20292893Y-11792893D02*
G75*
G02*
X19292893Y-12792893I-1000000J0D01*
G01*
X8292893Y-5792893D02*
G75*
G02*
X9292893Y-4792893I1000000J0D01*
G01*
X20292893Y-5792893D02*
X20292893Y-11792893D01*
D11*
D12*
X8390076Y-7030911D02*
X8420587Y-7061422D01*
X8420587Y-7030911D02*
X8390076Y-7061422D01*
X8390082Y-8012004D02*
X8420592Y-8042515D01*
X8420592Y-8012004D02*
X8390082Y-8042515D01*
X8390087Y-8993097D02*
X8420598Y-9023608D01*
X8420598Y-8993097D02*
X8390087Y-9023608D01*
X8390093Y-9974190D02*
X8420603Y-10004701D01*
X8420603Y-9974190D02*
X8390093Y-10004701D01*
X8390099Y-10955283D02*
X8420609Y-10985794D01*
X8420609Y-10955283D02*
X8390099Y-10985794D01*
X8390372Y-5754778D02*
X8420882Y-5785288D01*
X8420882Y-5754778D02*
X8390372Y-5785288D01*
X8899819Y-4974429D02*
X8930329Y-5004939D01*
X8930329Y-4974429D02*
X8899819Y-5004939D01*
X9026857Y-12628975D02*
X9057367Y-12659485D01*
X9057367Y-12628975D02*
X9026857Y-12659485D01*
X9488153Y-10728960D02*
X9518664Y-10759470D01*
X9518664Y-10728960D02*
X9488153Y-10759470D01*
X9504665Y-7673009D02*
X9535176Y-7703519D01*
X9535176Y-7673009D02*
X9504665Y-7703519D01*
X9542704Y-9442651D02*
X9573214Y-9473162D01*
X9573214Y-9442651D02*
X9542704Y-9473162D01*
X9868427Y-4890069D02*
X9898937Y-4920580D01*
X9898937Y-4890069D02*
X9868427Y-4920580D01*
X10004481Y-12665197D02*
X10034991Y-12695707D01*
X10034991Y-12665197D02*
X10004481Y-12695707D01*
X10226938Y-10145925D02*
X10257448Y-10176435D01*
X10257448Y-10145925D02*
X10226938Y-10176435D01*
X10307599Y-11498416D02*
X10338109Y-11528926D01*
X10338109Y-11498416D02*
X10307599Y-11528926D01*
X10340280Y-6056938D02*
X10370791Y-6087448D01*
X10370791Y-6056938D02*
X10340280Y-6087448D01*
X10340280Y-7038031D02*
X10370791Y-7068541D01*
X10370791Y-7038031D02*
X10340280Y-7068541D01*
X10340280Y-8019124D02*
X10370791Y-8049634D01*
X10370791Y-8019124D02*
X10340280Y-8049634D01*
X10340280Y-9000217D02*
X10370791Y-9030727D01*
X10370791Y-9000217D02*
X10340280Y-9030727D01*
X10502217Y-10480643D02*
X10532727Y-10511153D01*
X10532727Y-10480643D02*
X10502217Y-10511153D01*
X10541881Y-10558313D02*
X10572392Y-10588824D01*
X10572392Y-10558313D02*
X10541881Y-10588824D01*
X10849520Y-4890069D02*
X10880030Y-4920580D01*
X10880030Y-4890069D02*
X10849520Y-4920580D01*
X10985574Y-12665184D02*
X11016084Y-12695694D01*
X11016084Y-12665184D02*
X10985574Y-12695694D01*
X11146776Y-10573008D02*
X11177287Y-10603518D01*
X11177287Y-10573008D02*
X11146776Y-10603518D01*
X11242053Y-9507971D02*
X11272563Y-9538482D01*
X11272563Y-9507971D02*
X11242053Y-9538482D01*
X11256443Y-10615024D02*
X11286953Y-10645534D01*
X11286953Y-10615024D02*
X11256443Y-10645534D01*
X11303490Y-9305690D02*
X11334001Y-9336201D01*
X11334001Y-9305690D02*
X11303490Y-9336201D01*
X11379205Y-5890246D02*
X11409715Y-5920756D01*
X11409715Y-5890246D02*
X11379205Y-5920756D01*
X11388298Y-7373287D02*
X11418808Y-7403797D01*
X11418808Y-7373287D02*
X11388298Y-7403797D01*
X11405343Y-11564477D02*
X11435853Y-11594987D01*
X11435853Y-11564477D02*
X11405343Y-11594987D01*
X11966667Y-12665171D02*
X11997177Y-12695681D01*
X11997177Y-12665171D02*
X11966667Y-12695681D01*
X11973047Y-9849309D02*
X12003558Y-9879819D01*
X12003558Y-9849309D02*
X11973047Y-9879819D01*
X12064746Y-8764356D02*
X12095256Y-8794866D01*
X12095256Y-8764356D02*
X12064746Y-8794866D01*
X12138331Y-10259163D02*
X12168842Y-10289674D01*
X12168842Y-10259163D02*
X12138331Y-10289674D01*
X12280613Y-8540069D02*
X12311123Y-8570580D01*
X12311123Y-8540069D02*
X12280613Y-8570580D01*
X12360298Y-5890246D02*
X12390808Y-5920756D01*
X12390808Y-5890246D02*
X12360298Y-5920756D01*
X12758483Y-8070618D02*
X12788994Y-8101128D01*
X12788994Y-8070618D02*
X12758483Y-8101128D01*
X12760738Y-10919557D02*
X12791249Y-10950067D01*
X12791249Y-10919557D02*
X12760738Y-10950067D01*
X12802754Y-11029223D02*
X12833265Y-11059734D01*
X12833265Y-11029223D02*
X12802754Y-11059734D01*
X12947760Y-12665157D02*
X12978270Y-12695668D01*
X12978270Y-12665157D02*
X12947760Y-12695668D01*
X13261706Y-8540069D02*
X13292216Y-8570580D01*
X13292216Y-8540069D02*
X13261706Y-8570580D01*
X13332795Y-10637384D02*
X13363306Y-10667894D01*
X13363306Y-10637384D02*
X13332795Y-10667894D01*
X13341391Y-5890246D02*
X13371901Y-5920756D01*
X13371901Y-5890246D02*
X13341391Y-5920756D01*
X13432285Y-7080868D02*
X13462795Y-7111379D01*
X13462795Y-7080868D02*
X13432285Y-7111379D01*
X13531876Y-5861318D02*
X13562386Y-5891828D01*
X13562386Y-5861318D02*
X13531876Y-5891828D01*
X13593720Y-11586927D02*
X13624231Y-11617437D01*
X13624231Y-11586927D02*
X13593720Y-11617437D01*
X13792799Y-4890069D02*
X13823309Y-4920580D01*
X13823309Y-4890069D02*
X13792799Y-4920580D01*
X13892731Y-9265379D02*
X13923241Y-9295889D01*
X13923241Y-9265379D02*
X13892731Y-9295889D01*
X13893326Y-10434902D02*
X13923836Y-10465412D01*
X13923836Y-10434902D02*
X13893326Y-10465412D01*
X13928853Y-12665144D02*
X13959363Y-12695655D01*
X13959363Y-12665144D02*
X13928853Y-12695655D01*
X13962111Y-5884297D02*
X13992621Y-5914808D01*
X13992621Y-5884297D02*
X13962111Y-5914808D01*
X14269174Y-7557172D02*
X14299685Y-7587683D01*
X14299685Y-7557172D02*
X14269174Y-7587683D01*
X14342200Y-7903057D02*
X14372711Y-7933567D01*
X14372711Y-7903057D02*
X14342200Y-7933567D01*
X14360888Y-7484467D02*
X14391398Y-7514977D01*
X14391398Y-7484467D02*
X14360888Y-7514977D01*
X14365917Y-9822059D02*
X14396427Y-9852570D01*
X14396427Y-9822059D02*
X14365917Y-9852570D01*
X14511129Y-6674243D02*
X14541639Y-6704753D01*
X14541639Y-6674243D02*
X14511129Y-6704753D01*
X14574813Y-11586927D02*
X14605324Y-11617437D01*
X14605324Y-11586927D02*
X14574813Y-11617437D01*
X14733622Y-9649424D02*
X14764133Y-9679934D01*
X14764133Y-9649424D02*
X14733622Y-9679934D01*
X14773892Y-4890069D02*
X14804402Y-4920580D01*
X14804402Y-4890069D02*
X14773892Y-4920580D01*
X14909946Y-12665131D02*
X14940456Y-12695641D01*
X14940456Y-12665131D02*
X14909946Y-12695641D01*
X15056259Y-8665295D02*
X15086770Y-8695805D01*
X15086770Y-8665295D02*
X15056259Y-8695805D01*
X15303082Y-7347454D02*
X15333592Y-7377964D01*
X15333592Y-7347454D02*
X15303082Y-7377964D01*
X15483750Y-6127758D02*
X15514260Y-6158268D01*
X15514260Y-6127758D02*
X15483750Y-6158268D01*
X15548078Y-10040811D02*
X15578589Y-10071321D01*
X15578589Y-10040811D02*
X15548078Y-10071321D01*
X15555906Y-11586927D02*
X15586417Y-11617437D01*
X15586417Y-11586927D02*
X15555906Y-11617437D01*
X15572345Y-10210411D02*
X15602855Y-10240921D01*
X15602855Y-10210411D02*
X15572345Y-10240921D01*
X15754985Y-4890069D02*
X15785495Y-4920580D01*
X15785495Y-4890069D02*
X15754985Y-4920580D01*
X15891039Y-12665118D02*
X15921549Y-12695628D01*
X15921549Y-12665118D02*
X15891039Y-12695628D01*
X16037352Y-8665295D02*
X16067863Y-8695805D01*
X16067863Y-8665295D02*
X16037352Y-8695805D01*
X16203029Y-7675433D02*
X16233539Y-7705943D01*
X16233539Y-7675433D02*
X16203029Y-7705943D01*
X16464843Y-6127758D02*
X16495353Y-6158268D01*
X16495353Y-6127758D02*
X16464843Y-6158268D01*
X16736078Y-4890069D02*
X16766588Y-4920580D01*
X16766588Y-4890069D02*
X16736078Y-4920580D01*
X16760501Y-10187062D02*
X16791011Y-10217572D01*
X16791011Y-10187062D02*
X16760501Y-10217572D01*
X16760501Y-11168155D02*
X16791011Y-11198665D01*
X16791011Y-11168155D02*
X16760501Y-11198665D01*
X16778243Y-9309316D02*
X16808754Y-9339826D01*
X16808754Y-9309316D02*
X16778243Y-9339826D01*
X16837188Y-9113489D02*
X16867698Y-9143999D01*
X16867698Y-9113489D02*
X16837188Y-9143999D01*
X16872132Y-12665105D02*
X16902642Y-12695615D01*
X16902642Y-12665105D02*
X16872132Y-12695615D01*
X16896766Y-6981695D02*
X16927277Y-7012206D01*
X16927277Y-6981695D02*
X16896766Y-7012206D01*
X17267194Y-9546228D02*
X17297704Y-9576738D01*
X17297704Y-9546228D02*
X17267194Y-9576738D01*
X17565935Y-10201922D02*
X17596445Y-10232432D01*
X17596445Y-10201922D02*
X17565935Y-10232432D01*
X17639348Y-10794693D02*
X17669858Y-10825203D01*
X17669858Y-10794693D02*
X17639348Y-10825203D01*
X17674996Y-9675990D02*
X17705507Y-9706501D01*
X17705507Y-9675990D02*
X17674996Y-9706501D01*
X17711750Y-6570074D02*
X17742261Y-6600584D01*
X17742261Y-6570074D02*
X17711750Y-6600584D01*
X17717171Y-4890069D02*
X17747681Y-4920580D01*
X17747681Y-4890069D02*
X17717171Y-4920580D01*
X17742987Y-10004632D02*
X17773497Y-10035142D01*
X17773497Y-10004632D02*
X17742987Y-10035142D01*
X17762751Y-10398104D02*
X17793262Y-10428614D01*
X17793262Y-10398104D02*
X17762751Y-10428614D01*
X17773353Y-11720821D02*
X17803863Y-11751331D01*
X17803863Y-11720821D02*
X17773353Y-11751331D01*
X17828647Y-9842233D02*
X17859157Y-9872744D01*
X17859157Y-9842233D02*
X17828647Y-9872744D01*
X17853225Y-12665091D02*
X17883735Y-12695602D01*
X17883735Y-12665091D02*
X17853225Y-12695602D01*
X18158056Y-9775847D02*
X18188566Y-9806358D01*
X18188566Y-9775847D02*
X18158056Y-9806358D01*
X18293961Y-11860160D02*
X18324471Y-11890671D01*
X18324471Y-11860160D02*
X18293961Y-11890671D01*
X18561832Y-10845129D02*
X18592342Y-10875639D01*
X18592342Y-10845129D02*
X18561832Y-10875639D01*
X18669168Y-10620720D02*
X18699678Y-10651231D01*
X18699678Y-10620720D02*
X18669168Y-10651231D01*
X18698264Y-4890069D02*
X18728774Y-4920580D01*
X18728774Y-4890069D02*
X18698264Y-4920580D01*
X18834318Y-12665078D02*
X18864828Y-12695589D01*
X18864828Y-12665078D02*
X18834318Y-12695589D01*
X18849988Y-10580744D02*
X18880498Y-10611254D01*
X18880498Y-10580744D02*
X18849988Y-10611254D01*
X18916513Y-5802632D02*
X18947024Y-5833142D01*
X18947024Y-5802632D02*
X18916513Y-5833142D01*
X19180072Y-8176766D02*
X19210583Y-8207277D01*
X19210583Y-8176766D02*
X19180072Y-8207277D01*
X19241860Y-7206491D02*
X19272371Y-7237002D01*
X19272371Y-7206491D02*
X19241860Y-7237002D01*
X19665766Y-4979486D02*
X19696277Y-5009996D01*
X19696277Y-4979486D02*
X19665766Y-5009996D01*
X19783085Y-12507033D02*
X19813596Y-12537544D01*
X19813596Y-12507033D02*
X19783085Y-12537544D01*
X20165086Y-5766258D02*
X20195596Y-5796768D01*
X20195596Y-5766258D02*
X20165086Y-5796768D01*
X20165207Y-6747345D02*
X20195717Y-6777856D01*
X20195717Y-6747345D02*
X20165207Y-6777856D01*
X20165207Y-7728438D02*
X20195717Y-7758949D01*
X20195717Y-7728438D02*
X20165207Y-7758949D01*
X20165207Y-8709531D02*
X20195717Y-8740042D01*
X20195717Y-8709531D02*
X20165207Y-8740042D01*
X20165207Y-9690624D02*
X20195717Y-9721135D01*
X20195717Y-9690624D02*
X20165207Y-9721135D01*
X20165207Y-10671717D02*
X20195717Y-10702228D01*
X20195717Y-10671717D02*
X20165207Y-10702228D01*
X20165207Y-11652810D02*
X20195717Y-11683321D01*
X20195717Y-11652810D02*
X20165207Y-11683321D01*
X10199378Y-11080143D02*
G75*
G02*
X10119378Y-11080143I-40000J0D01*
G01*
X10119378Y-11080143D02*
G75*
G02*
X10199378Y-11080143I40000J0D01*
G01*
X10199378Y-11480143D02*
G75*
G02*
X10119378Y-11480143I-40000J0D01*
G01*
X10119378Y-11480143D02*
G75*
G02*
X10199378Y-11480143I40000J0D01*
G01*
X10199378Y-11885143D02*
G75*
G02*
X10119378Y-11885143I-40000J0D01*
G01*
X10119378Y-11885143D02*
G75*
G02*
X10199378Y-11885143I40000J0D01*
G01*
X10199378Y-12290143D02*
G75*
G02*
X10119378Y-12290143I-40000J0D01*
G01*
X10119378Y-12290143D02*
G75*
G02*
X10199378Y-12290143I40000J0D01*
G01*
X10961378Y-11080143D02*
G75*
G02*
X10881378Y-11080143I-40000J0D01*
G01*
X10881378Y-11080143D02*
G75*
G02*
X10961378Y-11080143I40000J0D01*
G01*
X10961378Y-11480143D02*
G75*
G02*
X10881378Y-11480143I-40000J0D01*
G01*
X10881378Y-11480143D02*
G75*
G02*
X10961378Y-11480143I40000J0D01*
G01*
X10961378Y-11885143D02*
G75*
G02*
X10881378Y-11885143I-40000J0D01*
G01*
X10881378Y-11885143D02*
G75*
G02*
X10961378Y-11885143I40000J0D01*
G01*
X10961378Y-12290143D02*
G75*
G02*
X10881378Y-12290143I-40000J0D01*
G01*
X10881378Y-12290143D02*
G75*
G02*
X10961378Y-12290143I40000J0D01*
G01*
X13900378Y-8780143D02*
G75*
G02*
X13820378Y-8780143I-40000J0D01*
G01*
X13820378Y-8780143D02*
G75*
G02*
X13900378Y-8780143I40000J0D01*
G01*
X13901378Y-9120143D02*
G75*
G02*
X13821378Y-9120143I-40000J0D01*
G01*
X13821378Y-9120143D02*
G75*
G02*
X13901378Y-9120143I40000J0D01*
G01*
X14662378Y-8780143D02*
G75*
G02*
X14582378Y-8780143I-40000J0D01*
G01*
X14582378Y-8780143D02*
G75*
G02*
X14662378Y-8780143I40000J0D01*
G01*
X14663378Y-9120143D02*
G75*
G02*
X14583378Y-9120143I-40000J0D01*
G01*
X14583378Y-9120143D02*
G75*
G02*
X14663378Y-9120143I40000J0D01*
G01*
X17420378Y-11075143D02*
G75*
G02*
X17340378Y-11075143I-40000J0D01*
G01*
X17340378Y-11075143D02*
G75*
G02*
X17420378Y-11075143I40000J0D01*
G01*
X17420378Y-11480143D02*
G75*
G02*
X17340378Y-11480143I-40000J0D01*
G01*
X17340378Y-11480143D02*
G75*
G02*
X17420378Y-11480143I40000J0D01*
G01*
X17420378Y-11885143D02*
G75*
G02*
X17340378Y-11885143I-40000J0D01*
G01*
X17340378Y-11885143D02*
G75*
G02*
X17420378Y-11885143I40000J0D01*
G01*
X17420378Y-12290143D02*
G75*
G02*
X17340378Y-12290143I-40000J0D01*
G01*
X17340378Y-12290143D02*
G75*
G02*
X17420378Y-12290143I40000J0D01*
G01*
X18182378Y-11075143D02*
G75*
G02*
X18102378Y-11075143I-40000J0D01*
G01*
X18102378Y-11075143D02*
G75*
G02*
X18182378Y-11075143I40000J0D01*
G01*
X18182378Y-11480143D02*
G75*
G02*
X18102378Y-11480143I-40000J0D01*
G01*
X18102378Y-11480143D02*
G75*
G02*
X18182378Y-11480143I40000J0D01*
G01*
X18182378Y-11885143D02*
G75*
G02*
X18102378Y-11885143I-40000J0D01*
G01*
X18102378Y-11885143D02*
G75*
G02*
X18182378Y-11885143I40000J0D01*
G01*
X18182378Y-12290143D02*
G75*
G02*
X18102378Y-12290143I-40000J0D01*
G01*
X18102378Y-12290143D02*
G75*
G02*
X18182378Y-12290143I40000J0D01*
G01*
D13*
X12589878Y-9476393D02*
X12589878Y-9578393D01*
X12538878Y-9527393D02*
X12640878Y-9527393D01*
X12589878Y-12016393D02*
X12589878Y-12118393D01*
X12538878Y-12067393D02*
X12640878Y-12067393D01*
X12843878Y-9476393D02*
X12843878Y-9578393D01*
X12792878Y-9527393D02*
X12894878Y-9527393D01*
X12843878Y-12016393D02*
X12843878Y-12118393D01*
X12792878Y-12067393D02*
X12894878Y-12067393D01*
X13097878Y-9476393D02*
X13097878Y-9578393D01*
X13046878Y-9527393D02*
X13148878Y-9527393D01*
X13097878Y-12016393D02*
X13097878Y-12118393D01*
X13046878Y-12067393D02*
X13148878Y-12067393D01*
X13351878Y-9476393D02*
X13351878Y-9578393D01*
X13300878Y-9527393D02*
X13402878Y-9527393D01*
X13351878Y-12016393D02*
X13351878Y-12118393D01*
X13300878Y-12067393D02*
X13402878Y-12067393D01*
X13605878Y-9476393D02*
X13605878Y-9578393D01*
X13554878Y-9527393D02*
X13656878Y-9527393D01*
X13605878Y-12016393D02*
X13605878Y-12118393D01*
X13554878Y-12067393D02*
X13656878Y-12067393D01*
X13859878Y-9476393D02*
X13859878Y-9578393D01*
X13808878Y-9527393D02*
X13910878Y-9527393D01*
X13859878Y-12016393D02*
X13859878Y-12118393D01*
X13808878Y-12067393D02*
X13910878Y-12067393D01*
X14113878Y-9476393D02*
X14113878Y-9578393D01*
X14062878Y-9527393D02*
X14164878Y-9527393D01*
X14113878Y-12016393D02*
X14113878Y-12118393D01*
X14062878Y-12067393D02*
X14164878Y-12067393D01*
X14367878Y-9476393D02*
X14367878Y-9578393D01*
X14316878Y-9527393D02*
X14418878Y-9527393D01*
X14367878Y-12016393D02*
X14367878Y-12118393D01*
X14316878Y-12067393D02*
X14418878Y-12067393D01*
X14621878Y-9476393D02*
X14621878Y-9578393D01*
X14570878Y-9527393D02*
X14672878Y-9527393D01*
X14621878Y-12016393D02*
X14621878Y-12118393D01*
X14570878Y-12067393D02*
X14672878Y-12067393D01*
X14875878Y-9476393D02*
X14875878Y-9578393D01*
X14824878Y-9527393D02*
X14926878Y-9527393D01*
X14875878Y-12016393D02*
X14875878Y-12118393D01*
X14824878Y-12067393D02*
X14926878Y-12067393D01*
X15129878Y-9476393D02*
X15129878Y-9578393D01*
X15078878Y-9527393D02*
X15180878Y-9527393D01*
X15129878Y-12016393D02*
X15129878Y-12118393D01*
X15078878Y-12067393D02*
X15180878Y-12067393D01*
X15383878Y-9476393D02*
X15383878Y-9578393D01*
X15332878Y-9527393D02*
X15434878Y-9527393D01*
X15383878Y-12016393D02*
X15383878Y-12118393D01*
X15332878Y-12067393D02*
X15434878Y-12067393D01*
X15637878Y-9476393D02*
X15637878Y-9578393D01*
X15586878Y-9527393D02*
X15688878Y-9527393D01*
X15637878Y-12016393D02*
X15637878Y-12118393D01*
X15586878Y-12067393D02*
X15688878Y-12067393D01*
X15891878Y-9476393D02*
X15891878Y-9578393D01*
X15840878Y-9527393D02*
X15942878Y-9527393D01*
X15891878Y-12016393D02*
X15891878Y-12118393D01*
X15840878Y-12067393D02*
X15942878Y-12067393D01*
X16145878Y-9476393D02*
X16145878Y-9578393D01*
X16094878Y-9527393D02*
X16196878Y-9527393D01*
X16145878Y-12016393D02*
X16145878Y-12118393D01*
X16094878Y-12067393D02*
X16196878Y-12067393D01*
D14*
X10710269Y-5681034D02*
X10710269Y-5603252D01*
X10632486Y-5603252D01*
X10632486Y-5681034D01*
X10710269Y-5681034D01*
X10710269Y-5935034D02*
X10710269Y-5857252D01*
X10632486Y-5857252D01*
X10632486Y-5935034D01*
X10710269Y-5935034D01*
X10710269Y-6189034D02*
X10710269Y-6111252D01*
X10632486Y-6111252D01*
X10632486Y-6189034D01*
X10710269Y-6189034D01*
X17960269Y-5681034D02*
X17960269Y-5603252D01*
X17882486Y-5603252D01*
X17882486Y-5681034D01*
X17960269Y-5681034D01*
X17960269Y-5935034D02*
X17960269Y-5857252D01*
X17882486Y-5857252D01*
X17882486Y-5935034D01*
X17960269Y-5935034D01*
X17960269Y-6189034D02*
X17960269Y-6111252D01*
X17882486Y-6111252D01*
X17882486Y-6189034D01*
X17960269Y-6189034D01*
D15*
X11609413Y-7558867D02*
X11669413Y-7498867D01*
X11609413Y-7438867D01*
X11549413Y-7498867D01*
X11609413Y-7558867D01*
X11609413Y-8308867D02*
X11669413Y-8248867D01*
X11609413Y-8188867D01*
X11549413Y-8248867D01*
X11609413Y-8308867D01*
X13364413Y-7558867D02*
X13424413Y-7498867D01*
X13364413Y-7438867D01*
X13304413Y-7498867D01*
X13364413Y-7558867D01*
X13364413Y-8308867D02*
X13424413Y-8248867D01*
X13364413Y-8188867D01*
X13304413Y-8248867D01*
X13364413Y-8308867D01*
X15119413Y-7558867D02*
X15179413Y-7498867D01*
X15119413Y-7438867D01*
X15059413Y-7498867D01*
X15119413Y-7558867D01*
X15119413Y-8308867D02*
X15179413Y-8248867D01*
X15119413Y-8188867D01*
X15059413Y-8248867D01*
X15119413Y-8308867D01*
X16874413Y-7558867D02*
X16934413Y-7498867D01*
X16874413Y-7438867D01*
X16814413Y-7498867D01*
X16874413Y-7558867D01*
X16874413Y-8308867D02*
X16934413Y-8248867D01*
X16874413Y-8188867D01*
X16814413Y-8248867D01*
X16874413Y-8308867D01*
D16*
X8759128Y-9235143D02*
X8889128Y-9365143D01*
X8889128Y-9235143D02*
X8759128Y-9365143D01*
X8889128Y-9300143D02*
G75*
G02*
X8759128Y-9300143I-65000J0D01*
G01*
X8759128Y-9300143D02*
G75*
G02*
X8889128Y-9300143I65000J0D01*
G01*
X8759128Y-9735143D02*
X8889128Y-9865143D01*
X8889128Y-9735143D02*
X8759128Y-9865143D01*
X8889128Y-9800143D02*
G75*
G02*
X8759128Y-9800143I-65000J0D01*
G01*
X8759128Y-9800143D02*
G75*
G02*
X8889128Y-9800143I65000J0D01*
G01*
X8759128Y-10335143D02*
X8889128Y-10465143D01*
X8889128Y-10335143D02*
X8759128Y-10465143D01*
X8889128Y-10400143D02*
G75*
G02*
X8759128Y-10400143I-65000J0D01*
G01*
X8759128Y-10400143D02*
G75*
G02*
X8889128Y-10400143I65000J0D01*
G01*
X8759128Y-10835143D02*
X8889128Y-10965143D01*
X8889128Y-10835143D02*
X8759128Y-10965143D01*
X8889128Y-10900143D02*
G75*
G02*
X8759128Y-10900143I-65000J0D01*
G01*
X8759128Y-10900143D02*
G75*
G02*
X8889128Y-10900143I65000J0D01*
G01*
X13081378Y-6385143D02*
X13211378Y-6515143D01*
X13211378Y-6385143D02*
X13081378Y-6515143D01*
X13211378Y-6450143D02*
G75*
G02*
X13081378Y-6450143I-65000J0D01*
G01*
X13081378Y-6450143D02*
G75*
G02*
X13211378Y-6450143I65000J0D01*
G01*
X13356378Y-5330143D02*
X13486378Y-5460143D01*
X13486378Y-5330143D02*
X13356378Y-5460143D01*
X13486378Y-5395143D02*
G75*
G02*
X13356378Y-5395143I-65000J0D01*
G01*
X13356378Y-5395143D02*
G75*
G02*
X13486378Y-5395143I65000J0D01*
G01*
X13856378Y-5330143D02*
X13986378Y-5460143D01*
X13986378Y-5330143D02*
X13856378Y-5460143D01*
X13986378Y-5395143D02*
G75*
G02*
X13856378Y-5395143I-65000J0D01*
G01*
X13856378Y-5395143D02*
G75*
G02*
X13986378Y-5395143I65000J0D01*
G01*
X14551378Y-5325143D02*
X14681378Y-5455143D01*
X14681378Y-5325143D02*
X14551378Y-5455143D01*
X14681378Y-5390143D02*
G75*
G02*
X14551378Y-5390143I-65000J0D01*
G01*
X14551378Y-5390143D02*
G75*
G02*
X14681378Y-5390143I65000J0D01*
G01*
X15051378Y-5325143D02*
X15181378Y-5455143D01*
X15181378Y-5325143D02*
X15051378Y-5455143D01*
X15181378Y-5390143D02*
G75*
G02*
X15051378Y-5390143I-65000J0D01*
G01*
X15051378Y-5390143D02*
G75*
G02*
X15181378Y-5390143I65000J0D01*
G01*
X15331378Y-6385143D02*
X15461378Y-6515143D01*
X15461378Y-6385143D02*
X15331378Y-6515143D01*
X15461378Y-6450143D02*
G75*
G02*
X15331378Y-6450143I-65000J0D01*
G01*
X15331378Y-6450143D02*
G75*
G02*
X15461378Y-6450143I65000J0D01*
G01*
X19626378Y-9225143D02*
X19756378Y-9355143D01*
X19756378Y-9225143D02*
X19626378Y-9355143D01*
X19756378Y-9290143D02*
G75*
G02*
X19626378Y-9290143I-65000J0D01*
G01*
X19626378Y-9290143D02*
G75*
G02*
X19756378Y-9290143I65000J0D01*
G01*
X19626378Y-9725143D02*
X19756378Y-9855143D01*
X19756378Y-9725143D02*
X19626378Y-9855143D01*
X19756378Y-9790143D02*
G75*
G02*
X19626378Y-9790143I-65000J0D01*
G01*
X19626378Y-9790143D02*
G75*
G02*
X19756378Y-9790143I65000J0D01*
G01*
X19626378Y-10325143D02*
X19756378Y-10455143D01*
X19756378Y-10325143D02*
X19626378Y-10455143D01*
X19756378Y-10390143D02*
G75*
G02*
X19626378Y-10390143I-65000J0D01*
G01*
X19626378Y-10390143D02*
G75*
G02*
X19756378Y-10390143I65000J0D01*
G01*
X19626378Y-10825143D02*
X19756378Y-10955143D01*
X19756378Y-10825143D02*
X19626378Y-10955143D01*
X19756378Y-10890143D02*
G75*
G02*
X19626378Y-10890143I-65000J0D01*
G01*
X19626378Y-10890143D02*
G75*
G02*
X19756378Y-10890143I65000J0D01*
G01*
D17*
X11306528Y-6330293D02*
X11446228Y-6469993D01*
X11446228Y-6330293D02*
X11306528Y-6469993D01*
X11376378Y-6330293D02*
X11376378Y-6469993D01*
X11306528Y-6400143D02*
X11446228Y-6400143D01*
X11851528Y-6330293D02*
X11991228Y-6469993D01*
X11991228Y-6330293D02*
X11851528Y-6469993D01*
X11921378Y-6330293D02*
X11921378Y-6469993D01*
X11851528Y-6400143D02*
X11991228Y-6400143D01*
X12396527Y-6330293D02*
X12536227Y-6469993D01*
X12536227Y-6330293D02*
X12396527Y-6469993D01*
X12466377Y-6330293D02*
X12466377Y-6469993D01*
X12396527Y-6400143D02*
X12536227Y-6400143D01*
X16011528Y-6330293D02*
X16151228Y-6469993D01*
X16151228Y-6330293D02*
X16011528Y-6469993D01*
X16081378Y-6330293D02*
X16081378Y-6469993D01*
X16011528Y-6400143D02*
X16151228Y-6400143D01*
X16556528Y-6330293D02*
X16696228Y-6469993D01*
X16696228Y-6330293D02*
X16556528Y-6469993D01*
X16626378Y-6330293D02*
X16626378Y-6469993D01*
X16556528Y-6400143D02*
X16696228Y-6400143D01*
X17101528Y-6330293D02*
X17241228Y-6469993D01*
X17241228Y-6330293D02*
X17101528Y-6469993D01*
X17171378Y-6330293D02*
X17171378Y-6469993D01*
X17101528Y-6400143D02*
X17241228Y-6400143D01*
D11*
X9461378Y-6890143D02*
X9661378Y-7090143D01*
X9661378Y-6890143D02*
X9461378Y-7090143D01*
X9632089Y-7060854D02*
X9632089Y-6919431D01*
X9490666Y-6919431D01*
X9490666Y-7060854D01*
X9632089Y-7060854D01*
X9461378Y-7840143D02*
X9661378Y-8040143D01*
X9661378Y-7840143D02*
X9461378Y-8040143D01*
X9632089Y-8010854D02*
X9632089Y-7869431D01*
X9490666Y-7869431D01*
X9490666Y-8010854D01*
X9632089Y-8010854D01*
X18891378Y-6890143D02*
X19091378Y-7090143D01*
X19091378Y-6890143D02*
X18891378Y-7090143D01*
X19062089Y-7060854D02*
X19062089Y-6919431D01*
X18920666Y-6919431D01*
X18920666Y-7060854D01*
X19062089Y-7060854D01*
X18891378Y-7840143D02*
X19091378Y-8040143D01*
X19091378Y-7840143D02*
X18891378Y-8040143D01*
X19062089Y-8010854D02*
X19062089Y-7869431D01*
X18920666Y-7869431D01*
X18920666Y-8010854D01*
X19062089Y-8010854D01*
X8551170Y-13106877D02*
X8551170Y-12906877D01*
X8551170Y-12906877D02*
X8598789Y-12906877D01*
X8598789Y-12906877D02*
X8627361Y-12916401D01*
X8627361Y-12916401D02*
X8646408Y-12935448D01*
X8646408Y-12935448D02*
X8655932Y-12954496D01*
X8655932Y-12954496D02*
X8665456Y-12992591D01*
X8665456Y-12992591D02*
X8665456Y-13021163D01*
X8665456Y-13021163D02*
X8655932Y-13059258D01*
X8655932Y-13059258D02*
X8646408Y-13078305D01*
X8646408Y-13078305D02*
X8627361Y-13097353D01*
X8627361Y-13097353D02*
X8598789Y-13106877D01*
X8598789Y-13106877D02*
X8551170Y-13106877D01*
X8751170Y-13106877D02*
X8751170Y-12973544D01*
X8751170Y-13011639D02*
X8760694Y-12992591D01*
X8760694Y-12992591D02*
X8770218Y-12983067D01*
X8770218Y-12983067D02*
X8789265Y-12973544D01*
X8789265Y-12973544D02*
X8808313Y-12973544D01*
X8874980Y-13106877D02*
X8874980Y-12973544D01*
X8874980Y-12906877D02*
X8865456Y-12916401D01*
X8865456Y-12916401D02*
X8874980Y-12925925D01*
X8874980Y-12925925D02*
X8884503Y-12916401D01*
X8884503Y-12916401D02*
X8874980Y-12906877D01*
X8874980Y-12906877D02*
X8874980Y-12925925D01*
X8998789Y-13106877D02*
X8979741Y-13097353D01*
X8979741Y-13097353D02*
X8970218Y-13078305D01*
X8970218Y-13078305D02*
X8970218Y-12906877D01*
X9103551Y-13106877D02*
X9084503Y-13097353D01*
X9084503Y-13097353D02*
X9074980Y-13078305D01*
X9074980Y-13078305D02*
X9074980Y-12906877D01*
X9332122Y-13106877D02*
X9332122Y-12906877D01*
X9332122Y-12906877D02*
X9398789Y-13049734D01*
X9398789Y-13049734D02*
X9465456Y-12906877D01*
X9465456Y-12906877D02*
X9465456Y-13106877D01*
X9646408Y-13106877D02*
X9646408Y-13002115D01*
X9646408Y-13002115D02*
X9636884Y-12983067D01*
X9636884Y-12983067D02*
X9617837Y-12973544D01*
X9617837Y-12973544D02*
X9579741Y-12973544D01*
X9579741Y-12973544D02*
X9560694Y-12983067D01*
X9646408Y-13097353D02*
X9627361Y-13106877D01*
X9627361Y-13106877D02*
X9579741Y-13106877D01*
X9579741Y-13106877D02*
X9560694Y-13097353D01*
X9560694Y-13097353D02*
X9551170Y-13078305D01*
X9551170Y-13078305D02*
X9551170Y-13059258D01*
X9551170Y-13059258D02*
X9560694Y-13040210D01*
X9560694Y-13040210D02*
X9579741Y-13030686D01*
X9579741Y-13030686D02*
X9627361Y-13030686D01*
X9627361Y-13030686D02*
X9646408Y-13021163D01*
X9741646Y-12973544D02*
X9741646Y-13173544D01*
X9741646Y-12983067D02*
X9760694Y-12973544D01*
X9760694Y-12973544D02*
X9798789Y-12973544D01*
X9798789Y-12973544D02*
X9817837Y-12983067D01*
X9817837Y-12983067D02*
X9827361Y-12992591D01*
X9827361Y-12992591D02*
X9836884Y-13011639D01*
X9836884Y-13011639D02*
X9836884Y-13068782D01*
X9836884Y-13068782D02*
X9827361Y-13087829D01*
X9827361Y-13087829D02*
X9817837Y-13097353D01*
X9817837Y-13097353D02*
X9798789Y-13106877D01*
X9798789Y-13106877D02*
X9760694Y-13106877D01*
X9760694Y-13106877D02*
X9741646Y-13097353D01*
X9922599Y-13087829D02*
X9932122Y-13097353D01*
X9932122Y-13097353D02*
X9922599Y-13106877D01*
X9922599Y-13106877D02*
X9913075Y-13097353D01*
X9913075Y-13097353D02*
X9922599Y-13087829D01*
X9922599Y-13087829D02*
X9922599Y-13106877D01*
X9922599Y-12983067D02*
X9932122Y-12992591D01*
X9932122Y-12992591D02*
X9922599Y-13002115D01*
X9922599Y-13002115D02*
X9913075Y-12992591D01*
X9913075Y-12992591D02*
X9922599Y-12983067D01*
X9922599Y-12983067D02*
X9922599Y-13002115D01*
D12*
X8259883Y-13420138D02*
X8290393Y-13450648D01*
X8290393Y-13420138D02*
X8259883Y-13450648D01*
D11*
X8589265Y-13326877D02*
X8608313Y-13326877D01*
X8608313Y-13326877D02*
X8627361Y-13336401D01*
X8627361Y-13336401D02*
X8636884Y-13345925D01*
X8636884Y-13345925D02*
X8646408Y-13364972D01*
X8646408Y-13364972D02*
X8655932Y-13403067D01*
X8655932Y-13403067D02*
X8655932Y-13450686D01*
X8655932Y-13450686D02*
X8646408Y-13488782D01*
X8646408Y-13488782D02*
X8636884Y-13507829D01*
X8636884Y-13507829D02*
X8627361Y-13517353D01*
X8627361Y-13517353D02*
X8608313Y-13526877D01*
X8608313Y-13526877D02*
X8589265Y-13526877D01*
X8589265Y-13526877D02*
X8570218Y-13517353D01*
X8570218Y-13517353D02*
X8560694Y-13507829D01*
X8560694Y-13507829D02*
X8551170Y-13488782D01*
X8551170Y-13488782D02*
X8541646Y-13450686D01*
X8541646Y-13450686D02*
X8541646Y-13403067D01*
X8541646Y-13403067D02*
X8551170Y-13364972D01*
X8551170Y-13364972D02*
X8560694Y-13345925D01*
X8560694Y-13345925D02*
X8570218Y-13336401D01*
X8570218Y-13336401D02*
X8589265Y-13326877D01*
X8741646Y-13507829D02*
X8751170Y-13517353D01*
X8751170Y-13517353D02*
X8741646Y-13526877D01*
X8741646Y-13526877D02*
X8732122Y-13517353D01*
X8732122Y-13517353D02*
X8741646Y-13507829D01*
X8741646Y-13507829D02*
X8741646Y-13526877D01*
X8817837Y-13326877D02*
X8941646Y-13326877D01*
X8941646Y-13326877D02*
X8874980Y-13403067D01*
X8874980Y-13403067D02*
X8903551Y-13403067D01*
X8903551Y-13403067D02*
X8922599Y-13412591D01*
X8922599Y-13412591D02*
X8932122Y-13422115D01*
X8932122Y-13422115D02*
X8941646Y-13441163D01*
X8941646Y-13441163D02*
X8941646Y-13488782D01*
X8941646Y-13488782D02*
X8932122Y-13507829D01*
X8932122Y-13507829D02*
X8922599Y-13517353D01*
X8922599Y-13517353D02*
X8903551Y-13526877D01*
X8903551Y-13526877D02*
X8846408Y-13526877D01*
X8846408Y-13526877D02*
X8827361Y-13517353D01*
X8827361Y-13517353D02*
X8817837Y-13507829D01*
X9065456Y-13326877D02*
X9084503Y-13326877D01*
X9084503Y-13326877D02*
X9103551Y-13336401D01*
X9103551Y-13336401D02*
X9113075Y-13345925D01*
X9113075Y-13345925D02*
X9122599Y-13364972D01*
X9122599Y-13364972D02*
X9132122Y-13403067D01*
X9132122Y-13403067D02*
X9132122Y-13450686D01*
X9132122Y-13450686D02*
X9122599Y-13488782D01*
X9122599Y-13488782D02*
X9113075Y-13507829D01*
X9113075Y-13507829D02*
X9103551Y-13517353D01*
X9103551Y-13517353D02*
X9084503Y-13526877D01*
X9084503Y-13526877D02*
X9065456Y-13526877D01*
X9065456Y-13526877D02*
X9046408Y-13517353D01*
X9046408Y-13517353D02*
X9036884Y-13507829D01*
X9036884Y-13507829D02*
X9027361Y-13488782D01*
X9027361Y-13488782D02*
X9017837Y-13450686D01*
X9017837Y-13450686D02*
X9017837Y-13403067D01*
X9017837Y-13403067D02*
X9027361Y-13364972D01*
X9027361Y-13364972D02*
X9036884Y-13345925D01*
X9036884Y-13345925D02*
X9046408Y-13336401D01*
X9046408Y-13336401D02*
X9065456Y-13326877D01*
X9313075Y-13326877D02*
X9217837Y-13326877D01*
X9217837Y-13326877D02*
X9208313Y-13422115D01*
X9208313Y-13422115D02*
X9217837Y-13412591D01*
X9217837Y-13412591D02*
X9236884Y-13403067D01*
X9236884Y-13403067D02*
X9284503Y-13403067D01*
X9284503Y-13403067D02*
X9303551Y-13412591D01*
X9303551Y-13412591D02*
X9313075Y-13422115D01*
X9313075Y-13422115D02*
X9322599Y-13441163D01*
X9322599Y-13441163D02*
X9322599Y-13488782D01*
X9322599Y-13488782D02*
X9313075Y-13507829D01*
X9313075Y-13507829D02*
X9303551Y-13517353D01*
X9303551Y-13517353D02*
X9284503Y-13526877D01*
X9284503Y-13526877D02*
X9236884Y-13526877D01*
X9236884Y-13526877D02*
X9217837Y-13517353D01*
X9217837Y-13517353D02*
X9208313Y-13507829D01*
X9408313Y-13526877D02*
X9408313Y-13393544D01*
X9408313Y-13412591D02*
X9417837Y-13403067D01*
X9417837Y-13403067D02*
X9436884Y-13393544D01*
X9436884Y-13393544D02*
X9465456Y-13393544D01*
X9465456Y-13393544D02*
X9484503Y-13403067D01*
X9484503Y-13403067D02*
X9494027Y-13422115D01*
X9494027Y-13422115D02*
X9494027Y-13526877D01*
X9494027Y-13422115D02*
X9503551Y-13403067D01*
X9503551Y-13403067D02*
X9522599Y-13393544D01*
X9522599Y-13393544D02*
X9551170Y-13393544D01*
X9551170Y-13393544D02*
X9570218Y-13403067D01*
X9570218Y-13403067D02*
X9579742Y-13422115D01*
X9579742Y-13422115D02*
X9579742Y-13526877D01*
X9674980Y-13526877D02*
X9674980Y-13393544D01*
X9674980Y-13412591D02*
X9684503Y-13403067D01*
X9684503Y-13403067D02*
X9703551Y-13393544D01*
X9703551Y-13393544D02*
X9732123Y-13393544D01*
X9732123Y-13393544D02*
X9751170Y-13403067D01*
X9751170Y-13403067D02*
X9760694Y-13422115D01*
X9760694Y-13422115D02*
X9760694Y-13526877D01*
X9760694Y-13422115D02*
X9770218Y-13403067D01*
X9770218Y-13403067D02*
X9789265Y-13393544D01*
X9789265Y-13393544D02*
X9817837Y-13393544D01*
X9817837Y-13393544D02*
X9836884Y-13403067D01*
X9836884Y-13403067D02*
X9846408Y-13422115D01*
X9846408Y-13422115D02*
X9846408Y-13526877D01*
X10236884Y-13317353D02*
X10065456Y-13574496D01*
X10494027Y-13326877D02*
X10513075Y-13326877D01*
X10513075Y-13326877D02*
X10532123Y-13336401D01*
X10532123Y-13336401D02*
X10541646Y-13345925D01*
X10541646Y-13345925D02*
X10551170Y-13364972D01*
X10551170Y-13364972D02*
X10560694Y-13403067D01*
X10560694Y-13403067D02*
X10560694Y-13450686D01*
X10560694Y-13450686D02*
X10551170Y-13488782D01*
X10551170Y-13488782D02*
X10541646Y-13507829D01*
X10541646Y-13507829D02*
X10532123Y-13517353D01*
X10532123Y-13517353D02*
X10513075Y-13526877D01*
X10513075Y-13526877D02*
X10494027Y-13526877D01*
X10494027Y-13526877D02*
X10474980Y-13517353D01*
X10474980Y-13517353D02*
X10465456Y-13507829D01*
X10465456Y-13507829D02*
X10455932Y-13488782D01*
X10455932Y-13488782D02*
X10446408Y-13450686D01*
X10446408Y-13450686D02*
X10446408Y-13403067D01*
X10446408Y-13403067D02*
X10455932Y-13364972D01*
X10455932Y-13364972D02*
X10465456Y-13345925D01*
X10465456Y-13345925D02*
X10474980Y-13336401D01*
X10474980Y-13336401D02*
X10494027Y-13326877D01*
X10646408Y-13507829D02*
X10655932Y-13517353D01*
X10655932Y-13517353D02*
X10646408Y-13526877D01*
X10646408Y-13526877D02*
X10636885Y-13517353D01*
X10636885Y-13517353D02*
X10646408Y-13507829D01*
X10646408Y-13507829D02*
X10646408Y-13526877D01*
X10779742Y-13326877D02*
X10798789Y-13326877D01*
X10798789Y-13326877D02*
X10817837Y-13336401D01*
X10817837Y-13336401D02*
X10827361Y-13345925D01*
X10827361Y-13345925D02*
X10836885Y-13364972D01*
X10836885Y-13364972D02*
X10846408Y-13403067D01*
X10846408Y-13403067D02*
X10846408Y-13450686D01*
X10846408Y-13450686D02*
X10836885Y-13488782D01*
X10836885Y-13488782D02*
X10827361Y-13507829D01*
X10827361Y-13507829D02*
X10817837Y-13517353D01*
X10817837Y-13517353D02*
X10798789Y-13526877D01*
X10798789Y-13526877D02*
X10779742Y-13526877D01*
X10779742Y-13526877D02*
X10760694Y-13517353D01*
X10760694Y-13517353D02*
X10751170Y-13507829D01*
X10751170Y-13507829D02*
X10741646Y-13488782D01*
X10741646Y-13488782D02*
X10732123Y-13450686D01*
X10732123Y-13450686D02*
X10732123Y-13403067D01*
X10732123Y-13403067D02*
X10741646Y-13364972D01*
X10741646Y-13364972D02*
X10751170Y-13345925D01*
X10751170Y-13345925D02*
X10760694Y-13336401D01*
X10760694Y-13336401D02*
X10779742Y-13326877D01*
X11036885Y-13526877D02*
X10922599Y-13526877D01*
X10979742Y-13526877D02*
X10979742Y-13326877D01*
X10979742Y-13326877D02*
X10960694Y-13355448D01*
X10960694Y-13355448D02*
X10941646Y-13374496D01*
X10941646Y-13374496D02*
X10922599Y-13384020D01*
X11113075Y-13345925D02*
X11122599Y-13336401D01*
X11122599Y-13336401D02*
X11141646Y-13326877D01*
X11141646Y-13326877D02*
X11189265Y-13326877D01*
X11189265Y-13326877D02*
X11208313Y-13336401D01*
X11208313Y-13336401D02*
X11217837Y-13345925D01*
X11217837Y-13345925D02*
X11227361Y-13364972D01*
X11227361Y-13364972D02*
X11227361Y-13384020D01*
X11227361Y-13384020D02*
X11217837Y-13412591D01*
X11217837Y-13412591D02*
X11103551Y-13526877D01*
X11103551Y-13526877D02*
X11227361Y-13526877D01*
X11351170Y-13326877D02*
X11370218Y-13326877D01*
X11370218Y-13326877D02*
X11389265Y-13336401D01*
X11389265Y-13336401D02*
X11398789Y-13345925D01*
X11398789Y-13345925D02*
X11408313Y-13364972D01*
X11408313Y-13364972D02*
X11417837Y-13403067D01*
X11417837Y-13403067D02*
X11417837Y-13450686D01*
X11417837Y-13450686D02*
X11408313Y-13488782D01*
X11408313Y-13488782D02*
X11398789Y-13507829D01*
X11398789Y-13507829D02*
X11389265Y-13517353D01*
X11389265Y-13517353D02*
X11370218Y-13526877D01*
X11370218Y-13526877D02*
X11351170Y-13526877D01*
X11351170Y-13526877D02*
X11332123Y-13517353D01*
X11332123Y-13517353D02*
X11322599Y-13507829D01*
X11322599Y-13507829D02*
X11313075Y-13488782D01*
X11313075Y-13488782D02*
X11303551Y-13450686D01*
X11303551Y-13450686D02*
X11303551Y-13403067D01*
X11303551Y-13403067D02*
X11313075Y-13364972D01*
X11313075Y-13364972D02*
X11322599Y-13345925D01*
X11322599Y-13345925D02*
X11332123Y-13336401D01*
X11332123Y-13336401D02*
X11351170Y-13326877D01*
X11494027Y-13326877D02*
X11494027Y-13364972D01*
X11570218Y-13326877D02*
X11570218Y-13364972D01*
X11865456Y-13603067D02*
X11855932Y-13593544D01*
X11855932Y-13593544D02*
X11836885Y-13564972D01*
X11836885Y-13564972D02*
X11827361Y-13545925D01*
X11827361Y-13545925D02*
X11817837Y-13517353D01*
X11817837Y-13517353D02*
X11808313Y-13469734D01*
X11808313Y-13469734D02*
X11808313Y-13431639D01*
X11808313Y-13431639D02*
X11817837Y-13384020D01*
X11817837Y-13384020D02*
X11827361Y-13355448D01*
X11827361Y-13355448D02*
X11836885Y-13336401D01*
X11836885Y-13336401D02*
X11855932Y-13307829D01*
X11855932Y-13307829D02*
X11865456Y-13298305D01*
X12046408Y-13526877D02*
X11932123Y-13526877D01*
X11989265Y-13526877D02*
X11989265Y-13326877D01*
X11989265Y-13326877D02*
X11970218Y-13355448D01*
X11970218Y-13355448D02*
X11951170Y-13374496D01*
X11951170Y-13374496D02*
X11932123Y-13384020D01*
X12170218Y-13326877D02*
X12189266Y-13326877D01*
X12189266Y-13326877D02*
X12208313Y-13336401D01*
X12208313Y-13336401D02*
X12217837Y-13345925D01*
X12217837Y-13345925D02*
X12227361Y-13364972D01*
X12227361Y-13364972D02*
X12236885Y-13403067D01*
X12236885Y-13403067D02*
X12236885Y-13450686D01*
X12236885Y-13450686D02*
X12227361Y-13488782D01*
X12227361Y-13488782D02*
X12217837Y-13507829D01*
X12217837Y-13507829D02*
X12208313Y-13517353D01*
X12208313Y-13517353D02*
X12189266Y-13526877D01*
X12189266Y-13526877D02*
X12170218Y-13526877D01*
X12170218Y-13526877D02*
X12151170Y-13517353D01*
X12151170Y-13517353D02*
X12141646Y-13507829D01*
X12141646Y-13507829D02*
X12132123Y-13488782D01*
X12132123Y-13488782D02*
X12122599Y-13450686D01*
X12122599Y-13450686D02*
X12122599Y-13403067D01*
X12122599Y-13403067D02*
X12132123Y-13364972D01*
X12132123Y-13364972D02*
X12141646Y-13345925D01*
X12141646Y-13345925D02*
X12151170Y-13336401D01*
X12151170Y-13336401D02*
X12170218Y-13326877D01*
X12351170Y-13412591D02*
X12332123Y-13403067D01*
X12332123Y-13403067D02*
X12322599Y-13393544D01*
X12322599Y-13393544D02*
X12313075Y-13374496D01*
X12313075Y-13374496D02*
X12313075Y-13364972D01*
X12313075Y-13364972D02*
X12322599Y-13345925D01*
X12322599Y-13345925D02*
X12332123Y-13336401D01*
X12332123Y-13336401D02*
X12351170Y-13326877D01*
X12351170Y-13326877D02*
X12389266Y-13326877D01*
X12389266Y-13326877D02*
X12408313Y-13336401D01*
X12408313Y-13336401D02*
X12417837Y-13345925D01*
X12417837Y-13345925D02*
X12427361Y-13364972D01*
X12427361Y-13364972D02*
X12427361Y-13374496D01*
X12427361Y-13374496D02*
X12417837Y-13393544D01*
X12417837Y-13393544D02*
X12408313Y-13403067D01*
X12408313Y-13403067D02*
X12389266Y-13412591D01*
X12389266Y-13412591D02*
X12351170Y-13412591D01*
X12351170Y-13412591D02*
X12332123Y-13422115D01*
X12332123Y-13422115D02*
X12322599Y-13431639D01*
X12322599Y-13431639D02*
X12313075Y-13450686D01*
X12313075Y-13450686D02*
X12313075Y-13488782D01*
X12313075Y-13488782D02*
X12322599Y-13507829D01*
X12322599Y-13507829D02*
X12332123Y-13517353D01*
X12332123Y-13517353D02*
X12351170Y-13526877D01*
X12351170Y-13526877D02*
X12389266Y-13526877D01*
X12389266Y-13526877D02*
X12408313Y-13517353D01*
X12408313Y-13517353D02*
X12417837Y-13507829D01*
X12417837Y-13507829D02*
X12427361Y-13488782D01*
X12427361Y-13488782D02*
X12427361Y-13450686D01*
X12427361Y-13450686D02*
X12417837Y-13431639D01*
X12417837Y-13431639D02*
X12408313Y-13422115D01*
X12408313Y-13422115D02*
X12389266Y-13412591D01*
X12665456Y-13526877D02*
X12665456Y-13326877D01*
X12751170Y-13526877D02*
X12751170Y-13422115D01*
X12751170Y-13422115D02*
X12741647Y-13403067D01*
X12741647Y-13403067D02*
X12722599Y-13393544D01*
X12722599Y-13393544D02*
X12694027Y-13393544D01*
X12694027Y-13393544D02*
X12674980Y-13403067D01*
X12674980Y-13403067D02*
X12665456Y-13412591D01*
X12874980Y-13526877D02*
X12855932Y-13517353D01*
X12855932Y-13517353D02*
X12846408Y-13507829D01*
X12846408Y-13507829D02*
X12836885Y-13488782D01*
X12836885Y-13488782D02*
X12836885Y-13431639D01*
X12836885Y-13431639D02*
X12846408Y-13412591D01*
X12846408Y-13412591D02*
X12855932Y-13403067D01*
X12855932Y-13403067D02*
X12874980Y-13393544D01*
X12874980Y-13393544D02*
X12903551Y-13393544D01*
X12903551Y-13393544D02*
X12922599Y-13403067D01*
X12922599Y-13403067D02*
X12932123Y-13412591D01*
X12932123Y-13412591D02*
X12941647Y-13431639D01*
X12941647Y-13431639D02*
X12941647Y-13488782D01*
X12941647Y-13488782D02*
X12932123Y-13507829D01*
X12932123Y-13507829D02*
X12922599Y-13517353D01*
X12922599Y-13517353D02*
X12903551Y-13526877D01*
X12903551Y-13526877D02*
X12874980Y-13526877D01*
X13055932Y-13526877D02*
X13036885Y-13517353D01*
X13036885Y-13517353D02*
X13027361Y-13498305D01*
X13027361Y-13498305D02*
X13027361Y-13326877D01*
X13208313Y-13517353D02*
X13189266Y-13526877D01*
X13189266Y-13526877D02*
X13151170Y-13526877D01*
X13151170Y-13526877D02*
X13132123Y-13517353D01*
X13132123Y-13517353D02*
X13122599Y-13498305D01*
X13122599Y-13498305D02*
X13122599Y-13422115D01*
X13122599Y-13422115D02*
X13132123Y-13403067D01*
X13132123Y-13403067D02*
X13151170Y-13393544D01*
X13151170Y-13393544D02*
X13189266Y-13393544D01*
X13189266Y-13393544D02*
X13208313Y-13403067D01*
X13208313Y-13403067D02*
X13217837Y-13422115D01*
X13217837Y-13422115D02*
X13217837Y-13441163D01*
X13217837Y-13441163D02*
X13122599Y-13460210D01*
X13294028Y-13517353D02*
X13313075Y-13526877D01*
X13313075Y-13526877D02*
X13351170Y-13526877D01*
X13351170Y-13526877D02*
X13370218Y-13517353D01*
X13370218Y-13517353D02*
X13379742Y-13498305D01*
X13379742Y-13498305D02*
X13379742Y-13488782D01*
X13379742Y-13488782D02*
X13370218Y-13469734D01*
X13370218Y-13469734D02*
X13351170Y-13460210D01*
X13351170Y-13460210D02*
X13322599Y-13460210D01*
X13322599Y-13460210D02*
X13303551Y-13450686D01*
X13303551Y-13450686D02*
X13294028Y-13431639D01*
X13294028Y-13431639D02*
X13294028Y-13422115D01*
X13294028Y-13422115D02*
X13303551Y-13403067D01*
X13303551Y-13403067D02*
X13322599Y-13393544D01*
X13322599Y-13393544D02*
X13351170Y-13393544D01*
X13351170Y-13393544D02*
X13370218Y-13403067D01*
X13446409Y-13603067D02*
X13455932Y-13593544D01*
X13455932Y-13593544D02*
X13474980Y-13564972D01*
X13474980Y-13564972D02*
X13484504Y-13545925D01*
X13484504Y-13545925D02*
X13494028Y-13517353D01*
X13494028Y-13517353D02*
X13503551Y-13469734D01*
X13503551Y-13469734D02*
X13503551Y-13431639D01*
X13503551Y-13431639D02*
X13494028Y-13384020D01*
X13494028Y-13384020D02*
X13484504Y-13355448D01*
X13484504Y-13355448D02*
X13474980Y-13336401D01*
X13474980Y-13336401D02*
X13455932Y-13307829D01*
X13455932Y-13307829D02*
X13446409Y-13298305D01*
D12*
X8290393Y-13699393D02*
G75*
G02*
X8210393Y-13699393I-40000J0D01*
G01*
X8210393Y-13699393D02*
G75*
G02*
X8290393Y-13699393I40000J0D01*
G01*
D11*
X8589265Y-13590877D02*
X8608313Y-13590877D01*
X8608313Y-13590877D02*
X8627361Y-13600401D01*
X8627361Y-13600401D02*
X8636884Y-13609925D01*
X8636884Y-13609925D02*
X8646408Y-13628972D01*
X8646408Y-13628972D02*
X8655932Y-13667067D01*
X8655932Y-13667067D02*
X8655932Y-13714686D01*
X8655932Y-13714686D02*
X8646408Y-13752782D01*
X8646408Y-13752782D02*
X8636884Y-13771829D01*
X8636884Y-13771829D02*
X8627361Y-13781353D01*
X8627361Y-13781353D02*
X8608313Y-13790877D01*
X8608313Y-13790877D02*
X8589265Y-13790877D01*
X8589265Y-13790877D02*
X8570218Y-13781353D01*
X8570218Y-13781353D02*
X8560694Y-13771829D01*
X8560694Y-13771829D02*
X8551170Y-13752782D01*
X8551170Y-13752782D02*
X8541646Y-13714686D01*
X8541646Y-13714686D02*
X8541646Y-13667067D01*
X8541646Y-13667067D02*
X8551170Y-13628972D01*
X8551170Y-13628972D02*
X8560694Y-13609925D01*
X8560694Y-13609925D02*
X8570218Y-13600401D01*
X8570218Y-13600401D02*
X8589265Y-13590877D01*
X8741646Y-13771829D02*
X8751170Y-13781353D01*
X8751170Y-13781353D02*
X8741646Y-13790877D01*
X8741646Y-13790877D02*
X8732122Y-13781353D01*
X8732122Y-13781353D02*
X8741646Y-13771829D01*
X8741646Y-13771829D02*
X8741646Y-13790877D01*
X8865456Y-13676591D02*
X8846408Y-13667067D01*
X8846408Y-13667067D02*
X8836884Y-13657544D01*
X8836884Y-13657544D02*
X8827361Y-13638496D01*
X8827361Y-13638496D02*
X8827361Y-13628972D01*
X8827361Y-13628972D02*
X8836884Y-13609925D01*
X8836884Y-13609925D02*
X8846408Y-13600401D01*
X8846408Y-13600401D02*
X8865456Y-13590877D01*
X8865456Y-13590877D02*
X8903551Y-13590877D01*
X8903551Y-13590877D02*
X8922599Y-13600401D01*
X8922599Y-13600401D02*
X8932122Y-13609925D01*
X8932122Y-13609925D02*
X8941646Y-13628972D01*
X8941646Y-13628972D02*
X8941646Y-13638496D01*
X8941646Y-13638496D02*
X8932122Y-13657544D01*
X8932122Y-13657544D02*
X8922599Y-13667067D01*
X8922599Y-13667067D02*
X8903551Y-13676591D01*
X8903551Y-13676591D02*
X8865456Y-13676591D01*
X8865456Y-13676591D02*
X8846408Y-13686115D01*
X8846408Y-13686115D02*
X8836884Y-13695639D01*
X8836884Y-13695639D02*
X8827361Y-13714686D01*
X8827361Y-13714686D02*
X8827361Y-13752782D01*
X8827361Y-13752782D02*
X8836884Y-13771829D01*
X8836884Y-13771829D02*
X8846408Y-13781353D01*
X8846408Y-13781353D02*
X8865456Y-13790877D01*
X8865456Y-13790877D02*
X8903551Y-13790877D01*
X8903551Y-13790877D02*
X8922599Y-13781353D01*
X8922599Y-13781353D02*
X8932122Y-13771829D01*
X8932122Y-13771829D02*
X8941646Y-13752782D01*
X8941646Y-13752782D02*
X8941646Y-13714686D01*
X8941646Y-13714686D02*
X8932122Y-13695639D01*
X8932122Y-13695639D02*
X8922599Y-13686115D01*
X8922599Y-13686115D02*
X8903551Y-13676591D01*
X9065456Y-13590877D02*
X9084503Y-13590877D01*
X9084503Y-13590877D02*
X9103551Y-13600401D01*
X9103551Y-13600401D02*
X9113075Y-13609925D01*
X9113075Y-13609925D02*
X9122599Y-13628972D01*
X9122599Y-13628972D02*
X9132122Y-13667067D01*
X9132122Y-13667067D02*
X9132122Y-13714686D01*
X9132122Y-13714686D02*
X9122599Y-13752782D01*
X9122599Y-13752782D02*
X9113075Y-13771829D01*
X9113075Y-13771829D02*
X9103551Y-13781353D01*
X9103551Y-13781353D02*
X9084503Y-13790877D01*
X9084503Y-13790877D02*
X9065456Y-13790877D01*
X9065456Y-13790877D02*
X9046408Y-13781353D01*
X9046408Y-13781353D02*
X9036884Y-13771829D01*
X9036884Y-13771829D02*
X9027361Y-13752782D01*
X9027361Y-13752782D02*
X9017837Y-13714686D01*
X9017837Y-13714686D02*
X9017837Y-13667067D01*
X9017837Y-13667067D02*
X9027361Y-13628972D01*
X9027361Y-13628972D02*
X9036884Y-13609925D01*
X9036884Y-13609925D02*
X9046408Y-13600401D01*
X9046408Y-13600401D02*
X9065456Y-13590877D01*
X9255932Y-13590877D02*
X9274980Y-13590877D01*
X9274980Y-13590877D02*
X9294027Y-13600401D01*
X9294027Y-13600401D02*
X9303551Y-13609925D01*
X9303551Y-13609925D02*
X9313075Y-13628972D01*
X9313075Y-13628972D02*
X9322599Y-13667067D01*
X9322599Y-13667067D02*
X9322599Y-13714686D01*
X9322599Y-13714686D02*
X9313075Y-13752782D01*
X9313075Y-13752782D02*
X9303551Y-13771829D01*
X9303551Y-13771829D02*
X9294027Y-13781353D01*
X9294027Y-13781353D02*
X9274980Y-13790877D01*
X9274980Y-13790877D02*
X9255932Y-13790877D01*
X9255932Y-13790877D02*
X9236884Y-13781353D01*
X9236884Y-13781353D02*
X9227361Y-13771829D01*
X9227361Y-13771829D02*
X9217837Y-13752782D01*
X9217837Y-13752782D02*
X9208313Y-13714686D01*
X9208313Y-13714686D02*
X9208313Y-13667067D01*
X9208313Y-13667067D02*
X9217837Y-13628972D01*
X9217837Y-13628972D02*
X9227361Y-13609925D01*
X9227361Y-13609925D02*
X9236884Y-13600401D01*
X9236884Y-13600401D02*
X9255932Y-13590877D01*
X9408313Y-13790877D02*
X9408313Y-13657544D01*
X9408313Y-13676591D02*
X9417837Y-13667067D01*
X9417837Y-13667067D02*
X9436884Y-13657544D01*
X9436884Y-13657544D02*
X9465456Y-13657544D01*
X9465456Y-13657544D02*
X9484503Y-13667067D01*
X9484503Y-13667067D02*
X9494027Y-13686115D01*
X9494027Y-13686115D02*
X9494027Y-13790877D01*
X9494027Y-13686115D02*
X9503551Y-13667067D01*
X9503551Y-13667067D02*
X9522599Y-13657544D01*
X9522599Y-13657544D02*
X9551170Y-13657544D01*
X9551170Y-13657544D02*
X9570218Y-13667067D01*
X9570218Y-13667067D02*
X9579742Y-13686115D01*
X9579742Y-13686115D02*
X9579742Y-13790877D01*
X9674980Y-13790877D02*
X9674980Y-13657544D01*
X9674980Y-13676591D02*
X9684503Y-13667067D01*
X9684503Y-13667067D02*
X9703551Y-13657544D01*
X9703551Y-13657544D02*
X9732123Y-13657544D01*
X9732123Y-13657544D02*
X9751170Y-13667067D01*
X9751170Y-13667067D02*
X9760694Y-13686115D01*
X9760694Y-13686115D02*
X9760694Y-13790877D01*
X9760694Y-13686115D02*
X9770218Y-13667067D01*
X9770218Y-13667067D02*
X9789265Y-13657544D01*
X9789265Y-13657544D02*
X9817837Y-13657544D01*
X9817837Y-13657544D02*
X9836884Y-13667067D01*
X9836884Y-13667067D02*
X9846408Y-13686115D01*
X9846408Y-13686115D02*
X9846408Y-13790877D01*
X10236884Y-13581353D02*
X10065456Y-13838496D01*
X10494027Y-13590877D02*
X10513075Y-13590877D01*
X10513075Y-13590877D02*
X10532123Y-13600401D01*
X10532123Y-13600401D02*
X10541646Y-13609925D01*
X10541646Y-13609925D02*
X10551170Y-13628972D01*
X10551170Y-13628972D02*
X10560694Y-13667067D01*
X10560694Y-13667067D02*
X10560694Y-13714686D01*
X10560694Y-13714686D02*
X10551170Y-13752782D01*
X10551170Y-13752782D02*
X10541646Y-13771829D01*
X10541646Y-13771829D02*
X10532123Y-13781353D01*
X10532123Y-13781353D02*
X10513075Y-13790877D01*
X10513075Y-13790877D02*
X10494027Y-13790877D01*
X10494027Y-13790877D02*
X10474980Y-13781353D01*
X10474980Y-13781353D02*
X10465456Y-13771829D01*
X10465456Y-13771829D02*
X10455932Y-13752782D01*
X10455932Y-13752782D02*
X10446408Y-13714686D01*
X10446408Y-13714686D02*
X10446408Y-13667067D01*
X10446408Y-13667067D02*
X10455932Y-13628972D01*
X10455932Y-13628972D02*
X10465456Y-13609925D01*
X10465456Y-13609925D02*
X10474980Y-13600401D01*
X10474980Y-13600401D02*
X10494027Y-13590877D01*
X10646408Y-13771829D02*
X10655932Y-13781353D01*
X10655932Y-13781353D02*
X10646408Y-13790877D01*
X10646408Y-13790877D02*
X10636885Y-13781353D01*
X10636885Y-13781353D02*
X10646408Y-13771829D01*
X10646408Y-13771829D02*
X10646408Y-13790877D01*
X10779742Y-13590877D02*
X10798789Y-13590877D01*
X10798789Y-13590877D02*
X10817837Y-13600401D01*
X10817837Y-13600401D02*
X10827361Y-13609925D01*
X10827361Y-13609925D02*
X10836885Y-13628972D01*
X10836885Y-13628972D02*
X10846408Y-13667067D01*
X10846408Y-13667067D02*
X10846408Y-13714686D01*
X10846408Y-13714686D02*
X10836885Y-13752782D01*
X10836885Y-13752782D02*
X10827361Y-13771829D01*
X10827361Y-13771829D02*
X10817837Y-13781353D01*
X10817837Y-13781353D02*
X10798789Y-13790877D01*
X10798789Y-13790877D02*
X10779742Y-13790877D01*
X10779742Y-13790877D02*
X10760694Y-13781353D01*
X10760694Y-13781353D02*
X10751170Y-13771829D01*
X10751170Y-13771829D02*
X10741646Y-13752782D01*
X10741646Y-13752782D02*
X10732123Y-13714686D01*
X10732123Y-13714686D02*
X10732123Y-13667067D01*
X10732123Y-13667067D02*
X10741646Y-13628972D01*
X10741646Y-13628972D02*
X10751170Y-13609925D01*
X10751170Y-13609925D02*
X10760694Y-13600401D01*
X10760694Y-13600401D02*
X10779742Y-13590877D01*
X10913075Y-13590877D02*
X11036885Y-13590877D01*
X11036885Y-13590877D02*
X10970218Y-13667067D01*
X10970218Y-13667067D02*
X10998789Y-13667067D01*
X10998789Y-13667067D02*
X11017837Y-13676591D01*
X11017837Y-13676591D02*
X11027361Y-13686115D01*
X11027361Y-13686115D02*
X11036885Y-13705163D01*
X11036885Y-13705163D02*
X11036885Y-13752782D01*
X11036885Y-13752782D02*
X11027361Y-13771829D01*
X11027361Y-13771829D02*
X11017837Y-13781353D01*
X11017837Y-13781353D02*
X10998789Y-13790877D01*
X10998789Y-13790877D02*
X10941646Y-13790877D01*
X10941646Y-13790877D02*
X10922599Y-13781353D01*
X10922599Y-13781353D02*
X10913075Y-13771829D01*
X11227361Y-13790877D02*
X11113075Y-13790877D01*
X11170218Y-13790877D02*
X11170218Y-13590877D01*
X11170218Y-13590877D02*
X11151170Y-13619448D01*
X11151170Y-13619448D02*
X11132123Y-13638496D01*
X11132123Y-13638496D02*
X11113075Y-13648020D01*
X11408313Y-13590877D02*
X11313075Y-13590877D01*
X11313075Y-13590877D02*
X11303551Y-13686115D01*
X11303551Y-13686115D02*
X11313075Y-13676591D01*
X11313075Y-13676591D02*
X11332123Y-13667067D01*
X11332123Y-13667067D02*
X11379742Y-13667067D01*
X11379742Y-13667067D02*
X11398789Y-13676591D01*
X11398789Y-13676591D02*
X11408313Y-13686115D01*
X11408313Y-13686115D02*
X11417837Y-13705163D01*
X11417837Y-13705163D02*
X11417837Y-13752782D01*
X11417837Y-13752782D02*
X11408313Y-13771829D01*
X11408313Y-13771829D02*
X11398789Y-13781353D01*
X11398789Y-13781353D02*
X11379742Y-13790877D01*
X11379742Y-13790877D02*
X11332123Y-13790877D01*
X11332123Y-13790877D02*
X11313075Y-13781353D01*
X11313075Y-13781353D02*
X11303551Y-13771829D01*
X11494027Y-13590877D02*
X11494027Y-13628972D01*
X11570218Y-13590877D02*
X11570218Y-13628972D01*
X11865456Y-13867067D02*
X11855932Y-13857544D01*
X11855932Y-13857544D02*
X11836885Y-13828972D01*
X11836885Y-13828972D02*
X11827361Y-13809925D01*
X11827361Y-13809925D02*
X11817837Y-13781353D01*
X11817837Y-13781353D02*
X11808313Y-13733734D01*
X11808313Y-13733734D02*
X11808313Y-13695639D01*
X11808313Y-13695639D02*
X11817837Y-13648020D01*
X11817837Y-13648020D02*
X11827361Y-13619448D01*
X11827361Y-13619448D02*
X11836885Y-13600401D01*
X11836885Y-13600401D02*
X11855932Y-13571829D01*
X11855932Y-13571829D02*
X11865456Y-13562305D01*
X11932123Y-13609925D02*
X11941646Y-13600401D01*
X11941646Y-13600401D02*
X11960694Y-13590877D01*
X11960694Y-13590877D02*
X12008313Y-13590877D01*
X12008313Y-13590877D02*
X12027361Y-13600401D01*
X12027361Y-13600401D02*
X12036885Y-13609925D01*
X12036885Y-13609925D02*
X12046408Y-13628972D01*
X12046408Y-13628972D02*
X12046408Y-13648020D01*
X12046408Y-13648020D02*
X12036885Y-13676591D01*
X12036885Y-13676591D02*
X11922599Y-13790877D01*
X11922599Y-13790877D02*
X12046408Y-13790877D01*
X12170218Y-13590877D02*
X12189266Y-13590877D01*
X12189266Y-13590877D02*
X12208313Y-13600401D01*
X12208313Y-13600401D02*
X12217837Y-13609925D01*
X12217837Y-13609925D02*
X12227361Y-13628972D01*
X12227361Y-13628972D02*
X12236885Y-13667067D01*
X12236885Y-13667067D02*
X12236885Y-13714686D01*
X12236885Y-13714686D02*
X12227361Y-13752782D01*
X12227361Y-13752782D02*
X12217837Y-13771829D01*
X12217837Y-13771829D02*
X12208313Y-13781353D01*
X12208313Y-13781353D02*
X12189266Y-13790877D01*
X12189266Y-13790877D02*
X12170218Y-13790877D01*
X12170218Y-13790877D02*
X12151170Y-13781353D01*
X12151170Y-13781353D02*
X12141646Y-13771829D01*
X12141646Y-13771829D02*
X12132123Y-13752782D01*
X12132123Y-13752782D02*
X12122599Y-13714686D01*
X12122599Y-13714686D02*
X12122599Y-13667067D01*
X12122599Y-13667067D02*
X12132123Y-13628972D01*
X12132123Y-13628972D02*
X12141646Y-13609925D01*
X12141646Y-13609925D02*
X12151170Y-13600401D01*
X12151170Y-13600401D02*
X12170218Y-13590877D01*
X12474980Y-13790877D02*
X12474980Y-13590877D01*
X12560694Y-13790877D02*
X12560694Y-13686115D01*
X12560694Y-13686115D02*
X12551170Y-13667067D01*
X12551170Y-13667067D02*
X12532123Y-13657544D01*
X12532123Y-13657544D02*
X12503551Y-13657544D01*
X12503551Y-13657544D02*
X12484504Y-13667067D01*
X12484504Y-13667067D02*
X12474980Y-13676591D01*
X12684504Y-13790877D02*
X12665456Y-13781353D01*
X12665456Y-13781353D02*
X12655932Y-13771829D01*
X12655932Y-13771829D02*
X12646408Y-13752782D01*
X12646408Y-13752782D02*
X12646408Y-13695639D01*
X12646408Y-13695639D02*
X12655932Y-13676591D01*
X12655932Y-13676591D02*
X12665456Y-13667067D01*
X12665456Y-13667067D02*
X12684504Y-13657544D01*
X12684504Y-13657544D02*
X12713075Y-13657544D01*
X12713075Y-13657544D02*
X12732123Y-13667067D01*
X12732123Y-13667067D02*
X12741647Y-13676591D01*
X12741647Y-13676591D02*
X12751170Y-13695639D01*
X12751170Y-13695639D02*
X12751170Y-13752782D01*
X12751170Y-13752782D02*
X12741647Y-13771829D01*
X12741647Y-13771829D02*
X12732123Y-13781353D01*
X12732123Y-13781353D02*
X12713075Y-13790877D01*
X12713075Y-13790877D02*
X12684504Y-13790877D01*
X12865456Y-13790877D02*
X12846408Y-13781353D01*
X12846408Y-13781353D02*
X12836885Y-13762305D01*
X12836885Y-13762305D02*
X12836885Y-13590877D01*
X13017837Y-13781353D02*
X12998789Y-13790877D01*
X12998789Y-13790877D02*
X12960694Y-13790877D01*
X12960694Y-13790877D02*
X12941647Y-13781353D01*
X12941647Y-13781353D02*
X12932123Y-13762305D01*
X12932123Y-13762305D02*
X12932123Y-13686115D01*
X12932123Y-13686115D02*
X12941647Y-13667067D01*
X12941647Y-13667067D02*
X12960694Y-13657544D01*
X12960694Y-13657544D02*
X12998789Y-13657544D01*
X12998789Y-13657544D02*
X13017837Y-13667067D01*
X13017837Y-13667067D02*
X13027361Y-13686115D01*
X13027361Y-13686115D02*
X13027361Y-13705163D01*
X13027361Y-13705163D02*
X12932123Y-13724210D01*
X13103551Y-13781353D02*
X13122599Y-13790877D01*
X13122599Y-13790877D02*
X13160694Y-13790877D01*
X13160694Y-13790877D02*
X13179742Y-13781353D01*
X13179742Y-13781353D02*
X13189266Y-13762305D01*
X13189266Y-13762305D02*
X13189266Y-13752782D01*
X13189266Y-13752782D02*
X13179742Y-13733734D01*
X13179742Y-13733734D02*
X13160694Y-13724210D01*
X13160694Y-13724210D02*
X13132123Y-13724210D01*
X13132123Y-13724210D02*
X13113075Y-13714686D01*
X13113075Y-13714686D02*
X13103551Y-13695639D01*
X13103551Y-13695639D02*
X13103551Y-13686115D01*
X13103551Y-13686115D02*
X13113075Y-13667067D01*
X13113075Y-13667067D02*
X13132123Y-13657544D01*
X13132123Y-13657544D02*
X13160694Y-13657544D01*
X13160694Y-13657544D02*
X13179742Y-13667067D01*
X13255932Y-13867067D02*
X13265456Y-13857544D01*
X13265456Y-13857544D02*
X13284504Y-13828972D01*
X13284504Y-13828972D02*
X13294028Y-13809925D01*
X13294028Y-13809925D02*
X13303551Y-13781353D01*
X13303551Y-13781353D02*
X13313075Y-13733734D01*
X13313075Y-13733734D02*
X13313075Y-13695639D01*
X13313075Y-13695639D02*
X13303551Y-13648020D01*
X13303551Y-13648020D02*
X13294028Y-13619448D01*
X13294028Y-13619448D02*
X13284504Y-13600401D01*
X13284504Y-13600401D02*
X13265456Y-13571829D01*
X13265456Y-13571829D02*
X13255932Y-13562305D01*
D13*
X8239393Y-13912393D02*
X8239393Y-14014393D01*
X8188393Y-13963393D02*
X8290393Y-13963393D01*
D11*
X8655932Y-14054877D02*
X8541646Y-14054877D01*
X8598789Y-14054877D02*
X8598789Y-13854877D01*
X8598789Y-13854877D02*
X8579741Y-13883448D01*
X8579741Y-13883448D02*
X8560694Y-13902496D01*
X8560694Y-13902496D02*
X8541646Y-13912020D01*
X8741646Y-14035829D02*
X8751170Y-14045353D01*
X8751170Y-14045353D02*
X8741646Y-14054877D01*
X8741646Y-14054877D02*
X8732122Y-14045353D01*
X8732122Y-14045353D02*
X8741646Y-14035829D01*
X8741646Y-14035829D02*
X8741646Y-14054877D01*
X8874980Y-13854877D02*
X8894027Y-13854877D01*
X8894027Y-13854877D02*
X8913075Y-13864401D01*
X8913075Y-13864401D02*
X8922599Y-13873925D01*
X8922599Y-13873925D02*
X8932122Y-13892972D01*
X8932122Y-13892972D02*
X8941646Y-13931067D01*
X8941646Y-13931067D02*
X8941646Y-13978686D01*
X8941646Y-13978686D02*
X8932122Y-14016782D01*
X8932122Y-14016782D02*
X8922599Y-14035829D01*
X8922599Y-14035829D02*
X8913075Y-14045353D01*
X8913075Y-14045353D02*
X8894027Y-14054877D01*
X8894027Y-14054877D02*
X8874980Y-14054877D01*
X8874980Y-14054877D02*
X8855932Y-14045353D01*
X8855932Y-14045353D02*
X8846408Y-14035829D01*
X8846408Y-14035829D02*
X8836884Y-14016782D01*
X8836884Y-14016782D02*
X8827361Y-13978686D01*
X8827361Y-13978686D02*
X8827361Y-13931067D01*
X8827361Y-13931067D02*
X8836884Y-13892972D01*
X8836884Y-13892972D02*
X8846408Y-13873925D01*
X8846408Y-13873925D02*
X8855932Y-13864401D01*
X8855932Y-13864401D02*
X8874980Y-13854877D01*
X9017837Y-13873925D02*
X9027361Y-13864401D01*
X9027361Y-13864401D02*
X9046408Y-13854877D01*
X9046408Y-13854877D02*
X9094027Y-13854877D01*
X9094027Y-13854877D02*
X9113075Y-13864401D01*
X9113075Y-13864401D02*
X9122599Y-13873925D01*
X9122599Y-13873925D02*
X9132122Y-13892972D01*
X9132122Y-13892972D02*
X9132122Y-13912020D01*
X9132122Y-13912020D02*
X9122599Y-13940591D01*
X9122599Y-13940591D02*
X9008313Y-14054877D01*
X9008313Y-14054877D02*
X9132122Y-14054877D01*
X9255932Y-13854877D02*
X9274980Y-13854877D01*
X9274980Y-13854877D02*
X9294027Y-13864401D01*
X9294027Y-13864401D02*
X9303551Y-13873925D01*
X9303551Y-13873925D02*
X9313075Y-13892972D01*
X9313075Y-13892972D02*
X9322599Y-13931067D01*
X9322599Y-13931067D02*
X9322599Y-13978686D01*
X9322599Y-13978686D02*
X9313075Y-14016782D01*
X9313075Y-14016782D02*
X9303551Y-14035829D01*
X9303551Y-14035829D02*
X9294027Y-14045353D01*
X9294027Y-14045353D02*
X9274980Y-14054877D01*
X9274980Y-14054877D02*
X9255932Y-14054877D01*
X9255932Y-14054877D02*
X9236884Y-14045353D01*
X9236884Y-14045353D02*
X9227361Y-14035829D01*
X9227361Y-14035829D02*
X9217837Y-14016782D01*
X9217837Y-14016782D02*
X9208313Y-13978686D01*
X9208313Y-13978686D02*
X9208313Y-13931067D01*
X9208313Y-13931067D02*
X9217837Y-13892972D01*
X9217837Y-13892972D02*
X9227361Y-13873925D01*
X9227361Y-13873925D02*
X9236884Y-13864401D01*
X9236884Y-13864401D02*
X9255932Y-13854877D01*
X9408313Y-14054877D02*
X9408313Y-13921544D01*
X9408313Y-13940591D02*
X9417837Y-13931067D01*
X9417837Y-13931067D02*
X9436884Y-13921544D01*
X9436884Y-13921544D02*
X9465456Y-13921544D01*
X9465456Y-13921544D02*
X9484503Y-13931067D01*
X9484503Y-13931067D02*
X9494027Y-13950115D01*
X9494027Y-13950115D02*
X9494027Y-14054877D01*
X9494027Y-13950115D02*
X9503551Y-13931067D01*
X9503551Y-13931067D02*
X9522599Y-13921544D01*
X9522599Y-13921544D02*
X9551170Y-13921544D01*
X9551170Y-13921544D02*
X9570218Y-13931067D01*
X9570218Y-13931067D02*
X9579742Y-13950115D01*
X9579742Y-13950115D02*
X9579742Y-14054877D01*
X9674980Y-14054877D02*
X9674980Y-13921544D01*
X9674980Y-13940591D02*
X9684503Y-13931067D01*
X9684503Y-13931067D02*
X9703551Y-13921544D01*
X9703551Y-13921544D02*
X9732123Y-13921544D01*
X9732123Y-13921544D02*
X9751170Y-13931067D01*
X9751170Y-13931067D02*
X9760694Y-13950115D01*
X9760694Y-13950115D02*
X9760694Y-14054877D01*
X9760694Y-13950115D02*
X9770218Y-13931067D01*
X9770218Y-13931067D02*
X9789265Y-13921544D01*
X9789265Y-13921544D02*
X9817837Y-13921544D01*
X9817837Y-13921544D02*
X9836884Y-13931067D01*
X9836884Y-13931067D02*
X9846408Y-13950115D01*
X9846408Y-13950115D02*
X9846408Y-14054877D01*
X10236884Y-13845353D02*
X10065456Y-14102496D01*
X10494027Y-13854877D02*
X10513075Y-13854877D01*
X10513075Y-13854877D02*
X10532123Y-13864401D01*
X10532123Y-13864401D02*
X10541646Y-13873925D01*
X10541646Y-13873925D02*
X10551170Y-13892972D01*
X10551170Y-13892972D02*
X10560694Y-13931067D01*
X10560694Y-13931067D02*
X10560694Y-13978686D01*
X10560694Y-13978686D02*
X10551170Y-14016782D01*
X10551170Y-14016782D02*
X10541646Y-14035829D01*
X10541646Y-14035829D02*
X10532123Y-14045353D01*
X10532123Y-14045353D02*
X10513075Y-14054877D01*
X10513075Y-14054877D02*
X10494027Y-14054877D01*
X10494027Y-14054877D02*
X10474980Y-14045353D01*
X10474980Y-14045353D02*
X10465456Y-14035829D01*
X10465456Y-14035829D02*
X10455932Y-14016782D01*
X10455932Y-14016782D02*
X10446408Y-13978686D01*
X10446408Y-13978686D02*
X10446408Y-13931067D01*
X10446408Y-13931067D02*
X10455932Y-13892972D01*
X10455932Y-13892972D02*
X10465456Y-13873925D01*
X10465456Y-13873925D02*
X10474980Y-13864401D01*
X10474980Y-13864401D02*
X10494027Y-13854877D01*
X10646408Y-14035829D02*
X10655932Y-14045353D01*
X10655932Y-14045353D02*
X10646408Y-14054877D01*
X10646408Y-14054877D02*
X10636885Y-14045353D01*
X10636885Y-14045353D02*
X10646408Y-14035829D01*
X10646408Y-14035829D02*
X10646408Y-14054877D01*
X10779742Y-13854877D02*
X10798789Y-13854877D01*
X10798789Y-13854877D02*
X10817837Y-13864401D01*
X10817837Y-13864401D02*
X10827361Y-13873925D01*
X10827361Y-13873925D02*
X10836885Y-13892972D01*
X10836885Y-13892972D02*
X10846408Y-13931067D01*
X10846408Y-13931067D02*
X10846408Y-13978686D01*
X10846408Y-13978686D02*
X10836885Y-14016782D01*
X10836885Y-14016782D02*
X10827361Y-14035829D01*
X10827361Y-14035829D02*
X10817837Y-14045353D01*
X10817837Y-14045353D02*
X10798789Y-14054877D01*
X10798789Y-14054877D02*
X10779742Y-14054877D01*
X10779742Y-14054877D02*
X10760694Y-14045353D01*
X10760694Y-14045353D02*
X10751170Y-14035829D01*
X10751170Y-14035829D02*
X10741646Y-14016782D01*
X10741646Y-14016782D02*
X10732123Y-13978686D01*
X10732123Y-13978686D02*
X10732123Y-13931067D01*
X10732123Y-13931067D02*
X10741646Y-13892972D01*
X10741646Y-13892972D02*
X10751170Y-13873925D01*
X10751170Y-13873925D02*
X10760694Y-13864401D01*
X10760694Y-13864401D02*
X10779742Y-13854877D01*
X11017837Y-13921544D02*
X11017837Y-14054877D01*
X10970218Y-13845353D02*
X10922599Y-13988210D01*
X10922599Y-13988210D02*
X11046408Y-13988210D01*
X11160694Y-13854877D02*
X11179742Y-13854877D01*
X11179742Y-13854877D02*
X11198789Y-13864401D01*
X11198789Y-13864401D02*
X11208313Y-13873925D01*
X11208313Y-13873925D02*
X11217837Y-13892972D01*
X11217837Y-13892972D02*
X11227361Y-13931067D01*
X11227361Y-13931067D02*
X11227361Y-13978686D01*
X11227361Y-13978686D02*
X11217837Y-14016782D01*
X11217837Y-14016782D02*
X11208313Y-14035829D01*
X11208313Y-14035829D02*
X11198789Y-14045353D01*
X11198789Y-14045353D02*
X11179742Y-14054877D01*
X11179742Y-14054877D02*
X11160694Y-14054877D01*
X11160694Y-14054877D02*
X11141646Y-14045353D01*
X11141646Y-14045353D02*
X11132123Y-14035829D01*
X11132123Y-14035829D02*
X11122599Y-14016782D01*
X11122599Y-14016782D02*
X11113075Y-13978686D01*
X11113075Y-13978686D02*
X11113075Y-13931067D01*
X11113075Y-13931067D02*
X11122599Y-13892972D01*
X11122599Y-13892972D02*
X11132123Y-13873925D01*
X11132123Y-13873925D02*
X11141646Y-13864401D01*
X11141646Y-13864401D02*
X11160694Y-13854877D01*
X11303551Y-13873925D02*
X11313075Y-13864401D01*
X11313075Y-13864401D02*
X11332123Y-13854877D01*
X11332123Y-13854877D02*
X11379742Y-13854877D01*
X11379742Y-13854877D02*
X11398789Y-13864401D01*
X11398789Y-13864401D02*
X11408313Y-13873925D01*
X11408313Y-13873925D02*
X11417837Y-13892972D01*
X11417837Y-13892972D02*
X11417837Y-13912020D01*
X11417837Y-13912020D02*
X11408313Y-13940591D01*
X11408313Y-13940591D02*
X11294027Y-14054877D01*
X11294027Y-14054877D02*
X11417837Y-14054877D01*
X11494027Y-13854877D02*
X11494027Y-13892972D01*
X11570218Y-13854877D02*
X11570218Y-13892972D01*
X11865456Y-14131067D02*
X11855932Y-14121544D01*
X11855932Y-14121544D02*
X11836885Y-14092972D01*
X11836885Y-14092972D02*
X11827361Y-14073925D01*
X11827361Y-14073925D02*
X11817837Y-14045353D01*
X11817837Y-14045353D02*
X11808313Y-13997734D01*
X11808313Y-13997734D02*
X11808313Y-13959639D01*
X11808313Y-13959639D02*
X11817837Y-13912020D01*
X11817837Y-13912020D02*
X11827361Y-13883448D01*
X11827361Y-13883448D02*
X11836885Y-13864401D01*
X11836885Y-13864401D02*
X11855932Y-13835829D01*
X11855932Y-13835829D02*
X11865456Y-13826305D01*
X11922599Y-13854877D02*
X12046408Y-13854877D01*
X12046408Y-13854877D02*
X11979742Y-13931067D01*
X11979742Y-13931067D02*
X12008313Y-13931067D01*
X12008313Y-13931067D02*
X12027361Y-13940591D01*
X12027361Y-13940591D02*
X12036885Y-13950115D01*
X12036885Y-13950115D02*
X12046408Y-13969163D01*
X12046408Y-13969163D02*
X12046408Y-14016782D01*
X12046408Y-14016782D02*
X12036885Y-14035829D01*
X12036885Y-14035829D02*
X12027361Y-14045353D01*
X12027361Y-14045353D02*
X12008313Y-14054877D01*
X12008313Y-14054877D02*
X11951170Y-14054877D01*
X11951170Y-14054877D02*
X11932123Y-14045353D01*
X11932123Y-14045353D02*
X11922599Y-14035829D01*
X12170218Y-13854877D02*
X12189266Y-13854877D01*
X12189266Y-13854877D02*
X12208313Y-13864401D01*
X12208313Y-13864401D02*
X12217837Y-13873925D01*
X12217837Y-13873925D02*
X12227361Y-13892972D01*
X12227361Y-13892972D02*
X12236885Y-13931067D01*
X12236885Y-13931067D02*
X12236885Y-13978686D01*
X12236885Y-13978686D02*
X12227361Y-14016782D01*
X12227361Y-14016782D02*
X12217837Y-14035829D01*
X12217837Y-14035829D02*
X12208313Y-14045353D01*
X12208313Y-14045353D02*
X12189266Y-14054877D01*
X12189266Y-14054877D02*
X12170218Y-14054877D01*
X12170218Y-14054877D02*
X12151170Y-14045353D01*
X12151170Y-14045353D02*
X12141646Y-14035829D01*
X12141646Y-14035829D02*
X12132123Y-14016782D01*
X12132123Y-14016782D02*
X12122599Y-13978686D01*
X12122599Y-13978686D02*
X12122599Y-13931067D01*
X12122599Y-13931067D02*
X12132123Y-13892972D01*
X12132123Y-13892972D02*
X12141646Y-13873925D01*
X12141646Y-13873925D02*
X12151170Y-13864401D01*
X12151170Y-13864401D02*
X12170218Y-13854877D01*
X12474980Y-14054877D02*
X12474980Y-13854877D01*
X12560694Y-14054877D02*
X12560694Y-13950115D01*
X12560694Y-13950115D02*
X12551170Y-13931067D01*
X12551170Y-13931067D02*
X12532123Y-13921544D01*
X12532123Y-13921544D02*
X12503551Y-13921544D01*
X12503551Y-13921544D02*
X12484504Y-13931067D01*
X12484504Y-13931067D02*
X12474980Y-13940591D01*
X12684504Y-14054877D02*
X12665456Y-14045353D01*
X12665456Y-14045353D02*
X12655932Y-14035829D01*
X12655932Y-14035829D02*
X12646408Y-14016782D01*
X12646408Y-14016782D02*
X12646408Y-13959639D01*
X12646408Y-13959639D02*
X12655932Y-13940591D01*
X12655932Y-13940591D02*
X12665456Y-13931067D01*
X12665456Y-13931067D02*
X12684504Y-13921544D01*
X12684504Y-13921544D02*
X12713075Y-13921544D01*
X12713075Y-13921544D02*
X12732123Y-13931067D01*
X12732123Y-13931067D02*
X12741647Y-13940591D01*
X12741647Y-13940591D02*
X12751170Y-13959639D01*
X12751170Y-13959639D02*
X12751170Y-14016782D01*
X12751170Y-14016782D02*
X12741647Y-14035829D01*
X12741647Y-14035829D02*
X12732123Y-14045353D01*
X12732123Y-14045353D02*
X12713075Y-14054877D01*
X12713075Y-14054877D02*
X12684504Y-14054877D01*
X12865456Y-14054877D02*
X12846408Y-14045353D01*
X12846408Y-14045353D02*
X12836885Y-14026305D01*
X12836885Y-14026305D02*
X12836885Y-13854877D01*
X13017837Y-14045353D02*
X12998789Y-14054877D01*
X12998789Y-14054877D02*
X12960694Y-14054877D01*
X12960694Y-14054877D02*
X12941647Y-14045353D01*
X12941647Y-14045353D02*
X12932123Y-14026305D01*
X12932123Y-14026305D02*
X12932123Y-13950115D01*
X12932123Y-13950115D02*
X12941647Y-13931067D01*
X12941647Y-13931067D02*
X12960694Y-13921544D01*
X12960694Y-13921544D02*
X12998789Y-13921544D01*
X12998789Y-13921544D02*
X13017837Y-13931067D01*
X13017837Y-13931067D02*
X13027361Y-13950115D01*
X13027361Y-13950115D02*
X13027361Y-13969163D01*
X13027361Y-13969163D02*
X12932123Y-13988210D01*
X13103551Y-14045353D02*
X13122599Y-14054877D01*
X13122599Y-14054877D02*
X13160694Y-14054877D01*
X13160694Y-14054877D02*
X13179742Y-14045353D01*
X13179742Y-14045353D02*
X13189266Y-14026305D01*
X13189266Y-14026305D02*
X13189266Y-14016782D01*
X13189266Y-14016782D02*
X13179742Y-13997734D01*
X13179742Y-13997734D02*
X13160694Y-13988210D01*
X13160694Y-13988210D02*
X13132123Y-13988210D01*
X13132123Y-13988210D02*
X13113075Y-13978686D01*
X13113075Y-13978686D02*
X13103551Y-13959639D01*
X13103551Y-13959639D02*
X13103551Y-13950115D01*
X13103551Y-13950115D02*
X13113075Y-13931067D01*
X13113075Y-13931067D02*
X13132123Y-13921544D01*
X13132123Y-13921544D02*
X13160694Y-13921544D01*
X13160694Y-13921544D02*
X13179742Y-13931067D01*
X13255932Y-14131067D02*
X13265456Y-14121544D01*
X13265456Y-14121544D02*
X13284504Y-14092972D01*
X13284504Y-14092972D02*
X13294028Y-14073925D01*
X13294028Y-14073925D02*
X13303551Y-14045353D01*
X13303551Y-14045353D02*
X13313075Y-13997734D01*
X13313075Y-13997734D02*
X13313075Y-13959639D01*
X13313075Y-13959639D02*
X13303551Y-13912020D01*
X13303551Y-13912020D02*
X13294028Y-13883448D01*
X13294028Y-13883448D02*
X13284504Y-13864401D01*
X13284504Y-13864401D02*
X13265456Y-13835829D01*
X13265456Y-13835829D02*
X13255932Y-13826305D01*
D14*
X8274284Y-14266284D02*
X8274284Y-14188502D01*
X8196502Y-14188502D01*
X8196502Y-14266284D01*
X8274284Y-14266284D01*
D11*
X8655932Y-14318877D02*
X8541646Y-14318877D01*
X8598789Y-14318877D02*
X8598789Y-14118877D01*
X8598789Y-14118877D02*
X8579741Y-14147448D01*
X8579741Y-14147448D02*
X8560694Y-14166496D01*
X8560694Y-14166496D02*
X8541646Y-14176020D01*
X8741646Y-14299829D02*
X8751170Y-14309353D01*
X8751170Y-14309353D02*
X8741646Y-14318877D01*
X8741646Y-14318877D02*
X8732122Y-14309353D01*
X8732122Y-14309353D02*
X8741646Y-14299829D01*
X8741646Y-14299829D02*
X8741646Y-14318877D01*
X8941646Y-14318877D02*
X8827361Y-14318877D01*
X8884503Y-14318877D02*
X8884503Y-14118877D01*
X8884503Y-14118877D02*
X8865456Y-14147448D01*
X8865456Y-14147448D02*
X8846408Y-14166496D01*
X8846408Y-14166496D02*
X8827361Y-14176020D01*
X9065456Y-14118877D02*
X9084503Y-14118877D01*
X9084503Y-14118877D02*
X9103551Y-14128401D01*
X9103551Y-14128401D02*
X9113075Y-14137925D01*
X9113075Y-14137925D02*
X9122599Y-14156972D01*
X9122599Y-14156972D02*
X9132122Y-14195067D01*
X9132122Y-14195067D02*
X9132122Y-14242686D01*
X9132122Y-14242686D02*
X9122599Y-14280782D01*
X9122599Y-14280782D02*
X9113075Y-14299829D01*
X9113075Y-14299829D02*
X9103551Y-14309353D01*
X9103551Y-14309353D02*
X9084503Y-14318877D01*
X9084503Y-14318877D02*
X9065456Y-14318877D01*
X9065456Y-14318877D02*
X9046408Y-14309353D01*
X9046408Y-14309353D02*
X9036884Y-14299829D01*
X9036884Y-14299829D02*
X9027361Y-14280782D01*
X9027361Y-14280782D02*
X9017837Y-14242686D01*
X9017837Y-14242686D02*
X9017837Y-14195067D01*
X9017837Y-14195067D02*
X9027361Y-14156972D01*
X9027361Y-14156972D02*
X9036884Y-14137925D01*
X9036884Y-14137925D02*
X9046408Y-14128401D01*
X9046408Y-14128401D02*
X9065456Y-14118877D01*
X9255932Y-14118877D02*
X9274980Y-14118877D01*
X9274980Y-14118877D02*
X9294027Y-14128401D01*
X9294027Y-14128401D02*
X9303551Y-14137925D01*
X9303551Y-14137925D02*
X9313075Y-14156972D01*
X9313075Y-14156972D02*
X9322599Y-14195067D01*
X9322599Y-14195067D02*
X9322599Y-14242686D01*
X9322599Y-14242686D02*
X9313075Y-14280782D01*
X9313075Y-14280782D02*
X9303551Y-14299829D01*
X9303551Y-14299829D02*
X9294027Y-14309353D01*
X9294027Y-14309353D02*
X9274980Y-14318877D01*
X9274980Y-14318877D02*
X9255932Y-14318877D01*
X9255932Y-14318877D02*
X9236884Y-14309353D01*
X9236884Y-14309353D02*
X9227361Y-14299829D01*
X9227361Y-14299829D02*
X9217837Y-14280782D01*
X9217837Y-14280782D02*
X9208313Y-14242686D01*
X9208313Y-14242686D02*
X9208313Y-14195067D01*
X9208313Y-14195067D02*
X9217837Y-14156972D01*
X9217837Y-14156972D02*
X9227361Y-14137925D01*
X9227361Y-14137925D02*
X9236884Y-14128401D01*
X9236884Y-14128401D02*
X9255932Y-14118877D01*
X9408313Y-14318877D02*
X9408313Y-14185544D01*
X9408313Y-14204591D02*
X9417837Y-14195067D01*
X9417837Y-14195067D02*
X9436884Y-14185544D01*
X9436884Y-14185544D02*
X9465456Y-14185544D01*
X9465456Y-14185544D02*
X9484503Y-14195067D01*
X9484503Y-14195067D02*
X9494027Y-14214115D01*
X9494027Y-14214115D02*
X9494027Y-14318877D01*
X9494027Y-14214115D02*
X9503551Y-14195067D01*
X9503551Y-14195067D02*
X9522599Y-14185544D01*
X9522599Y-14185544D02*
X9551170Y-14185544D01*
X9551170Y-14185544D02*
X9570218Y-14195067D01*
X9570218Y-14195067D02*
X9579742Y-14214115D01*
X9579742Y-14214115D02*
X9579742Y-14318877D01*
X9674980Y-14318877D02*
X9674980Y-14185544D01*
X9674980Y-14204591D02*
X9684503Y-14195067D01*
X9684503Y-14195067D02*
X9703551Y-14185544D01*
X9703551Y-14185544D02*
X9732123Y-14185544D01*
X9732123Y-14185544D02*
X9751170Y-14195067D01*
X9751170Y-14195067D02*
X9760694Y-14214115D01*
X9760694Y-14214115D02*
X9760694Y-14318877D01*
X9760694Y-14214115D02*
X9770218Y-14195067D01*
X9770218Y-14195067D02*
X9789265Y-14185544D01*
X9789265Y-14185544D02*
X9817837Y-14185544D01*
X9817837Y-14185544D02*
X9836884Y-14195067D01*
X9836884Y-14195067D02*
X9846408Y-14214115D01*
X9846408Y-14214115D02*
X9846408Y-14318877D01*
X10236884Y-14109353D02*
X10065456Y-14366496D01*
X10494027Y-14118877D02*
X10513075Y-14118877D01*
X10513075Y-14118877D02*
X10532123Y-14128401D01*
X10532123Y-14128401D02*
X10541646Y-14137925D01*
X10541646Y-14137925D02*
X10551170Y-14156972D01*
X10551170Y-14156972D02*
X10560694Y-14195067D01*
X10560694Y-14195067D02*
X10560694Y-14242686D01*
X10560694Y-14242686D02*
X10551170Y-14280782D01*
X10551170Y-14280782D02*
X10541646Y-14299829D01*
X10541646Y-14299829D02*
X10532123Y-14309353D01*
X10532123Y-14309353D02*
X10513075Y-14318877D01*
X10513075Y-14318877D02*
X10494027Y-14318877D01*
X10494027Y-14318877D02*
X10474980Y-14309353D01*
X10474980Y-14309353D02*
X10465456Y-14299829D01*
X10465456Y-14299829D02*
X10455932Y-14280782D01*
X10455932Y-14280782D02*
X10446408Y-14242686D01*
X10446408Y-14242686D02*
X10446408Y-14195067D01*
X10446408Y-14195067D02*
X10455932Y-14156972D01*
X10455932Y-14156972D02*
X10465456Y-14137925D01*
X10465456Y-14137925D02*
X10474980Y-14128401D01*
X10474980Y-14128401D02*
X10494027Y-14118877D01*
X10646408Y-14299829D02*
X10655932Y-14309353D01*
X10655932Y-14309353D02*
X10646408Y-14318877D01*
X10646408Y-14318877D02*
X10636885Y-14309353D01*
X10636885Y-14309353D02*
X10646408Y-14299829D01*
X10646408Y-14299829D02*
X10646408Y-14318877D01*
X10779742Y-14118877D02*
X10798789Y-14118877D01*
X10798789Y-14118877D02*
X10817837Y-14128401D01*
X10817837Y-14128401D02*
X10827361Y-14137925D01*
X10827361Y-14137925D02*
X10836885Y-14156972D01*
X10836885Y-14156972D02*
X10846408Y-14195067D01*
X10846408Y-14195067D02*
X10846408Y-14242686D01*
X10846408Y-14242686D02*
X10836885Y-14280782D01*
X10836885Y-14280782D02*
X10827361Y-14299829D01*
X10827361Y-14299829D02*
X10817837Y-14309353D01*
X10817837Y-14309353D02*
X10798789Y-14318877D01*
X10798789Y-14318877D02*
X10779742Y-14318877D01*
X10779742Y-14318877D02*
X10760694Y-14309353D01*
X10760694Y-14309353D02*
X10751170Y-14299829D01*
X10751170Y-14299829D02*
X10741646Y-14280782D01*
X10741646Y-14280782D02*
X10732123Y-14242686D01*
X10732123Y-14242686D02*
X10732123Y-14195067D01*
X10732123Y-14195067D02*
X10741646Y-14156972D01*
X10741646Y-14156972D02*
X10751170Y-14137925D01*
X10751170Y-14137925D02*
X10760694Y-14128401D01*
X10760694Y-14128401D02*
X10779742Y-14118877D01*
X11017837Y-14185544D02*
X11017837Y-14318877D01*
X10970218Y-14109353D02*
X10922599Y-14252210D01*
X10922599Y-14252210D02*
X11046408Y-14252210D01*
X11103551Y-14118877D02*
X11227361Y-14118877D01*
X11227361Y-14118877D02*
X11160694Y-14195067D01*
X11160694Y-14195067D02*
X11189265Y-14195067D01*
X11189265Y-14195067D02*
X11208313Y-14204591D01*
X11208313Y-14204591D02*
X11217837Y-14214115D01*
X11217837Y-14214115D02*
X11227361Y-14233163D01*
X11227361Y-14233163D02*
X11227361Y-14280782D01*
X11227361Y-14280782D02*
X11217837Y-14299829D01*
X11217837Y-14299829D02*
X11208313Y-14309353D01*
X11208313Y-14309353D02*
X11189265Y-14318877D01*
X11189265Y-14318877D02*
X11132123Y-14318877D01*
X11132123Y-14318877D02*
X11113075Y-14309353D01*
X11113075Y-14309353D02*
X11103551Y-14299829D01*
X11294027Y-14118877D02*
X11417837Y-14118877D01*
X11417837Y-14118877D02*
X11351170Y-14195067D01*
X11351170Y-14195067D02*
X11379742Y-14195067D01*
X11379742Y-14195067D02*
X11398789Y-14204591D01*
X11398789Y-14204591D02*
X11408313Y-14214115D01*
X11408313Y-14214115D02*
X11417837Y-14233163D01*
X11417837Y-14233163D02*
X11417837Y-14280782D01*
X11417837Y-14280782D02*
X11408313Y-14299829D01*
X11408313Y-14299829D02*
X11398789Y-14309353D01*
X11398789Y-14309353D02*
X11379742Y-14318877D01*
X11379742Y-14318877D02*
X11322599Y-14318877D01*
X11322599Y-14318877D02*
X11303551Y-14309353D01*
X11303551Y-14309353D02*
X11294027Y-14299829D01*
X11494027Y-14118877D02*
X11494027Y-14156972D01*
X11570218Y-14118877D02*
X11570218Y-14156972D01*
X11865456Y-14395067D02*
X11855932Y-14385544D01*
X11855932Y-14385544D02*
X11836885Y-14356972D01*
X11836885Y-14356972D02*
X11827361Y-14337925D01*
X11827361Y-14337925D02*
X11817837Y-14309353D01*
X11817837Y-14309353D02*
X11808313Y-14261734D01*
X11808313Y-14261734D02*
X11808313Y-14223639D01*
X11808313Y-14223639D02*
X11817837Y-14176020D01*
X11817837Y-14176020D02*
X11827361Y-14147448D01*
X11827361Y-14147448D02*
X11836885Y-14128401D01*
X11836885Y-14128401D02*
X11855932Y-14099829D01*
X11855932Y-14099829D02*
X11865456Y-14090305D01*
X12027361Y-14118877D02*
X11989265Y-14118877D01*
X11989265Y-14118877D02*
X11970218Y-14128401D01*
X11970218Y-14128401D02*
X11960694Y-14137925D01*
X11960694Y-14137925D02*
X11941646Y-14166496D01*
X11941646Y-14166496D02*
X11932123Y-14204591D01*
X11932123Y-14204591D02*
X11932123Y-14280782D01*
X11932123Y-14280782D02*
X11941646Y-14299829D01*
X11941646Y-14299829D02*
X11951170Y-14309353D01*
X11951170Y-14309353D02*
X11970218Y-14318877D01*
X11970218Y-14318877D02*
X12008313Y-14318877D01*
X12008313Y-14318877D02*
X12027361Y-14309353D01*
X12027361Y-14309353D02*
X12036885Y-14299829D01*
X12036885Y-14299829D02*
X12046408Y-14280782D01*
X12046408Y-14280782D02*
X12046408Y-14233163D01*
X12046408Y-14233163D02*
X12036885Y-14214115D01*
X12036885Y-14214115D02*
X12027361Y-14204591D01*
X12027361Y-14204591D02*
X12008313Y-14195067D01*
X12008313Y-14195067D02*
X11970218Y-14195067D01*
X11970218Y-14195067D02*
X11951170Y-14204591D01*
X11951170Y-14204591D02*
X11941646Y-14214115D01*
X11941646Y-14214115D02*
X11932123Y-14233163D01*
X12284504Y-14318877D02*
X12284504Y-14118877D01*
X12370218Y-14318877D02*
X12370218Y-14214115D01*
X12370218Y-14214115D02*
X12360694Y-14195067D01*
X12360694Y-14195067D02*
X12341647Y-14185544D01*
X12341647Y-14185544D02*
X12313075Y-14185544D01*
X12313075Y-14185544D02*
X12294027Y-14195067D01*
X12294027Y-14195067D02*
X12284504Y-14204591D01*
X12494027Y-14318877D02*
X12474980Y-14309353D01*
X12474980Y-14309353D02*
X12465456Y-14299829D01*
X12465456Y-14299829D02*
X12455932Y-14280782D01*
X12455932Y-14280782D02*
X12455932Y-14223639D01*
X12455932Y-14223639D02*
X12465456Y-14204591D01*
X12465456Y-14204591D02*
X12474980Y-14195067D01*
X12474980Y-14195067D02*
X12494027Y-14185544D01*
X12494027Y-14185544D02*
X12522599Y-14185544D01*
X12522599Y-14185544D02*
X12541647Y-14195067D01*
X12541647Y-14195067D02*
X12551170Y-14204591D01*
X12551170Y-14204591D02*
X12560694Y-14223639D01*
X12560694Y-14223639D02*
X12560694Y-14280782D01*
X12560694Y-14280782D02*
X12551170Y-14299829D01*
X12551170Y-14299829D02*
X12541647Y-14309353D01*
X12541647Y-14309353D02*
X12522599Y-14318877D01*
X12522599Y-14318877D02*
X12494027Y-14318877D01*
X12674980Y-14318877D02*
X12655932Y-14309353D01*
X12655932Y-14309353D02*
X12646408Y-14290305D01*
X12646408Y-14290305D02*
X12646408Y-14118877D01*
X12827361Y-14309353D02*
X12808313Y-14318877D01*
X12808313Y-14318877D02*
X12770218Y-14318877D01*
X12770218Y-14318877D02*
X12751170Y-14309353D01*
X12751170Y-14309353D02*
X12741647Y-14290305D01*
X12741647Y-14290305D02*
X12741647Y-14214115D01*
X12741647Y-14214115D02*
X12751170Y-14195067D01*
X12751170Y-14195067D02*
X12770218Y-14185544D01*
X12770218Y-14185544D02*
X12808313Y-14185544D01*
X12808313Y-14185544D02*
X12827361Y-14195067D01*
X12827361Y-14195067D02*
X12836885Y-14214115D01*
X12836885Y-14214115D02*
X12836885Y-14233163D01*
X12836885Y-14233163D02*
X12741647Y-14252210D01*
X12913075Y-14309353D02*
X12932123Y-14318877D01*
X12932123Y-14318877D02*
X12970218Y-14318877D01*
X12970218Y-14318877D02*
X12989266Y-14309353D01*
X12989266Y-14309353D02*
X12998789Y-14290305D01*
X12998789Y-14290305D02*
X12998789Y-14280782D01*
X12998789Y-14280782D02*
X12989266Y-14261734D01*
X12989266Y-14261734D02*
X12970218Y-14252210D01*
X12970218Y-14252210D02*
X12941647Y-14252210D01*
X12941647Y-14252210D02*
X12922599Y-14242686D01*
X12922599Y-14242686D02*
X12913075Y-14223639D01*
X12913075Y-14223639D02*
X12913075Y-14214115D01*
X12913075Y-14214115D02*
X12922599Y-14195067D01*
X12922599Y-14195067D02*
X12941647Y-14185544D01*
X12941647Y-14185544D02*
X12970218Y-14185544D01*
X12970218Y-14185544D02*
X12989266Y-14195067D01*
X13065456Y-14395067D02*
X13074980Y-14385544D01*
X13074980Y-14385544D02*
X13094028Y-14356972D01*
X13094028Y-14356972D02*
X13103551Y-14337925D01*
X13103551Y-14337925D02*
X13113075Y-14309353D01*
X13113075Y-14309353D02*
X13122599Y-14261734D01*
X13122599Y-14261734D02*
X13122599Y-14223639D01*
X13122599Y-14223639D02*
X13113075Y-14176020D01*
X13113075Y-14176020D02*
X13103551Y-14147448D01*
X13103551Y-14147448D02*
X13094028Y-14128401D01*
X13094028Y-14128401D02*
X13074980Y-14099829D01*
X13074980Y-14099829D02*
X13065456Y-14090305D01*
D15*
X8230393Y-14551393D02*
X8290393Y-14491393D01*
X8230393Y-14431393D01*
X8170393Y-14491393D01*
X8230393Y-14551393D01*
D11*
X8655932Y-14582877D02*
X8541646Y-14582877D01*
X8598789Y-14582877D02*
X8598789Y-14382877D01*
X8598789Y-14382877D02*
X8579741Y-14411448D01*
X8579741Y-14411448D02*
X8560694Y-14430496D01*
X8560694Y-14430496D02*
X8541646Y-14440020D01*
X8741646Y-14563829D02*
X8751170Y-14573353D01*
X8751170Y-14573353D02*
X8741646Y-14582877D01*
X8741646Y-14582877D02*
X8732122Y-14573353D01*
X8732122Y-14573353D02*
X8741646Y-14563829D01*
X8741646Y-14563829D02*
X8741646Y-14582877D01*
X8827361Y-14401925D02*
X8836884Y-14392401D01*
X8836884Y-14392401D02*
X8855932Y-14382877D01*
X8855932Y-14382877D02*
X8903551Y-14382877D01*
X8903551Y-14382877D02*
X8922599Y-14392401D01*
X8922599Y-14392401D02*
X8932122Y-14401925D01*
X8932122Y-14401925D02*
X8941646Y-14420972D01*
X8941646Y-14420972D02*
X8941646Y-14440020D01*
X8941646Y-14440020D02*
X8932122Y-14468591D01*
X8932122Y-14468591D02*
X8817837Y-14582877D01*
X8817837Y-14582877D02*
X8941646Y-14582877D01*
X9065456Y-14382877D02*
X9084503Y-14382877D01*
X9084503Y-14382877D02*
X9103551Y-14392401D01*
X9103551Y-14392401D02*
X9113075Y-14401925D01*
X9113075Y-14401925D02*
X9122599Y-14420972D01*
X9122599Y-14420972D02*
X9132122Y-14459067D01*
X9132122Y-14459067D02*
X9132122Y-14506686D01*
X9132122Y-14506686D02*
X9122599Y-14544782D01*
X9122599Y-14544782D02*
X9113075Y-14563829D01*
X9113075Y-14563829D02*
X9103551Y-14573353D01*
X9103551Y-14573353D02*
X9084503Y-14582877D01*
X9084503Y-14582877D02*
X9065456Y-14582877D01*
X9065456Y-14582877D02*
X9046408Y-14573353D01*
X9046408Y-14573353D02*
X9036884Y-14563829D01*
X9036884Y-14563829D02*
X9027361Y-14544782D01*
X9027361Y-14544782D02*
X9017837Y-14506686D01*
X9017837Y-14506686D02*
X9017837Y-14459067D01*
X9017837Y-14459067D02*
X9027361Y-14420972D01*
X9027361Y-14420972D02*
X9036884Y-14401925D01*
X9036884Y-14401925D02*
X9046408Y-14392401D01*
X9046408Y-14392401D02*
X9065456Y-14382877D01*
X9255932Y-14382877D02*
X9274980Y-14382877D01*
X9274980Y-14382877D02*
X9294027Y-14392401D01*
X9294027Y-14392401D02*
X9303551Y-14401925D01*
X9303551Y-14401925D02*
X9313075Y-14420972D01*
X9313075Y-14420972D02*
X9322599Y-14459067D01*
X9322599Y-14459067D02*
X9322599Y-14506686D01*
X9322599Y-14506686D02*
X9313075Y-14544782D01*
X9313075Y-14544782D02*
X9303551Y-14563829D01*
X9303551Y-14563829D02*
X9294027Y-14573353D01*
X9294027Y-14573353D02*
X9274980Y-14582877D01*
X9274980Y-14582877D02*
X9255932Y-14582877D01*
X9255932Y-14582877D02*
X9236884Y-14573353D01*
X9236884Y-14573353D02*
X9227361Y-14563829D01*
X9227361Y-14563829D02*
X9217837Y-14544782D01*
X9217837Y-14544782D02*
X9208313Y-14506686D01*
X9208313Y-14506686D02*
X9208313Y-14459067D01*
X9208313Y-14459067D02*
X9217837Y-14420972D01*
X9217837Y-14420972D02*
X9227361Y-14401925D01*
X9227361Y-14401925D02*
X9236884Y-14392401D01*
X9236884Y-14392401D02*
X9255932Y-14382877D01*
X9408313Y-14582877D02*
X9408313Y-14449544D01*
X9408313Y-14468591D02*
X9417837Y-14459067D01*
X9417837Y-14459067D02*
X9436884Y-14449544D01*
X9436884Y-14449544D02*
X9465456Y-14449544D01*
X9465456Y-14449544D02*
X9484503Y-14459067D01*
X9484503Y-14459067D02*
X9494027Y-14478115D01*
X9494027Y-14478115D02*
X9494027Y-14582877D01*
X9494027Y-14478115D02*
X9503551Y-14459067D01*
X9503551Y-14459067D02*
X9522599Y-14449544D01*
X9522599Y-14449544D02*
X9551170Y-14449544D01*
X9551170Y-14449544D02*
X9570218Y-14459067D01*
X9570218Y-14459067D02*
X9579742Y-14478115D01*
X9579742Y-14478115D02*
X9579742Y-14582877D01*
X9674980Y-14582877D02*
X9674980Y-14449544D01*
X9674980Y-14468591D02*
X9684503Y-14459067D01*
X9684503Y-14459067D02*
X9703551Y-14449544D01*
X9703551Y-14449544D02*
X9732123Y-14449544D01*
X9732123Y-14449544D02*
X9751170Y-14459067D01*
X9751170Y-14459067D02*
X9760694Y-14478115D01*
X9760694Y-14478115D02*
X9760694Y-14582877D01*
X9760694Y-14478115D02*
X9770218Y-14459067D01*
X9770218Y-14459067D02*
X9789265Y-14449544D01*
X9789265Y-14449544D02*
X9817837Y-14449544D01*
X9817837Y-14449544D02*
X9836884Y-14459067D01*
X9836884Y-14459067D02*
X9846408Y-14478115D01*
X9846408Y-14478115D02*
X9846408Y-14582877D01*
X10236884Y-14373353D02*
X10065456Y-14630496D01*
X10494027Y-14382877D02*
X10513075Y-14382877D01*
X10513075Y-14382877D02*
X10532123Y-14392401D01*
X10532123Y-14392401D02*
X10541646Y-14401925D01*
X10541646Y-14401925D02*
X10551170Y-14420972D01*
X10551170Y-14420972D02*
X10560694Y-14459067D01*
X10560694Y-14459067D02*
X10560694Y-14506686D01*
X10560694Y-14506686D02*
X10551170Y-14544782D01*
X10551170Y-14544782D02*
X10541646Y-14563829D01*
X10541646Y-14563829D02*
X10532123Y-14573353D01*
X10532123Y-14573353D02*
X10513075Y-14582877D01*
X10513075Y-14582877D02*
X10494027Y-14582877D01*
X10494027Y-14582877D02*
X10474980Y-14573353D01*
X10474980Y-14573353D02*
X10465456Y-14563829D01*
X10465456Y-14563829D02*
X10455932Y-14544782D01*
X10455932Y-14544782D02*
X10446408Y-14506686D01*
X10446408Y-14506686D02*
X10446408Y-14459067D01*
X10446408Y-14459067D02*
X10455932Y-14420972D01*
X10455932Y-14420972D02*
X10465456Y-14401925D01*
X10465456Y-14401925D02*
X10474980Y-14392401D01*
X10474980Y-14392401D02*
X10494027Y-14382877D01*
X10646408Y-14563829D02*
X10655932Y-14573353D01*
X10655932Y-14573353D02*
X10646408Y-14582877D01*
X10646408Y-14582877D02*
X10636885Y-14573353D01*
X10636885Y-14573353D02*
X10646408Y-14563829D01*
X10646408Y-14563829D02*
X10646408Y-14582877D01*
X10779742Y-14382877D02*
X10798789Y-14382877D01*
X10798789Y-14382877D02*
X10817837Y-14392401D01*
X10817837Y-14392401D02*
X10827361Y-14401925D01*
X10827361Y-14401925D02*
X10836885Y-14420972D01*
X10836885Y-14420972D02*
X10846408Y-14459067D01*
X10846408Y-14459067D02*
X10846408Y-14506686D01*
X10846408Y-14506686D02*
X10836885Y-14544782D01*
X10836885Y-14544782D02*
X10827361Y-14563829D01*
X10827361Y-14563829D02*
X10817837Y-14573353D01*
X10817837Y-14573353D02*
X10798789Y-14582877D01*
X10798789Y-14582877D02*
X10779742Y-14582877D01*
X10779742Y-14582877D02*
X10760694Y-14573353D01*
X10760694Y-14573353D02*
X10751170Y-14563829D01*
X10751170Y-14563829D02*
X10741646Y-14544782D01*
X10741646Y-14544782D02*
X10732123Y-14506686D01*
X10732123Y-14506686D02*
X10732123Y-14459067D01*
X10732123Y-14459067D02*
X10741646Y-14420972D01*
X10741646Y-14420972D02*
X10751170Y-14401925D01*
X10751170Y-14401925D02*
X10760694Y-14392401D01*
X10760694Y-14392401D02*
X10779742Y-14382877D01*
X11017837Y-14449544D02*
X11017837Y-14582877D01*
X10970218Y-14373353D02*
X10922599Y-14516210D01*
X10922599Y-14516210D02*
X11046408Y-14516210D01*
X11103551Y-14382877D02*
X11236884Y-14382877D01*
X11236884Y-14382877D02*
X11151170Y-14582877D01*
X11303551Y-14401925D02*
X11313075Y-14392401D01*
X11313075Y-14392401D02*
X11332123Y-14382877D01*
X11332123Y-14382877D02*
X11379742Y-14382877D01*
X11379742Y-14382877D02*
X11398789Y-14392401D01*
X11398789Y-14392401D02*
X11408313Y-14401925D01*
X11408313Y-14401925D02*
X11417837Y-14420972D01*
X11417837Y-14420972D02*
X11417837Y-14440020D01*
X11417837Y-14440020D02*
X11408313Y-14468591D01*
X11408313Y-14468591D02*
X11294027Y-14582877D01*
X11294027Y-14582877D02*
X11417837Y-14582877D01*
X11494027Y-14382877D02*
X11494027Y-14420972D01*
X11570218Y-14382877D02*
X11570218Y-14420972D01*
X11865456Y-14659067D02*
X11855932Y-14649544D01*
X11855932Y-14649544D02*
X11836885Y-14620972D01*
X11836885Y-14620972D02*
X11827361Y-14601925D01*
X11827361Y-14601925D02*
X11817837Y-14573353D01*
X11817837Y-14573353D02*
X11808313Y-14525734D01*
X11808313Y-14525734D02*
X11808313Y-14487639D01*
X11808313Y-14487639D02*
X11817837Y-14440020D01*
X11817837Y-14440020D02*
X11827361Y-14411448D01*
X11827361Y-14411448D02*
X11836885Y-14392401D01*
X11836885Y-14392401D02*
X11855932Y-14363829D01*
X11855932Y-14363829D02*
X11865456Y-14354305D01*
X11970218Y-14468591D02*
X11951170Y-14459067D01*
X11951170Y-14459067D02*
X11941646Y-14449544D01*
X11941646Y-14449544D02*
X11932123Y-14430496D01*
X11932123Y-14430496D02*
X11932123Y-14420972D01*
X11932123Y-14420972D02*
X11941646Y-14401925D01*
X11941646Y-14401925D02*
X11951170Y-14392401D01*
X11951170Y-14392401D02*
X11970218Y-14382877D01*
X11970218Y-14382877D02*
X12008313Y-14382877D01*
X12008313Y-14382877D02*
X12027361Y-14392401D01*
X12027361Y-14392401D02*
X12036885Y-14401925D01*
X12036885Y-14401925D02*
X12046408Y-14420972D01*
X12046408Y-14420972D02*
X12046408Y-14430496D01*
X12046408Y-14430496D02*
X12036885Y-14449544D01*
X12036885Y-14449544D02*
X12027361Y-14459067D01*
X12027361Y-14459067D02*
X12008313Y-14468591D01*
X12008313Y-14468591D02*
X11970218Y-14468591D01*
X11970218Y-14468591D02*
X11951170Y-14478115D01*
X11951170Y-14478115D02*
X11941646Y-14487639D01*
X11941646Y-14487639D02*
X11932123Y-14506686D01*
X11932123Y-14506686D02*
X11932123Y-14544782D01*
X11932123Y-14544782D02*
X11941646Y-14563829D01*
X11941646Y-14563829D02*
X11951170Y-14573353D01*
X11951170Y-14573353D02*
X11970218Y-14582877D01*
X11970218Y-14582877D02*
X12008313Y-14582877D01*
X12008313Y-14582877D02*
X12027361Y-14573353D01*
X12027361Y-14573353D02*
X12036885Y-14563829D01*
X12036885Y-14563829D02*
X12046408Y-14544782D01*
X12046408Y-14544782D02*
X12046408Y-14506686D01*
X12046408Y-14506686D02*
X12036885Y-14487639D01*
X12036885Y-14487639D02*
X12027361Y-14478115D01*
X12027361Y-14478115D02*
X12008313Y-14468591D01*
X12284504Y-14582877D02*
X12284504Y-14382877D01*
X12370218Y-14582877D02*
X12370218Y-14478115D01*
X12370218Y-14478115D02*
X12360694Y-14459067D01*
X12360694Y-14459067D02*
X12341647Y-14449544D01*
X12341647Y-14449544D02*
X12313075Y-14449544D01*
X12313075Y-14449544D02*
X12294027Y-14459067D01*
X12294027Y-14459067D02*
X12284504Y-14468591D01*
X12494027Y-14582877D02*
X12474980Y-14573353D01*
X12474980Y-14573353D02*
X12465456Y-14563829D01*
X12465456Y-14563829D02*
X12455932Y-14544782D01*
X12455932Y-14544782D02*
X12455932Y-14487639D01*
X12455932Y-14487639D02*
X12465456Y-14468591D01*
X12465456Y-14468591D02*
X12474980Y-14459067D01*
X12474980Y-14459067D02*
X12494027Y-14449544D01*
X12494027Y-14449544D02*
X12522599Y-14449544D01*
X12522599Y-14449544D02*
X12541647Y-14459067D01*
X12541647Y-14459067D02*
X12551170Y-14468591D01*
X12551170Y-14468591D02*
X12560694Y-14487639D01*
X12560694Y-14487639D02*
X12560694Y-14544782D01*
X12560694Y-14544782D02*
X12551170Y-14563829D01*
X12551170Y-14563829D02*
X12541647Y-14573353D01*
X12541647Y-14573353D02*
X12522599Y-14582877D01*
X12522599Y-14582877D02*
X12494027Y-14582877D01*
X12674980Y-14582877D02*
X12655932Y-14573353D01*
X12655932Y-14573353D02*
X12646408Y-14554305D01*
X12646408Y-14554305D02*
X12646408Y-14382877D01*
X12827361Y-14573353D02*
X12808313Y-14582877D01*
X12808313Y-14582877D02*
X12770218Y-14582877D01*
X12770218Y-14582877D02*
X12751170Y-14573353D01*
X12751170Y-14573353D02*
X12741647Y-14554305D01*
X12741647Y-14554305D02*
X12741647Y-14478115D01*
X12741647Y-14478115D02*
X12751170Y-14459067D01*
X12751170Y-14459067D02*
X12770218Y-14449544D01*
X12770218Y-14449544D02*
X12808313Y-14449544D01*
X12808313Y-14449544D02*
X12827361Y-14459067D01*
X12827361Y-14459067D02*
X12836885Y-14478115D01*
X12836885Y-14478115D02*
X12836885Y-14497163D01*
X12836885Y-14497163D02*
X12741647Y-14516210D01*
X12913075Y-14573353D02*
X12932123Y-14582877D01*
X12932123Y-14582877D02*
X12970218Y-14582877D01*
X12970218Y-14582877D02*
X12989266Y-14573353D01*
X12989266Y-14573353D02*
X12998789Y-14554305D01*
X12998789Y-14554305D02*
X12998789Y-14544782D01*
X12998789Y-14544782D02*
X12989266Y-14525734D01*
X12989266Y-14525734D02*
X12970218Y-14516210D01*
X12970218Y-14516210D02*
X12941647Y-14516210D01*
X12941647Y-14516210D02*
X12922599Y-14506686D01*
X12922599Y-14506686D02*
X12913075Y-14487639D01*
X12913075Y-14487639D02*
X12913075Y-14478115D01*
X12913075Y-14478115D02*
X12922599Y-14459067D01*
X12922599Y-14459067D02*
X12941647Y-14449544D01*
X12941647Y-14449544D02*
X12970218Y-14449544D01*
X12970218Y-14449544D02*
X12989266Y-14459067D01*
X13065456Y-14659067D02*
X13074980Y-14649544D01*
X13074980Y-14649544D02*
X13094028Y-14620972D01*
X13094028Y-14620972D02*
X13103551Y-14601925D01*
X13103551Y-14601925D02*
X13113075Y-14573353D01*
X13113075Y-14573353D02*
X13122599Y-14525734D01*
X13122599Y-14525734D02*
X13122599Y-14487639D01*
X13122599Y-14487639D02*
X13113075Y-14440020D01*
X13113075Y-14440020D02*
X13103551Y-14411448D01*
X13103551Y-14411448D02*
X13094028Y-14392401D01*
X13094028Y-14392401D02*
X13074980Y-14363829D01*
X13074980Y-14363829D02*
X13065456Y-14354305D01*
D16*
X8160393Y-14690393D02*
X8290393Y-14820393D01*
X8290393Y-14690393D02*
X8160393Y-14820393D01*
X8290393Y-14755393D02*
G75*
G02*
X8160393Y-14755393I-65000J0D01*
G01*
X8160393Y-14755393D02*
G75*
G02*
X8290393Y-14755393I65000J0D01*
G01*
D11*
X8655932Y-14846877D02*
X8541646Y-14846877D01*
X8598789Y-14846877D02*
X8598789Y-14646877D01*
X8598789Y-14646877D02*
X8579741Y-14675448D01*
X8579741Y-14675448D02*
X8560694Y-14694496D01*
X8560694Y-14694496D02*
X8541646Y-14704020D01*
X8741646Y-14827829D02*
X8751170Y-14837353D01*
X8751170Y-14837353D02*
X8741646Y-14846877D01*
X8741646Y-14846877D02*
X8732122Y-14837353D01*
X8732122Y-14837353D02*
X8741646Y-14827829D01*
X8741646Y-14827829D02*
X8741646Y-14846877D01*
X8817837Y-14646877D02*
X8941646Y-14646877D01*
X8941646Y-14646877D02*
X8874980Y-14723067D01*
X8874980Y-14723067D02*
X8903551Y-14723067D01*
X8903551Y-14723067D02*
X8922599Y-14732591D01*
X8922599Y-14732591D02*
X8932122Y-14742115D01*
X8932122Y-14742115D02*
X8941646Y-14761163D01*
X8941646Y-14761163D02*
X8941646Y-14808782D01*
X8941646Y-14808782D02*
X8932122Y-14827829D01*
X8932122Y-14827829D02*
X8922599Y-14837353D01*
X8922599Y-14837353D02*
X8903551Y-14846877D01*
X8903551Y-14846877D02*
X8846408Y-14846877D01*
X8846408Y-14846877D02*
X8827361Y-14837353D01*
X8827361Y-14837353D02*
X8817837Y-14827829D01*
X9065456Y-14646877D02*
X9084503Y-14646877D01*
X9084503Y-14646877D02*
X9103551Y-14656401D01*
X9103551Y-14656401D02*
X9113075Y-14665925D01*
X9113075Y-14665925D02*
X9122599Y-14684972D01*
X9122599Y-14684972D02*
X9132122Y-14723067D01*
X9132122Y-14723067D02*
X9132122Y-14770686D01*
X9132122Y-14770686D02*
X9122599Y-14808782D01*
X9122599Y-14808782D02*
X9113075Y-14827829D01*
X9113075Y-14827829D02*
X9103551Y-14837353D01*
X9103551Y-14837353D02*
X9084503Y-14846877D01*
X9084503Y-14846877D02*
X9065456Y-14846877D01*
X9065456Y-14846877D02*
X9046408Y-14837353D01*
X9046408Y-14837353D02*
X9036884Y-14827829D01*
X9036884Y-14827829D02*
X9027361Y-14808782D01*
X9027361Y-14808782D02*
X9017837Y-14770686D01*
X9017837Y-14770686D02*
X9017837Y-14723067D01*
X9017837Y-14723067D02*
X9027361Y-14684972D01*
X9027361Y-14684972D02*
X9036884Y-14665925D01*
X9036884Y-14665925D02*
X9046408Y-14656401D01*
X9046408Y-14656401D02*
X9065456Y-14646877D01*
X9255932Y-14646877D02*
X9274980Y-14646877D01*
X9274980Y-14646877D02*
X9294027Y-14656401D01*
X9294027Y-14656401D02*
X9303551Y-14665925D01*
X9303551Y-14665925D02*
X9313075Y-14684972D01*
X9313075Y-14684972D02*
X9322599Y-14723067D01*
X9322599Y-14723067D02*
X9322599Y-14770686D01*
X9322599Y-14770686D02*
X9313075Y-14808782D01*
X9313075Y-14808782D02*
X9303551Y-14827829D01*
X9303551Y-14827829D02*
X9294027Y-14837353D01*
X9294027Y-14837353D02*
X9274980Y-14846877D01*
X9274980Y-14846877D02*
X9255932Y-14846877D01*
X9255932Y-14846877D02*
X9236884Y-14837353D01*
X9236884Y-14837353D02*
X9227361Y-14827829D01*
X9227361Y-14827829D02*
X9217837Y-14808782D01*
X9217837Y-14808782D02*
X9208313Y-14770686D01*
X9208313Y-14770686D02*
X9208313Y-14723067D01*
X9208313Y-14723067D02*
X9217837Y-14684972D01*
X9217837Y-14684972D02*
X9227361Y-14665925D01*
X9227361Y-14665925D02*
X9236884Y-14656401D01*
X9236884Y-14656401D02*
X9255932Y-14646877D01*
X9408313Y-14846877D02*
X9408313Y-14713544D01*
X9408313Y-14732591D02*
X9417837Y-14723067D01*
X9417837Y-14723067D02*
X9436884Y-14713544D01*
X9436884Y-14713544D02*
X9465456Y-14713544D01*
X9465456Y-14713544D02*
X9484503Y-14723067D01*
X9484503Y-14723067D02*
X9494027Y-14742115D01*
X9494027Y-14742115D02*
X9494027Y-14846877D01*
X9494027Y-14742115D02*
X9503551Y-14723067D01*
X9503551Y-14723067D02*
X9522599Y-14713544D01*
X9522599Y-14713544D02*
X9551170Y-14713544D01*
X9551170Y-14713544D02*
X9570218Y-14723067D01*
X9570218Y-14723067D02*
X9579742Y-14742115D01*
X9579742Y-14742115D02*
X9579742Y-14846877D01*
X9674980Y-14846877D02*
X9674980Y-14713544D01*
X9674980Y-14732591D02*
X9684503Y-14723067D01*
X9684503Y-14723067D02*
X9703551Y-14713544D01*
X9703551Y-14713544D02*
X9732123Y-14713544D01*
X9732123Y-14713544D02*
X9751170Y-14723067D01*
X9751170Y-14723067D02*
X9760694Y-14742115D01*
X9760694Y-14742115D02*
X9760694Y-14846877D01*
X9760694Y-14742115D02*
X9770218Y-14723067D01*
X9770218Y-14723067D02*
X9789265Y-14713544D01*
X9789265Y-14713544D02*
X9817837Y-14713544D01*
X9817837Y-14713544D02*
X9836884Y-14723067D01*
X9836884Y-14723067D02*
X9846408Y-14742115D01*
X9846408Y-14742115D02*
X9846408Y-14846877D01*
X10236884Y-14637353D02*
X10065456Y-14894496D01*
X10494027Y-14646877D02*
X10513075Y-14646877D01*
X10513075Y-14646877D02*
X10532123Y-14656401D01*
X10532123Y-14656401D02*
X10541646Y-14665925D01*
X10541646Y-14665925D02*
X10551170Y-14684972D01*
X10551170Y-14684972D02*
X10560694Y-14723067D01*
X10560694Y-14723067D02*
X10560694Y-14770686D01*
X10560694Y-14770686D02*
X10551170Y-14808782D01*
X10551170Y-14808782D02*
X10541646Y-14827829D01*
X10541646Y-14827829D02*
X10532123Y-14837353D01*
X10532123Y-14837353D02*
X10513075Y-14846877D01*
X10513075Y-14846877D02*
X10494027Y-14846877D01*
X10494027Y-14846877D02*
X10474980Y-14837353D01*
X10474980Y-14837353D02*
X10465456Y-14827829D01*
X10465456Y-14827829D02*
X10455932Y-14808782D01*
X10455932Y-14808782D02*
X10446408Y-14770686D01*
X10446408Y-14770686D02*
X10446408Y-14723067D01*
X10446408Y-14723067D02*
X10455932Y-14684972D01*
X10455932Y-14684972D02*
X10465456Y-14665925D01*
X10465456Y-14665925D02*
X10474980Y-14656401D01*
X10474980Y-14656401D02*
X10494027Y-14646877D01*
X10646408Y-14827829D02*
X10655932Y-14837353D01*
X10655932Y-14837353D02*
X10646408Y-14846877D01*
X10646408Y-14846877D02*
X10636885Y-14837353D01*
X10636885Y-14837353D02*
X10646408Y-14827829D01*
X10646408Y-14827829D02*
X10646408Y-14846877D01*
X10779742Y-14646877D02*
X10798789Y-14646877D01*
X10798789Y-14646877D02*
X10817837Y-14656401D01*
X10817837Y-14656401D02*
X10827361Y-14665925D01*
X10827361Y-14665925D02*
X10836885Y-14684972D01*
X10836885Y-14684972D02*
X10846408Y-14723067D01*
X10846408Y-14723067D02*
X10846408Y-14770686D01*
X10846408Y-14770686D02*
X10836885Y-14808782D01*
X10836885Y-14808782D02*
X10827361Y-14827829D01*
X10827361Y-14827829D02*
X10817837Y-14837353D01*
X10817837Y-14837353D02*
X10798789Y-14846877D01*
X10798789Y-14846877D02*
X10779742Y-14846877D01*
X10779742Y-14846877D02*
X10760694Y-14837353D01*
X10760694Y-14837353D02*
X10751170Y-14827829D01*
X10751170Y-14827829D02*
X10741646Y-14808782D01*
X10741646Y-14808782D02*
X10732123Y-14770686D01*
X10732123Y-14770686D02*
X10732123Y-14723067D01*
X10732123Y-14723067D02*
X10741646Y-14684972D01*
X10741646Y-14684972D02*
X10751170Y-14665925D01*
X10751170Y-14665925D02*
X10760694Y-14656401D01*
X10760694Y-14656401D02*
X10779742Y-14646877D01*
X11027361Y-14646877D02*
X10932123Y-14646877D01*
X10932123Y-14646877D02*
X10922599Y-14742115D01*
X10922599Y-14742115D02*
X10932123Y-14732591D01*
X10932123Y-14732591D02*
X10951170Y-14723067D01*
X10951170Y-14723067D02*
X10998789Y-14723067D01*
X10998789Y-14723067D02*
X11017837Y-14732591D01*
X11017837Y-14732591D02*
X11027361Y-14742115D01*
X11027361Y-14742115D02*
X11036885Y-14761163D01*
X11036885Y-14761163D02*
X11036885Y-14808782D01*
X11036885Y-14808782D02*
X11027361Y-14827829D01*
X11027361Y-14827829D02*
X11017837Y-14837353D01*
X11017837Y-14837353D02*
X10998789Y-14846877D01*
X10998789Y-14846877D02*
X10951170Y-14846877D01*
X10951170Y-14846877D02*
X10932123Y-14837353D01*
X10932123Y-14837353D02*
X10922599Y-14827829D01*
X11227361Y-14846877D02*
X11113075Y-14846877D01*
X11170218Y-14846877D02*
X11170218Y-14646877D01*
X11170218Y-14646877D02*
X11151170Y-14675448D01*
X11151170Y-14675448D02*
X11132123Y-14694496D01*
X11132123Y-14694496D02*
X11113075Y-14704020D01*
X11303551Y-14665925D02*
X11313075Y-14656401D01*
X11313075Y-14656401D02*
X11332123Y-14646877D01*
X11332123Y-14646877D02*
X11379742Y-14646877D01*
X11379742Y-14646877D02*
X11398789Y-14656401D01*
X11398789Y-14656401D02*
X11408313Y-14665925D01*
X11408313Y-14665925D02*
X11417837Y-14684972D01*
X11417837Y-14684972D02*
X11417837Y-14704020D01*
X11417837Y-14704020D02*
X11408313Y-14732591D01*
X11408313Y-14732591D02*
X11294027Y-14846877D01*
X11294027Y-14846877D02*
X11417837Y-14846877D01*
X11494027Y-14646877D02*
X11494027Y-14684972D01*
X11570218Y-14646877D02*
X11570218Y-14684972D01*
X11865456Y-14923067D02*
X11855932Y-14913544D01*
X11855932Y-14913544D02*
X11836885Y-14884972D01*
X11836885Y-14884972D02*
X11827361Y-14865925D01*
X11827361Y-14865925D02*
X11817837Y-14837353D01*
X11817837Y-14837353D02*
X11808313Y-14789734D01*
X11808313Y-14789734D02*
X11808313Y-14751639D01*
X11808313Y-14751639D02*
X11817837Y-14704020D01*
X11817837Y-14704020D02*
X11827361Y-14675448D01*
X11827361Y-14675448D02*
X11836885Y-14656401D01*
X11836885Y-14656401D02*
X11855932Y-14627829D01*
X11855932Y-14627829D02*
X11865456Y-14618305D01*
X12046408Y-14846877D02*
X11932123Y-14846877D01*
X11989265Y-14846877D02*
X11989265Y-14646877D01*
X11989265Y-14646877D02*
X11970218Y-14675448D01*
X11970218Y-14675448D02*
X11951170Y-14694496D01*
X11951170Y-14694496D02*
X11932123Y-14704020D01*
X12217837Y-14713544D02*
X12217837Y-14846877D01*
X12170218Y-14637353D02*
X12122599Y-14780210D01*
X12122599Y-14780210D02*
X12246408Y-14780210D01*
X12474980Y-14846877D02*
X12474980Y-14646877D01*
X12560694Y-14846877D02*
X12560694Y-14742115D01*
X12560694Y-14742115D02*
X12551170Y-14723067D01*
X12551170Y-14723067D02*
X12532123Y-14713544D01*
X12532123Y-14713544D02*
X12503551Y-14713544D01*
X12503551Y-14713544D02*
X12484504Y-14723067D01*
X12484504Y-14723067D02*
X12474980Y-14732591D01*
X12684504Y-14846877D02*
X12665456Y-14837353D01*
X12665456Y-14837353D02*
X12655932Y-14827829D01*
X12655932Y-14827829D02*
X12646408Y-14808782D01*
X12646408Y-14808782D02*
X12646408Y-14751639D01*
X12646408Y-14751639D02*
X12655932Y-14732591D01*
X12655932Y-14732591D02*
X12665456Y-14723067D01*
X12665456Y-14723067D02*
X12684504Y-14713544D01*
X12684504Y-14713544D02*
X12713075Y-14713544D01*
X12713075Y-14713544D02*
X12732123Y-14723067D01*
X12732123Y-14723067D02*
X12741647Y-14732591D01*
X12741647Y-14732591D02*
X12751170Y-14751639D01*
X12751170Y-14751639D02*
X12751170Y-14808782D01*
X12751170Y-14808782D02*
X12741647Y-14827829D01*
X12741647Y-14827829D02*
X12732123Y-14837353D01*
X12732123Y-14837353D02*
X12713075Y-14846877D01*
X12713075Y-14846877D02*
X12684504Y-14846877D01*
X12865456Y-14846877D02*
X12846408Y-14837353D01*
X12846408Y-14837353D02*
X12836885Y-14818305D01*
X12836885Y-14818305D02*
X12836885Y-14646877D01*
X13017837Y-14837353D02*
X12998789Y-14846877D01*
X12998789Y-14846877D02*
X12960694Y-14846877D01*
X12960694Y-14846877D02*
X12941647Y-14837353D01*
X12941647Y-14837353D02*
X12932123Y-14818305D01*
X12932123Y-14818305D02*
X12932123Y-14742115D01*
X12932123Y-14742115D02*
X12941647Y-14723067D01*
X12941647Y-14723067D02*
X12960694Y-14713544D01*
X12960694Y-14713544D02*
X12998789Y-14713544D01*
X12998789Y-14713544D02*
X13017837Y-14723067D01*
X13017837Y-14723067D02*
X13027361Y-14742115D01*
X13027361Y-14742115D02*
X13027361Y-14761163D01*
X13027361Y-14761163D02*
X12932123Y-14780210D01*
X13103551Y-14837353D02*
X13122599Y-14846877D01*
X13122599Y-14846877D02*
X13160694Y-14846877D01*
X13160694Y-14846877D02*
X13179742Y-14837353D01*
X13179742Y-14837353D02*
X13189266Y-14818305D01*
X13189266Y-14818305D02*
X13189266Y-14808782D01*
X13189266Y-14808782D02*
X13179742Y-14789734D01*
X13179742Y-14789734D02*
X13160694Y-14780210D01*
X13160694Y-14780210D02*
X13132123Y-14780210D01*
X13132123Y-14780210D02*
X13113075Y-14770686D01*
X13113075Y-14770686D02*
X13103551Y-14751639D01*
X13103551Y-14751639D02*
X13103551Y-14742115D01*
X13103551Y-14742115D02*
X13113075Y-14723067D01*
X13113075Y-14723067D02*
X13132123Y-14713544D01*
X13132123Y-14713544D02*
X13160694Y-14713544D01*
X13160694Y-14713544D02*
X13179742Y-14723067D01*
X13255932Y-14923067D02*
X13265456Y-14913544D01*
X13265456Y-14913544D02*
X13284504Y-14884972D01*
X13284504Y-14884972D02*
X13294028Y-14865925D01*
X13294028Y-14865925D02*
X13303551Y-14837353D01*
X13303551Y-14837353D02*
X13313075Y-14789734D01*
X13313075Y-14789734D02*
X13313075Y-14751639D01*
X13313075Y-14751639D02*
X13303551Y-14704020D01*
X13303551Y-14704020D02*
X13294028Y-14675448D01*
X13294028Y-14675448D02*
X13284504Y-14656401D01*
X13284504Y-14656401D02*
X13265456Y-14627829D01*
X13265456Y-14627829D02*
X13255932Y-14618305D01*
D17*
X8150693Y-14949543D02*
X8290393Y-15089243D01*
X8290393Y-14949543D02*
X8150693Y-15089243D01*
X8220543Y-14949543D02*
X8220543Y-15089243D01*
X8150693Y-15019393D02*
X8290393Y-15019393D01*
D11*
X8655932Y-15110877D02*
X8541646Y-15110877D01*
X8598789Y-15110877D02*
X8598789Y-14910877D01*
X8598789Y-14910877D02*
X8579741Y-14939448D01*
X8579741Y-14939448D02*
X8560694Y-14958496D01*
X8560694Y-14958496D02*
X8541646Y-14968020D01*
X8741646Y-15091829D02*
X8751170Y-15101353D01*
X8751170Y-15101353D02*
X8741646Y-15110877D01*
X8741646Y-15110877D02*
X8732122Y-15101353D01*
X8732122Y-15101353D02*
X8741646Y-15091829D01*
X8741646Y-15091829D02*
X8741646Y-15110877D01*
X8817837Y-14910877D02*
X8941646Y-14910877D01*
X8941646Y-14910877D02*
X8874980Y-14987067D01*
X8874980Y-14987067D02*
X8903551Y-14987067D01*
X8903551Y-14987067D02*
X8922599Y-14996591D01*
X8922599Y-14996591D02*
X8932122Y-15006115D01*
X8932122Y-15006115D02*
X8941646Y-15025163D01*
X8941646Y-15025163D02*
X8941646Y-15072782D01*
X8941646Y-15072782D02*
X8932122Y-15091829D01*
X8932122Y-15091829D02*
X8922599Y-15101353D01*
X8922599Y-15101353D02*
X8903551Y-15110877D01*
X8903551Y-15110877D02*
X8846408Y-15110877D01*
X8846408Y-15110877D02*
X8827361Y-15101353D01*
X8827361Y-15101353D02*
X8817837Y-15091829D01*
X9036884Y-15110877D02*
X9074980Y-15110877D01*
X9074980Y-15110877D02*
X9094027Y-15101353D01*
X9094027Y-15101353D02*
X9103551Y-15091829D01*
X9103551Y-15091829D02*
X9122599Y-15063258D01*
X9122599Y-15063258D02*
X9132122Y-15025163D01*
X9132122Y-15025163D02*
X9132122Y-14948972D01*
X9132122Y-14948972D02*
X9122599Y-14929925D01*
X9122599Y-14929925D02*
X9113075Y-14920401D01*
X9113075Y-14920401D02*
X9094027Y-14910877D01*
X9094027Y-14910877D02*
X9055932Y-14910877D01*
X9055932Y-14910877D02*
X9036884Y-14920401D01*
X9036884Y-14920401D02*
X9027361Y-14929925D01*
X9027361Y-14929925D02*
X9017837Y-14948972D01*
X9017837Y-14948972D02*
X9017837Y-14996591D01*
X9017837Y-14996591D02*
X9027361Y-15015639D01*
X9027361Y-15015639D02*
X9036884Y-15025163D01*
X9036884Y-15025163D02*
X9055932Y-15034686D01*
X9055932Y-15034686D02*
X9094027Y-15034686D01*
X9094027Y-15034686D02*
X9113075Y-15025163D01*
X9113075Y-15025163D02*
X9122599Y-15015639D01*
X9122599Y-15015639D02*
X9132122Y-14996591D01*
X9198789Y-14910877D02*
X9332122Y-14910877D01*
X9332122Y-14910877D02*
X9246408Y-15110877D01*
X9408313Y-15110877D02*
X9408313Y-14977544D01*
X9408313Y-14996591D02*
X9417837Y-14987067D01*
X9417837Y-14987067D02*
X9436884Y-14977544D01*
X9436884Y-14977544D02*
X9465456Y-14977544D01*
X9465456Y-14977544D02*
X9484503Y-14987067D01*
X9484503Y-14987067D02*
X9494027Y-15006115D01*
X9494027Y-15006115D02*
X9494027Y-15110877D01*
X9494027Y-15006115D02*
X9503551Y-14987067D01*
X9503551Y-14987067D02*
X9522599Y-14977544D01*
X9522599Y-14977544D02*
X9551170Y-14977544D01*
X9551170Y-14977544D02*
X9570218Y-14987067D01*
X9570218Y-14987067D02*
X9579742Y-15006115D01*
X9579742Y-15006115D02*
X9579742Y-15110877D01*
X9674980Y-15110877D02*
X9674980Y-14977544D01*
X9674980Y-14996591D02*
X9684503Y-14987067D01*
X9684503Y-14987067D02*
X9703551Y-14977544D01*
X9703551Y-14977544D02*
X9732123Y-14977544D01*
X9732123Y-14977544D02*
X9751170Y-14987067D01*
X9751170Y-14987067D02*
X9760694Y-15006115D01*
X9760694Y-15006115D02*
X9760694Y-15110877D01*
X9760694Y-15006115D02*
X9770218Y-14987067D01*
X9770218Y-14987067D02*
X9789265Y-14977544D01*
X9789265Y-14977544D02*
X9817837Y-14977544D01*
X9817837Y-14977544D02*
X9836884Y-14987067D01*
X9836884Y-14987067D02*
X9846408Y-15006115D01*
X9846408Y-15006115D02*
X9846408Y-15110877D01*
X10236884Y-14901353D02*
X10065456Y-15158496D01*
X10494027Y-14910877D02*
X10513075Y-14910877D01*
X10513075Y-14910877D02*
X10532123Y-14920401D01*
X10532123Y-14920401D02*
X10541646Y-14929925D01*
X10541646Y-14929925D02*
X10551170Y-14948972D01*
X10551170Y-14948972D02*
X10560694Y-14987067D01*
X10560694Y-14987067D02*
X10560694Y-15034686D01*
X10560694Y-15034686D02*
X10551170Y-15072782D01*
X10551170Y-15072782D02*
X10541646Y-15091829D01*
X10541646Y-15091829D02*
X10532123Y-15101353D01*
X10532123Y-15101353D02*
X10513075Y-15110877D01*
X10513075Y-15110877D02*
X10494027Y-15110877D01*
X10494027Y-15110877D02*
X10474980Y-15101353D01*
X10474980Y-15101353D02*
X10465456Y-15091829D01*
X10465456Y-15091829D02*
X10455932Y-15072782D01*
X10455932Y-15072782D02*
X10446408Y-15034686D01*
X10446408Y-15034686D02*
X10446408Y-14987067D01*
X10446408Y-14987067D02*
X10455932Y-14948972D01*
X10455932Y-14948972D02*
X10465456Y-14929925D01*
X10465456Y-14929925D02*
X10474980Y-14920401D01*
X10474980Y-14920401D02*
X10494027Y-14910877D01*
X10646408Y-15091829D02*
X10655932Y-15101353D01*
X10655932Y-15101353D02*
X10646408Y-15110877D01*
X10646408Y-15110877D02*
X10636885Y-15101353D01*
X10636885Y-15101353D02*
X10646408Y-15091829D01*
X10646408Y-15091829D02*
X10646408Y-15110877D01*
X10779742Y-14910877D02*
X10798789Y-14910877D01*
X10798789Y-14910877D02*
X10817837Y-14920401D01*
X10817837Y-14920401D02*
X10827361Y-14929925D01*
X10827361Y-14929925D02*
X10836885Y-14948972D01*
X10836885Y-14948972D02*
X10846408Y-14987067D01*
X10846408Y-14987067D02*
X10846408Y-15034686D01*
X10846408Y-15034686D02*
X10836885Y-15072782D01*
X10836885Y-15072782D02*
X10827361Y-15091829D01*
X10827361Y-15091829D02*
X10817837Y-15101353D01*
X10817837Y-15101353D02*
X10798789Y-15110877D01*
X10798789Y-15110877D02*
X10779742Y-15110877D01*
X10779742Y-15110877D02*
X10760694Y-15101353D01*
X10760694Y-15101353D02*
X10751170Y-15091829D01*
X10751170Y-15091829D02*
X10741646Y-15072782D01*
X10741646Y-15072782D02*
X10732123Y-15034686D01*
X10732123Y-15034686D02*
X10732123Y-14987067D01*
X10732123Y-14987067D02*
X10741646Y-14948972D01*
X10741646Y-14948972D02*
X10751170Y-14929925D01*
X10751170Y-14929925D02*
X10760694Y-14920401D01*
X10760694Y-14920401D02*
X10779742Y-14910877D01*
X11027361Y-14910877D02*
X10932123Y-14910877D01*
X10932123Y-14910877D02*
X10922599Y-15006115D01*
X10922599Y-15006115D02*
X10932123Y-14996591D01*
X10932123Y-14996591D02*
X10951170Y-14987067D01*
X10951170Y-14987067D02*
X10998789Y-14987067D01*
X10998789Y-14987067D02*
X11017837Y-14996591D01*
X11017837Y-14996591D02*
X11027361Y-15006115D01*
X11027361Y-15006115D02*
X11036885Y-15025163D01*
X11036885Y-15025163D02*
X11036885Y-15072782D01*
X11036885Y-15072782D02*
X11027361Y-15091829D01*
X11027361Y-15091829D02*
X11017837Y-15101353D01*
X11017837Y-15101353D02*
X10998789Y-15110877D01*
X10998789Y-15110877D02*
X10951170Y-15110877D01*
X10951170Y-15110877D02*
X10932123Y-15101353D01*
X10932123Y-15101353D02*
X10922599Y-15091829D01*
X11217837Y-14910877D02*
X11122599Y-14910877D01*
X11122599Y-14910877D02*
X11113075Y-15006115D01*
X11113075Y-15006115D02*
X11122599Y-14996591D01*
X11122599Y-14996591D02*
X11141646Y-14987067D01*
X11141646Y-14987067D02*
X11189265Y-14987067D01*
X11189265Y-14987067D02*
X11208313Y-14996591D01*
X11208313Y-14996591D02*
X11217837Y-15006115D01*
X11217837Y-15006115D02*
X11227361Y-15025163D01*
X11227361Y-15025163D02*
X11227361Y-15072782D01*
X11227361Y-15072782D02*
X11217837Y-15091829D01*
X11217837Y-15091829D02*
X11208313Y-15101353D01*
X11208313Y-15101353D02*
X11189265Y-15110877D01*
X11189265Y-15110877D02*
X11141646Y-15110877D01*
X11141646Y-15110877D02*
X11122599Y-15101353D01*
X11122599Y-15101353D02*
X11113075Y-15091829D01*
X11351170Y-14910877D02*
X11370218Y-14910877D01*
X11370218Y-14910877D02*
X11389265Y-14920401D01*
X11389265Y-14920401D02*
X11398789Y-14929925D01*
X11398789Y-14929925D02*
X11408313Y-14948972D01*
X11408313Y-14948972D02*
X11417837Y-14987067D01*
X11417837Y-14987067D02*
X11417837Y-15034686D01*
X11417837Y-15034686D02*
X11408313Y-15072782D01*
X11408313Y-15072782D02*
X11398789Y-15091829D01*
X11398789Y-15091829D02*
X11389265Y-15101353D01*
X11389265Y-15101353D02*
X11370218Y-15110877D01*
X11370218Y-15110877D02*
X11351170Y-15110877D01*
X11351170Y-15110877D02*
X11332123Y-15101353D01*
X11332123Y-15101353D02*
X11322599Y-15091829D01*
X11322599Y-15091829D02*
X11313075Y-15072782D01*
X11313075Y-15072782D02*
X11303551Y-15034686D01*
X11303551Y-15034686D02*
X11303551Y-14987067D01*
X11303551Y-14987067D02*
X11313075Y-14948972D01*
X11313075Y-14948972D02*
X11322599Y-14929925D01*
X11322599Y-14929925D02*
X11332123Y-14920401D01*
X11332123Y-14920401D02*
X11351170Y-14910877D01*
X11494027Y-14910877D02*
X11494027Y-14948972D01*
X11570218Y-14910877D02*
X11570218Y-14948972D01*
X11865456Y-15187067D02*
X11855932Y-15177544D01*
X11855932Y-15177544D02*
X11836885Y-15148972D01*
X11836885Y-15148972D02*
X11827361Y-15129925D01*
X11827361Y-15129925D02*
X11817837Y-15101353D01*
X11817837Y-15101353D02*
X11808313Y-15053734D01*
X11808313Y-15053734D02*
X11808313Y-15015639D01*
X11808313Y-15015639D02*
X11817837Y-14968020D01*
X11817837Y-14968020D02*
X11827361Y-14939448D01*
X11827361Y-14939448D02*
X11836885Y-14920401D01*
X11836885Y-14920401D02*
X11855932Y-14891829D01*
X11855932Y-14891829D02*
X11865456Y-14882305D01*
X12027361Y-14910877D02*
X11989265Y-14910877D01*
X11989265Y-14910877D02*
X11970218Y-14920401D01*
X11970218Y-14920401D02*
X11960694Y-14929925D01*
X11960694Y-14929925D02*
X11941646Y-14958496D01*
X11941646Y-14958496D02*
X11932123Y-14996591D01*
X11932123Y-14996591D02*
X11932123Y-15072782D01*
X11932123Y-15072782D02*
X11941646Y-15091829D01*
X11941646Y-15091829D02*
X11951170Y-15101353D01*
X11951170Y-15101353D02*
X11970218Y-15110877D01*
X11970218Y-15110877D02*
X12008313Y-15110877D01*
X12008313Y-15110877D02*
X12027361Y-15101353D01*
X12027361Y-15101353D02*
X12036885Y-15091829D01*
X12036885Y-15091829D02*
X12046408Y-15072782D01*
X12046408Y-15072782D02*
X12046408Y-15025163D01*
X12046408Y-15025163D02*
X12036885Y-15006115D01*
X12036885Y-15006115D02*
X12027361Y-14996591D01*
X12027361Y-14996591D02*
X12008313Y-14987067D01*
X12008313Y-14987067D02*
X11970218Y-14987067D01*
X11970218Y-14987067D02*
X11951170Y-14996591D01*
X11951170Y-14996591D02*
X11941646Y-15006115D01*
X11941646Y-15006115D02*
X11932123Y-15025163D01*
X12284504Y-15110877D02*
X12284504Y-14910877D01*
X12370218Y-15110877D02*
X12370218Y-15006115D01*
X12370218Y-15006115D02*
X12360694Y-14987067D01*
X12360694Y-14987067D02*
X12341647Y-14977544D01*
X12341647Y-14977544D02*
X12313075Y-14977544D01*
X12313075Y-14977544D02*
X12294027Y-14987067D01*
X12294027Y-14987067D02*
X12284504Y-14996591D01*
X12494027Y-15110877D02*
X12474980Y-15101353D01*
X12474980Y-15101353D02*
X12465456Y-15091829D01*
X12465456Y-15091829D02*
X12455932Y-15072782D01*
X12455932Y-15072782D02*
X12455932Y-15015639D01*
X12455932Y-15015639D02*
X12465456Y-14996591D01*
X12465456Y-14996591D02*
X12474980Y-14987067D01*
X12474980Y-14987067D02*
X12494027Y-14977544D01*
X12494027Y-14977544D02*
X12522599Y-14977544D01*
X12522599Y-14977544D02*
X12541647Y-14987067D01*
X12541647Y-14987067D02*
X12551170Y-14996591D01*
X12551170Y-14996591D02*
X12560694Y-15015639D01*
X12560694Y-15015639D02*
X12560694Y-15072782D01*
X12560694Y-15072782D02*
X12551170Y-15091829D01*
X12551170Y-15091829D02*
X12541647Y-15101353D01*
X12541647Y-15101353D02*
X12522599Y-15110877D01*
X12522599Y-15110877D02*
X12494027Y-15110877D01*
X12674980Y-15110877D02*
X12655932Y-15101353D01*
X12655932Y-15101353D02*
X12646408Y-15082305D01*
X12646408Y-15082305D02*
X12646408Y-14910877D01*
X12827361Y-15101353D02*
X12808313Y-15110877D01*
X12808313Y-15110877D02*
X12770218Y-15110877D01*
X12770218Y-15110877D02*
X12751170Y-15101353D01*
X12751170Y-15101353D02*
X12741647Y-15082305D01*
X12741647Y-15082305D02*
X12741647Y-15006115D01*
X12741647Y-15006115D02*
X12751170Y-14987067D01*
X12751170Y-14987067D02*
X12770218Y-14977544D01*
X12770218Y-14977544D02*
X12808313Y-14977544D01*
X12808313Y-14977544D02*
X12827361Y-14987067D01*
X12827361Y-14987067D02*
X12836885Y-15006115D01*
X12836885Y-15006115D02*
X12836885Y-15025163D01*
X12836885Y-15025163D02*
X12741647Y-15044210D01*
X12913075Y-15101353D02*
X12932123Y-15110877D01*
X12932123Y-15110877D02*
X12970218Y-15110877D01*
X12970218Y-15110877D02*
X12989266Y-15101353D01*
X12989266Y-15101353D02*
X12998789Y-15082305D01*
X12998789Y-15082305D02*
X12998789Y-15072782D01*
X12998789Y-15072782D02*
X12989266Y-15053734D01*
X12989266Y-15053734D02*
X12970218Y-15044210D01*
X12970218Y-15044210D02*
X12941647Y-15044210D01*
X12941647Y-15044210D02*
X12922599Y-15034686D01*
X12922599Y-15034686D02*
X12913075Y-15015639D01*
X12913075Y-15015639D02*
X12913075Y-15006115D01*
X12913075Y-15006115D02*
X12922599Y-14987067D01*
X12922599Y-14987067D02*
X12941647Y-14977544D01*
X12941647Y-14977544D02*
X12970218Y-14977544D01*
X12970218Y-14977544D02*
X12989266Y-14987067D01*
X13065456Y-15187067D02*
X13074980Y-15177544D01*
X13074980Y-15177544D02*
X13094028Y-15148972D01*
X13094028Y-15148972D02*
X13103551Y-15129925D01*
X13103551Y-15129925D02*
X13113075Y-15101353D01*
X13113075Y-15101353D02*
X13122599Y-15053734D01*
X13122599Y-15053734D02*
X13122599Y-15015639D01*
X13122599Y-15015639D02*
X13113075Y-14968020D01*
X13113075Y-14968020D02*
X13103551Y-14939448D01*
X13103551Y-14939448D02*
X13094028Y-14920401D01*
X13094028Y-14920401D02*
X13074980Y-14891829D01*
X13074980Y-14891829D02*
X13065456Y-14882305D01*
X8090393Y-15183393D02*
X8290393Y-15383393D01*
X8290393Y-15183393D02*
X8090393Y-15383393D01*
X8261105Y-15354105D02*
X8261105Y-15212682D01*
X8119682Y-15212682D01*
X8119682Y-15354105D01*
X8261105Y-15354105D01*
X8541646Y-15193925D02*
X8551170Y-15184401D01*
X8551170Y-15184401D02*
X8570218Y-15174877D01*
X8570218Y-15174877D02*
X8617837Y-15174877D01*
X8617837Y-15174877D02*
X8636884Y-15184401D01*
X8636884Y-15184401D02*
X8646408Y-15193925D01*
X8646408Y-15193925D02*
X8655932Y-15212972D01*
X8655932Y-15212972D02*
X8655932Y-15232020D01*
X8655932Y-15232020D02*
X8646408Y-15260591D01*
X8646408Y-15260591D02*
X8532122Y-15374877D01*
X8532122Y-15374877D02*
X8655932Y-15374877D01*
X8741646Y-15355829D02*
X8751170Y-15365353D01*
X8751170Y-15365353D02*
X8741646Y-15374877D01*
X8741646Y-15374877D02*
X8732122Y-15365353D01*
X8732122Y-15365353D02*
X8741646Y-15355829D01*
X8741646Y-15355829D02*
X8741646Y-15374877D01*
X8874980Y-15174877D02*
X8894027Y-15174877D01*
X8894027Y-15174877D02*
X8913075Y-15184401D01*
X8913075Y-15184401D02*
X8922599Y-15193925D01*
X8922599Y-15193925D02*
X8932122Y-15212972D01*
X8932122Y-15212972D02*
X8941646Y-15251067D01*
X8941646Y-15251067D02*
X8941646Y-15298686D01*
X8941646Y-15298686D02*
X8932122Y-15336782D01*
X8932122Y-15336782D02*
X8922599Y-15355829D01*
X8922599Y-15355829D02*
X8913075Y-15365353D01*
X8913075Y-15365353D02*
X8894027Y-15374877D01*
X8894027Y-15374877D02*
X8874980Y-15374877D01*
X8874980Y-15374877D02*
X8855932Y-15365353D01*
X8855932Y-15365353D02*
X8846408Y-15355829D01*
X8846408Y-15355829D02*
X8836884Y-15336782D01*
X8836884Y-15336782D02*
X8827361Y-15298686D01*
X8827361Y-15298686D02*
X8827361Y-15251067D01*
X8827361Y-15251067D02*
X8836884Y-15212972D01*
X8836884Y-15212972D02*
X8846408Y-15193925D01*
X8846408Y-15193925D02*
X8855932Y-15184401D01*
X8855932Y-15184401D02*
X8874980Y-15174877D01*
X9065456Y-15174877D02*
X9084503Y-15174877D01*
X9084503Y-15174877D02*
X9103551Y-15184401D01*
X9103551Y-15184401D02*
X9113075Y-15193925D01*
X9113075Y-15193925D02*
X9122599Y-15212972D01*
X9122599Y-15212972D02*
X9132122Y-15251067D01*
X9132122Y-15251067D02*
X9132122Y-15298686D01*
X9132122Y-15298686D02*
X9122599Y-15336782D01*
X9122599Y-15336782D02*
X9113075Y-15355829D01*
X9113075Y-15355829D02*
X9103551Y-15365353D01*
X9103551Y-15365353D02*
X9084503Y-15374877D01*
X9084503Y-15374877D02*
X9065456Y-15374877D01*
X9065456Y-15374877D02*
X9046408Y-15365353D01*
X9046408Y-15365353D02*
X9036884Y-15355829D01*
X9036884Y-15355829D02*
X9027361Y-15336782D01*
X9027361Y-15336782D02*
X9017837Y-15298686D01*
X9017837Y-15298686D02*
X9017837Y-15251067D01*
X9017837Y-15251067D02*
X9027361Y-15212972D01*
X9027361Y-15212972D02*
X9036884Y-15193925D01*
X9036884Y-15193925D02*
X9046408Y-15184401D01*
X9046408Y-15184401D02*
X9065456Y-15174877D01*
X9255932Y-15174877D02*
X9274980Y-15174877D01*
X9274980Y-15174877D02*
X9294027Y-15184401D01*
X9294027Y-15184401D02*
X9303551Y-15193925D01*
X9303551Y-15193925D02*
X9313075Y-15212972D01*
X9313075Y-15212972D02*
X9322599Y-15251067D01*
X9322599Y-15251067D02*
X9322599Y-15298686D01*
X9322599Y-15298686D02*
X9313075Y-15336782D01*
X9313075Y-15336782D02*
X9303551Y-15355829D01*
X9303551Y-15355829D02*
X9294027Y-15365353D01*
X9294027Y-15365353D02*
X9274980Y-15374877D01*
X9274980Y-15374877D02*
X9255932Y-15374877D01*
X9255932Y-15374877D02*
X9236884Y-15365353D01*
X9236884Y-15365353D02*
X9227361Y-15355829D01*
X9227361Y-15355829D02*
X9217837Y-15336782D01*
X9217837Y-15336782D02*
X9208313Y-15298686D01*
X9208313Y-15298686D02*
X9208313Y-15251067D01*
X9208313Y-15251067D02*
X9217837Y-15212972D01*
X9217837Y-15212972D02*
X9227361Y-15193925D01*
X9227361Y-15193925D02*
X9236884Y-15184401D01*
X9236884Y-15184401D02*
X9255932Y-15174877D01*
X9408313Y-15374877D02*
X9408313Y-15241544D01*
X9408313Y-15260591D02*
X9417837Y-15251067D01*
X9417837Y-15251067D02*
X9436884Y-15241544D01*
X9436884Y-15241544D02*
X9465456Y-15241544D01*
X9465456Y-15241544D02*
X9484503Y-15251067D01*
X9484503Y-15251067D02*
X9494027Y-15270115D01*
X9494027Y-15270115D02*
X9494027Y-15374877D01*
X9494027Y-15270115D02*
X9503551Y-15251067D01*
X9503551Y-15251067D02*
X9522599Y-15241544D01*
X9522599Y-15241544D02*
X9551170Y-15241544D01*
X9551170Y-15241544D02*
X9570218Y-15251067D01*
X9570218Y-15251067D02*
X9579742Y-15270115D01*
X9579742Y-15270115D02*
X9579742Y-15374877D01*
X9674980Y-15374877D02*
X9674980Y-15241544D01*
X9674980Y-15260591D02*
X9684503Y-15251067D01*
X9684503Y-15251067D02*
X9703551Y-15241544D01*
X9703551Y-15241544D02*
X9732123Y-15241544D01*
X9732123Y-15241544D02*
X9751170Y-15251067D01*
X9751170Y-15251067D02*
X9760694Y-15270115D01*
X9760694Y-15270115D02*
X9760694Y-15374877D01*
X9760694Y-15270115D02*
X9770218Y-15251067D01*
X9770218Y-15251067D02*
X9789265Y-15241544D01*
X9789265Y-15241544D02*
X9817837Y-15241544D01*
X9817837Y-15241544D02*
X9836884Y-15251067D01*
X9836884Y-15251067D02*
X9846408Y-15270115D01*
X9846408Y-15270115D02*
X9846408Y-15374877D01*
X10236884Y-15165353D02*
X10065456Y-15422496D01*
X10494027Y-15174877D02*
X10513075Y-15174877D01*
X10513075Y-15174877D02*
X10532123Y-15184401D01*
X10532123Y-15184401D02*
X10541646Y-15193925D01*
X10541646Y-15193925D02*
X10551170Y-15212972D01*
X10551170Y-15212972D02*
X10560694Y-15251067D01*
X10560694Y-15251067D02*
X10560694Y-15298686D01*
X10560694Y-15298686D02*
X10551170Y-15336782D01*
X10551170Y-15336782D02*
X10541646Y-15355829D01*
X10541646Y-15355829D02*
X10532123Y-15365353D01*
X10532123Y-15365353D02*
X10513075Y-15374877D01*
X10513075Y-15374877D02*
X10494027Y-15374877D01*
X10494027Y-15374877D02*
X10474980Y-15365353D01*
X10474980Y-15365353D02*
X10465456Y-15355829D01*
X10465456Y-15355829D02*
X10455932Y-15336782D01*
X10455932Y-15336782D02*
X10446408Y-15298686D01*
X10446408Y-15298686D02*
X10446408Y-15251067D01*
X10446408Y-15251067D02*
X10455932Y-15212972D01*
X10455932Y-15212972D02*
X10465456Y-15193925D01*
X10465456Y-15193925D02*
X10474980Y-15184401D01*
X10474980Y-15184401D02*
X10494027Y-15174877D01*
X10646408Y-15355829D02*
X10655932Y-15365353D01*
X10655932Y-15365353D02*
X10646408Y-15374877D01*
X10646408Y-15374877D02*
X10636885Y-15365353D01*
X10636885Y-15365353D02*
X10646408Y-15355829D01*
X10646408Y-15355829D02*
X10646408Y-15374877D01*
X10779742Y-15174877D02*
X10798789Y-15174877D01*
X10798789Y-15174877D02*
X10817837Y-15184401D01*
X10817837Y-15184401D02*
X10827361Y-15193925D01*
X10827361Y-15193925D02*
X10836885Y-15212972D01*
X10836885Y-15212972D02*
X10846408Y-15251067D01*
X10846408Y-15251067D02*
X10846408Y-15298686D01*
X10846408Y-15298686D02*
X10836885Y-15336782D01*
X10836885Y-15336782D02*
X10827361Y-15355829D01*
X10827361Y-15355829D02*
X10817837Y-15365353D01*
X10817837Y-15365353D02*
X10798789Y-15374877D01*
X10798789Y-15374877D02*
X10779742Y-15374877D01*
X10779742Y-15374877D02*
X10760694Y-15365353D01*
X10760694Y-15365353D02*
X10751170Y-15355829D01*
X10751170Y-15355829D02*
X10741646Y-15336782D01*
X10741646Y-15336782D02*
X10732123Y-15298686D01*
X10732123Y-15298686D02*
X10732123Y-15251067D01*
X10732123Y-15251067D02*
X10741646Y-15212972D01*
X10741646Y-15212972D02*
X10751170Y-15193925D01*
X10751170Y-15193925D02*
X10760694Y-15184401D01*
X10760694Y-15184401D02*
X10779742Y-15174877D01*
X10913075Y-15174877D02*
X11046408Y-15174877D01*
X11046408Y-15174877D02*
X10960694Y-15374877D01*
X11151170Y-15260591D02*
X11132123Y-15251067D01*
X11132123Y-15251067D02*
X11122599Y-15241544D01*
X11122599Y-15241544D02*
X11113075Y-15222496D01*
X11113075Y-15222496D02*
X11113075Y-15212972D01*
X11113075Y-15212972D02*
X11122599Y-15193925D01*
X11122599Y-15193925D02*
X11132123Y-15184401D01*
X11132123Y-15184401D02*
X11151170Y-15174877D01*
X11151170Y-15174877D02*
X11189265Y-15174877D01*
X11189265Y-15174877D02*
X11208313Y-15184401D01*
X11208313Y-15184401D02*
X11217837Y-15193925D01*
X11217837Y-15193925D02*
X11227361Y-15212972D01*
X11227361Y-15212972D02*
X11227361Y-15222496D01*
X11227361Y-15222496D02*
X11217837Y-15241544D01*
X11217837Y-15241544D02*
X11208313Y-15251067D01*
X11208313Y-15251067D02*
X11189265Y-15260591D01*
X11189265Y-15260591D02*
X11151170Y-15260591D01*
X11151170Y-15260591D02*
X11132123Y-15270115D01*
X11132123Y-15270115D02*
X11122599Y-15279639D01*
X11122599Y-15279639D02*
X11113075Y-15298686D01*
X11113075Y-15298686D02*
X11113075Y-15336782D01*
X11113075Y-15336782D02*
X11122599Y-15355829D01*
X11122599Y-15355829D02*
X11132123Y-15365353D01*
X11132123Y-15365353D02*
X11151170Y-15374877D01*
X11151170Y-15374877D02*
X11189265Y-15374877D01*
X11189265Y-15374877D02*
X11208313Y-15365353D01*
X11208313Y-15365353D02*
X11217837Y-15355829D01*
X11217837Y-15355829D02*
X11227361Y-15336782D01*
X11227361Y-15336782D02*
X11227361Y-15298686D01*
X11227361Y-15298686D02*
X11217837Y-15279639D01*
X11217837Y-15279639D02*
X11208313Y-15270115D01*
X11208313Y-15270115D02*
X11189265Y-15260591D01*
X11294027Y-15174877D02*
X11427361Y-15174877D01*
X11427361Y-15174877D02*
X11341646Y-15374877D01*
X11494027Y-15174877D02*
X11494027Y-15212972D01*
X11570218Y-15174877D02*
X11570218Y-15212972D01*
X11865456Y-15451067D02*
X11855932Y-15441544D01*
X11855932Y-15441544D02*
X11836885Y-15412972D01*
X11836885Y-15412972D02*
X11827361Y-15393925D01*
X11827361Y-15393925D02*
X11817837Y-15365353D01*
X11817837Y-15365353D02*
X11808313Y-15317734D01*
X11808313Y-15317734D02*
X11808313Y-15279639D01*
X11808313Y-15279639D02*
X11817837Y-15232020D01*
X11817837Y-15232020D02*
X11827361Y-15203448D01*
X11827361Y-15203448D02*
X11836885Y-15184401D01*
X11836885Y-15184401D02*
X11855932Y-15155829D01*
X11855932Y-15155829D02*
X11865456Y-15146305D01*
X12027361Y-15241544D02*
X12027361Y-15374877D01*
X11979742Y-15165353D02*
X11932123Y-15308210D01*
X11932123Y-15308210D02*
X12055932Y-15308210D01*
X12284504Y-15374877D02*
X12284504Y-15174877D01*
X12370218Y-15374877D02*
X12370218Y-15270115D01*
X12370218Y-15270115D02*
X12360694Y-15251067D01*
X12360694Y-15251067D02*
X12341647Y-15241544D01*
X12341647Y-15241544D02*
X12313075Y-15241544D01*
X12313075Y-15241544D02*
X12294027Y-15251067D01*
X12294027Y-15251067D02*
X12284504Y-15260591D01*
X12494027Y-15374877D02*
X12474980Y-15365353D01*
X12474980Y-15365353D02*
X12465456Y-15355829D01*
X12465456Y-15355829D02*
X12455932Y-15336782D01*
X12455932Y-15336782D02*
X12455932Y-15279639D01*
X12455932Y-15279639D02*
X12465456Y-15260591D01*
X12465456Y-15260591D02*
X12474980Y-15251067D01*
X12474980Y-15251067D02*
X12494027Y-15241544D01*
X12494027Y-15241544D02*
X12522599Y-15241544D01*
X12522599Y-15241544D02*
X12541647Y-15251067D01*
X12541647Y-15251067D02*
X12551170Y-15260591D01*
X12551170Y-15260591D02*
X12560694Y-15279639D01*
X12560694Y-15279639D02*
X12560694Y-15336782D01*
X12560694Y-15336782D02*
X12551170Y-15355829D01*
X12551170Y-15355829D02*
X12541647Y-15365353D01*
X12541647Y-15365353D02*
X12522599Y-15374877D01*
X12522599Y-15374877D02*
X12494027Y-15374877D01*
X12674980Y-15374877D02*
X12655932Y-15365353D01*
X12655932Y-15365353D02*
X12646408Y-15346305D01*
X12646408Y-15346305D02*
X12646408Y-15174877D01*
X12827361Y-15365353D02*
X12808313Y-15374877D01*
X12808313Y-15374877D02*
X12770218Y-15374877D01*
X12770218Y-15374877D02*
X12751170Y-15365353D01*
X12751170Y-15365353D02*
X12741647Y-15346305D01*
X12741647Y-15346305D02*
X12741647Y-15270115D01*
X12741647Y-15270115D02*
X12751170Y-15251067D01*
X12751170Y-15251067D02*
X12770218Y-15241544D01*
X12770218Y-15241544D02*
X12808313Y-15241544D01*
X12808313Y-15241544D02*
X12827361Y-15251067D01*
X12827361Y-15251067D02*
X12836885Y-15270115D01*
X12836885Y-15270115D02*
X12836885Y-15289163D01*
X12836885Y-15289163D02*
X12741647Y-15308210D01*
X12913075Y-15365353D02*
X12932123Y-15374877D01*
X12932123Y-15374877D02*
X12970218Y-15374877D01*
X12970218Y-15374877D02*
X12989266Y-15365353D01*
X12989266Y-15365353D02*
X12998789Y-15346305D01*
X12998789Y-15346305D02*
X12998789Y-15336782D01*
X12998789Y-15336782D02*
X12989266Y-15317734D01*
X12989266Y-15317734D02*
X12970218Y-15308210D01*
X12970218Y-15308210D02*
X12941647Y-15308210D01*
X12941647Y-15308210D02*
X12922599Y-15298686D01*
X12922599Y-15298686D02*
X12913075Y-15279639D01*
X12913075Y-15279639D02*
X12913075Y-15270115D01*
X12913075Y-15270115D02*
X12922599Y-15251067D01*
X12922599Y-15251067D02*
X12941647Y-15241544D01*
X12941647Y-15241544D02*
X12970218Y-15241544D01*
X12970218Y-15241544D02*
X12989266Y-15251067D01*
X13065456Y-15451067D02*
X13074980Y-15441544D01*
X13074980Y-15441544D02*
X13094028Y-15412972D01*
X13094028Y-15412972D02*
X13103551Y-15393925D01*
X13103551Y-15393925D02*
X13113075Y-15365353D01*
X13113075Y-15365353D02*
X13122599Y-15317734D01*
X13122599Y-15317734D02*
X13122599Y-15279639D01*
X13122599Y-15279639D02*
X13113075Y-15232020D01*
X13113075Y-15232020D02*
X13103551Y-15203448D01*
X13103551Y-15203448D02*
X13094028Y-15184401D01*
X13094028Y-15184401D02*
X13074980Y-15155829D01*
X13074980Y-15155829D02*
X13065456Y-15146305D01*
M02*
