%TF.GenerationSoftware,KiCad,Pcbnew,9.0.7*%
%TF.CreationDate,2026-03-06T16:11:09+05:30*%
%TF.ProjectId,V2 Solenoid Engine PCB,56322053-6f6c-4656-9e6f-696420456e67,rev?*%
%TF.SameCoordinates,Original*%
%TF.FileFunction,Paste,Top*%
%TF.FilePolarity,Positive*%
%FSLAX46Y46*%
G04 Gerber Fmt 4.6, Leading zero omitted, Abs format (unit mm)*
G04 Created by KiCad (PCBNEW 9.0.7) date 2026-03-06 16:11:09*
%MOMM*%
%LPD*%
G01*
G04 APERTURE LIST*
G04 Aperture macros list*
%AMRoundRect*
0 Rectangle with rounded corners*
0 $1 Rounding radius*
0 $2 $3 $4 $5 $6 $7 $8 $9 X,Y pos of 4 corners*
0 Add a 4 corners polygon primitive as box body*
4,1,4,$2,$3,$4,$5,$6,$7,$8,$9,$2,$3,0*
0 Add four circle primitives for the rounded corners*
1,1,$1+$1,$2,$3*
1,1,$1+$1,$4,$5*
1,1,$1+$1,$6,$7*
1,1,$1+$1,$8,$9*
0 Add four rect primitives between the rounded corners*
20,1,$1+$1,$2,$3,$4,$5,0*
20,1,$1+$1,$4,$5,$6,$7,0*
20,1,$1+$1,$6,$7,$8,$9,0*
20,1,$1+$1,$8,$9,$2,$3,0*%
G04 Aperture macros list end*
%ADD10RoundRect,0.250000X-0.362500X-1.425000X0.362500X-1.425000X0.362500X1.425000X-0.362500X1.425000X0*%
%ADD11RoundRect,0.250000X-0.475000X0.250000X-0.475000X-0.250000X0.475000X-0.250000X0.475000X0.250000X0*%
%ADD12RoundRect,0.150000X-0.825000X-0.150000X0.825000X-0.150000X0.825000X0.150000X-0.825000X0.150000X0*%
%TA.AperFunction,Profile*%
%ADD13C,0.050000*%
%TD*%
G04 APERTURE END LIST*
D10*
%TO.C,R4*%
X104551276Y-95501429D03*
X110476276Y-95501429D03*
%TD*%
D11*
%TO.C,C6*%
X174913776Y-103751429D03*
X174913776Y-105651429D03*
%TD*%
D10*
%TO.C,R6*%
X104588776Y-101001429D03*
X110513776Y-101001429D03*
%TD*%
D12*
%TO.C,U2*%
X174938776Y-95396429D03*
X174938776Y-96666429D03*
X174938776Y-97936429D03*
X174938776Y-99206429D03*
X179888776Y-99206429D03*
X179888776Y-97936429D03*
X179888776Y-96666429D03*
X179888776Y-95396429D03*
%TD*%
D11*
%TO.C,C5*%
X180113776Y-103851429D03*
X180113776Y-105751429D03*
%TD*%
D13*
X92928932Y-47928932D02*
X192928932Y-47928932D01*
X95428932Y-57928932D02*
G75*
G02*
X90428932Y-57928932I-2500000J0D01*
G01*
X90428932Y-57928932D02*
G75*
G02*
X95428932Y-57928932I2500000J0D01*
G01*
X195428932Y-57928932D02*
G75*
G02*
X190428932Y-57928932I-2500000J0D01*
G01*
X190428932Y-57928932D02*
G75*
G02*
X195428932Y-57928932I2500000J0D01*
G01*
X95428932Y-117928932D02*
G75*
G02*
X90428932Y-117928932I-2500000J0D01*
G01*
X90428932Y-117928932D02*
G75*
G02*
X95428932Y-117928932I2500000J0D01*
G01*
X192928932Y-47928932D02*
G75*
G02*
X202928868Y-57928932I-32J-9999968D01*
G01*
X192928932Y-127928932D02*
X92928932Y-127928932D01*
X195428932Y-117928932D02*
G75*
G02*
X190428932Y-117928932I-2500000J0D01*
G01*
X190428932Y-117928932D02*
G75*
G02*
X195428932Y-117928932I2500000J0D01*
G01*
X92928932Y-127928932D02*
G75*
G02*
X82928928Y-117928932I-2J10000002D01*
G01*
X82928932Y-117928932D02*
X82928932Y-57928932D01*
X202928932Y-117928932D02*
G75*
G02*
X192928932Y-127928932I-10000002J2D01*
G01*
X82928932Y-57928932D02*
G75*
G02*
X92928932Y-47928932I9999998J2D01*
G01*
X202928932Y-57928932D02*
X202928932Y-117928932D01*
M02*
