M48
; DRILL file {KiCad 9.0.7} date 2026-03-06T16:12:08+0530
; FORMAT={-:-/ absolute / metric / decimal}
; #@! TF.CreationDate,2026-03-06T16:12:08+05:30
; #@! TF.GenerationSoftware,Kicad,Pcbnew,9.0.7
; #@! TF.FileFunction,Plated,1,2,PTH
FMAT,2
METRIC
; #@! TA.AperFunction,Plated,PTH,ViaDrill
T1C0.305
; #@! TA.AperFunction,Plated,PTH,ComponentDrill
T2C0.800
; #@! TA.AperFunction,Plated,PTH,ComponentDrill
T3C1.020
; #@! TA.AperFunction,Plated,PTH,ComponentDrill
T4C1.100
; #@! TA.AperFunction,Plated,PTH,ComponentDrill
T5C1.200
; #@! TA.AperFunction,Plated,PTH,ComponentDrill
T6C1.300
; #@! TA.AperFunction,Plated,PTH,ComponentDrill
T7C1.397
; #@! TA.AperFunction,Plated,PTH,ComponentDrill
T8C2.000
%
G90
G05
T1
X84.053Y-70.462
X84.053Y-80.273
X84.053Y-90.084
X84.053Y-99.894
X84.054Y-109.705
X84.056Y-57.7
X89.151Y-49.897
X90.421Y-126.442
X95.034Y-107.442
X95.199Y-76.883
X95.58Y-94.579
X98.837Y-49.053
X100.197Y-126.805
X102.422Y-101.612
X103.229Y-115.137
X103.555Y-60.722
X103.555Y-70.533
X103.555Y-80.344
X103.555Y-90.155
X105.175Y-104.959
X105.571Y-105.736
X108.648Y-49.053
X110.008Y-126.804
X111.62Y-105.883
X112.573Y-95.232
X112.717Y-106.303
X113.187Y-93.209
X113.945Y-59.055
X114.036Y-73.885
X114.206Y-115.797
X119.819Y-126.804
X119.883Y-98.646
X120.8Y-87.796
X121.536Y-102.744
X122.959Y-85.553
X123.756Y-59.055
X127.737Y-80.859
X127.76Y-109.348
X128.18Y-110.445
X129.63Y-126.804
X132.77Y-85.553
X133.481Y-106.526
X133.566Y-59.055
X134.475Y-70.961
X135.471Y-58.766
X136.09Y-116.022
X138.081Y-49.053
X139.08Y-92.806
X139.086Y-104.502
X139.441Y-126.804
X139.774Y-58.996
X142.844Y-75.724
X143.575Y-79.183
X143.761Y-74.997
X143.812Y-98.373
X145.264Y-66.895
X145.901Y-116.022
X147.489Y-96.647
X147.891Y-49.053
X149.252Y-126.804
X150.715Y-86.805
X153.183Y-73.627
X154.99Y-61.43
X155.633Y-100.561
X155.712Y-116.022
X155.876Y-102.257
X157.702Y-49.053
X159.063Y-126.804
X160.526Y-86.805
X162.183Y-76.907
X164.801Y-61.43
X167.513Y-49.053
X167.758Y-102.023
X167.758Y-111.834
X167.935Y-93.246
X168.524Y-91.287
X168.874Y-126.804
X169.12Y-69.97
X172.824Y-95.615
X175.812Y-102.172
X176.546Y-108.099
X176.903Y-96.912
X177.27Y-65.853
X177.324Y-49.053
X177.582Y-100.199
X177.78Y-104.134
X177.886Y-117.361
X178.439Y-98.575
X178.685Y-126.803
X181.733Y-97.911
X183.092Y-118.754
X185.771Y-108.604
X186.844Y-106.36
X187.135Y-49.053
X188.496Y-126.803
X188.652Y-105.96
X189.318Y-58.179
X191.953Y-81.92
X192.571Y-72.217
X196.81Y-49.947
X197.983Y-125.223
X201.803Y-57.815
X201.805Y-67.626
X201.805Y-77.437
X201.805Y-87.248
X201.805Y-97.059
X201.805Y-106.87
X201.805Y-116.681
T2
X101.594Y-110.801
X101.594Y-114.801
X101.594Y-118.851
X101.594Y-122.901
X109.214Y-110.801
X109.214Y-114.801
X109.214Y-118.851
X109.214Y-122.901
X138.604Y-87.801
X138.614Y-91.201
X146.224Y-87.801
X146.234Y-91.201
X173.804Y-110.751
X173.804Y-114.801
X173.804Y-118.851
X173.804Y-122.901
X181.424Y-110.751
X181.424Y-114.801
X181.424Y-118.851
X181.424Y-122.901
T3
X125.899Y-95.274
X125.899Y-120.674
X128.439Y-95.274
X128.439Y-120.674
X130.979Y-95.274
X130.979Y-120.674
X133.519Y-95.274
X133.519Y-120.674
X136.059Y-95.274
X136.059Y-120.674
X138.599Y-95.274
X138.599Y-120.674
X141.139Y-95.274
X141.139Y-120.674
X143.679Y-95.274
X143.679Y-120.674
X146.219Y-95.274
X146.219Y-120.674
X148.759Y-95.274
X148.759Y-120.674
X151.299Y-95.274
X151.299Y-120.674
X153.839Y-95.274
X153.839Y-120.674
X156.379Y-95.274
X156.379Y-120.674
X158.919Y-95.274
X158.919Y-120.674
X161.459Y-95.274
X161.459Y-120.674
T4
X106.714Y-56.421
X106.714Y-58.961
X106.714Y-61.501
X179.214Y-56.421
X179.214Y-58.961
X179.214Y-61.501
T5
X116.094Y-74.989
X116.094Y-82.489
X133.644Y-74.989
X133.644Y-82.489
X151.194Y-74.989
X151.194Y-82.489
X168.744Y-74.989
X168.744Y-82.489
T6
X88.241Y-93.001
X88.241Y-98.001
X88.241Y-104.001
X88.241Y-109.001
X131.464Y-64.501
X134.214Y-53.951
X139.214Y-53.951
X146.164Y-53.901
X151.164Y-53.901
X153.964Y-64.501
X196.914Y-92.901
X196.914Y-97.901
X196.914Y-103.901
X196.914Y-108.901
T7
X113.764Y-64.001
X119.214Y-64.001
X124.664Y-64.001
X160.814Y-64.001
X166.264Y-64.001
X171.714Y-64.001
T8
X95.614Y-69.901
X95.614Y-79.401
X189.914Y-69.901
X189.914Y-79.401
M30
